<svg xmlns:mydata="http://www.w3.org/2000/svg" mydata:contrastcolor="001489" mydata:template="Default" mydata:presentation="2.5" mydata:layouttype="undefined" mydata:specialfontid="undefined" mydata:id1="825" mydata:id2="851" mydata:companyname="Golden links" mydata:companytagline="" version="1.1" xmlns="http://www.w3.org/2000/svg" xmlns:xlink="http://www.w3.org/1999/xlink" style="height: 675px;" viewBox="0 0 550 470"><g fill="#84754e" fill-rule="nonzero" stroke="none" stroke-width="1" stroke-linecap="butt" stroke-linejoin="miter" stroke-miterlimit="10" stroke-dasharray="" stroke-dashoffset="0" font-family="none" font-weight="none" font-size="none" text-anchor="none" style="mix-blend-mode: normal"><g data-paper-data="{&quot;isGlobalGroup&quot;:true,&quot;bounds&quot;:{&quot;x&quot;:65,&quot;y&quot;:125.09813379083924,&quot;width&quot;:420,&quot;height&quot;:219.8037324183215}}"><g data-paper-data="{&quot;isSecondaryText&quot;:true}" id="element-id-30099"><path d="M153.36031,296.62466v0v47.10643l13.60164,0.03443c0.71165,0 1.50364,-0.41321 2.37598,-1.23964c0.87234,-0.82643 1.65286,-1.70451 2.34155,-2.63424c0.68869,-0.92973 1.1593,-1.62416 1.41182,-2.08329l-1.27408,7.09351c-0.528,-0.25252 -1.22243,-0.42469 -2.08329,-0.51652c-0.86086,-0.09183 -1.53234,-0.13774 -2.01442,-0.13774h-21.41828c0.64278,-0.09183 1.19373,-0.32139 1.65286,-0.68869c0.45913,-0.3673 0.68869,-0.79199 0.68869,-1.27408v-45.66018c0,-0.50504 -0.22956,-0.93547 -0.68869,-1.29129c-0.45913,-0.35582 -1.01008,-0.57965 -1.65286,-0.67147h9.36619c-0.61982,0.09183 -1.1593,0.31565 -1.61842,0.67147c-0.45913,0.35582 -0.68869,0.78626 -0.68869,1.29129z" data-paper-data="{&quot;glyphName&quot;:&quot;L&quot;,&quot;glyphIndex&quot;:0,&quot;firstGlyphOfWord&quot;:true,&quot;word&quot;:1}" id="element-id-47101"></path><path d="M206.37897,307.3338v0v0c-0.64278,0 -1.19373,-0.22956 -1.65286,-0.68869c-0.45913,-0.45913 -0.68869,-1.02156 -0.68869,-1.68729c0,-0.64278 0.22956,-1.19373 0.68869,-1.65286c0.45913,-0.45913 1.01008,-0.68869 1.65286,-0.68869c0.64278,0 1.19373,0.22956 1.65286,0.68869c0.45913,0.45913 0.68869,1.01008 0.68869,1.65286c0,0.66573 -0.22956,1.22816 -0.68869,1.68729c-0.45913,0.45913 -1.01008,0.68869 -1.65286,0.68869zM208.72051,310.46734v0v31.92081c0,0.48208 0.2353,0.90678 0.70591,1.27408c0.47061,0.3673 1.01582,0.59687 1.63564,0.68869h-9.36619c0.64278,-0.09183 1.19373,-0.32139 1.65286,-0.68869c0.45913,-0.3673 0.68869,-0.79199 0.68869,-1.27408v-28.95944c0,-0.48208 -0.22956,-0.90678 -0.68869,-1.27408c-0.45913,-0.3673 -1.01008,-0.59687 -1.65286,-0.68869z" data-paper-data="{&quot;glyphName&quot;:&quot;i&quot;,&quot;glyphIndex&quot;:1,&quot;word&quot;:1}" id="element-id-99736"></path><path d="M247.28505,310.46734v0l-7.05908,0.9986c0.64278,0.09183 1.19373,0.32139 1.65286,0.68869c0.45913,0.3673 0.68869,0.79199 0.68869,1.27408v28.925c0,0.48208 -0.22956,0.90104 -0.68869,1.25686c-0.45913,0.35582 -1.01008,0.57965 -1.65286,0.67147h9.36619c-0.61982,-0.09183 -1.1593,-0.31565 -1.61842,-0.67147c-0.45913,-0.35582 -0.68869,-0.77478 -0.68869,-1.25686v-14.42807c0,-3.53528 0.43043,-6.50239 1.29129,-8.90133c0.86086,-2.39894 1.99146,-4.24119 3.3918,-5.52674c1.40034,-1.28556 2.92693,-1.9972 4.57979,-2.13494c1.37738,-0.13774 2.68015,0.132 3.90832,0.80921c1.22816,0.67721 2.23824,1.7906 3.03024,3.34015c0.79199,1.54955 1.18799,3.56397 1.18799,6.04326v20.79845c0,0.48208 -0.22956,0.90104 -0.68869,1.25686c-0.45913,0.35582 -1.01008,0.57965 -1.65286,0.67147c1.19373,0 2.74328,0 4.64866,0c1.76764,0 3.34015,0 4.71753,0c-0.64278,-0.09183 -1.19373,-0.31565 -1.65286,-0.67147c-0.45913,-0.35582 -0.68869,-0.77478 -0.68869,-1.25686v-20.90176c0,-2.29564 -0.57391,-4.2871 -1.72173,-5.97439c-1.14782,-1.68729 -2.61128,-2.96137 -4.3904,-3.82223c-1.77912,-0.86086 -3.64432,-1.24538 -5.59561,-1.15356c-2.47929,0.11478 -4.67736,1.09617 -6.59421,2.94415c-1.91686,1.84799 -3.17372,4.68883 -3.77058,8.52255z" data-paper-data="{&quot;glyphName&quot;:&quot;n&quot;,&quot;glyphIndex&quot;:2,&quot;word&quot;:1}" id="element-id-40399"></path><path d="M308.45097,294.83406v0l-7.02464,1.03304c0.61982,0.09183 1.1593,0.32139 1.61842,0.68869c0.45913,0.3673 0.68869,0.79199 0.68869,1.27408v44.55828c0,0.48208 -0.22956,0.90678 -0.68869,1.27408c-0.45913,0.3673 -0.9986,0.59687 -1.61842,0.68869h9.36619c-0.64278,-0.09183 -1.19373,-0.32139 -1.65286,-0.68869c-0.45913,-0.3673 -0.68869,-0.79199 -0.68869,-1.27408v-11.4667l3.06467,-3.51232l12.84408,16.90735l7.74777,0.03443c-0.68869,0 -1.45773,-0.27548 -2.30711,-0.82643c-0.84938,-0.55095 -1.60694,-1.2626 -2.27268,-2.13494l-13.05069,-17.14839l9.12515,-10.08932c0.22956,-0.22956 0.67721,-0.60834 1.34295,-1.13634c0.66573,-0.528 1.45773,-1.03877 2.37598,-1.53234c0.91825,-0.49356 1.84799,-0.82069 2.7892,-0.98138h-7.74777c0.3673,0.06887 0.64278,0.33287 0.82643,0.79199c0.18365,0.45913 0.2353,0.98138 0.15496,1.56677c-0.08035,0.58539 -0.32713,1.10764 -0.74034,1.56677l-14.15259,15.63327z" data-paper-data="{&quot;glyphName&quot;:&quot;k&quot;,&quot;glyphIndex&quot;:3,&quot;word&quot;:1}" id="element-id-72133"></path><path d="M362.27772,322.20951v0c0.64278,2.3645 1.99146,4.0518 4.04606,5.06188c2.05459,1.01008 4.31005,1.77912 6.76638,2.30711c2.13494,0.48208 4.06327,1.10764 5.785,1.87668c1.72173,0.76904 2.88102,1.97999 3.47789,3.63284c0.43617,1.56103 0.29843,2.99006 -0.41321,4.2871c-0.71165,1.29703 -1.77912,2.34729 -3.20241,3.15076c-1.42329,0.80347 -2.97285,1.23964 -4.64866,1.30851c-2.41042,0 -4.75196,-0.76904 -7.02464,-2.30711c-2.27268,-1.53808 -3.98293,-3.35163 -5.13074,-5.44066l1.27408,7.12795c0.528,-0.27548 1.21669,-0.49356 2.06607,-0.65426c0.84938,-0.16069 1.5266,-0.16069 2.03164,0c0.3673,0.13774 0.72313,0.27548 1.06747,0.41321c1.01008,0.43617 2.00294,0.78052 2.97859,1.03304c0.97564,0.25252 2.07181,0.33287 3.2885,0.24104c2.18085,-0.20661 4.17232,-0.78626 5.97439,-1.73894c1.80207,-0.95269 3.16224,-2.25546 4.08049,-3.90832c0.91825,-1.65286 1.11338,-3.60415 0.58539,-5.85387c-0.61982,-2.1579 -1.91112,-3.73615 -3.87388,-4.73475c-1.96277,-0.9986 -4.1264,-1.79633 -6.49091,-2.3932c-2.18085,-0.55095 -4.1551,-1.25686 -5.92274,-2.11772c-1.76764,-0.86086 -2.94989,-2.16364 -3.54676,-3.90832c-0.43617,-1.6299 -0.26974,-3.09911 0.4993,-4.40762c0.76904,-1.30851 1.89964,-2.34729 3.3918,-3.11632c1.49216,-0.76904 3.08763,-1.15356 4.7864,-1.15356c2.38746,0.09183 4.69457,0.91825 6.92134,2.47929c2.22677,1.56103 3.8911,3.34015 4.99301,5.33735l-1.27408,-7.09351c-0.528,0.27548 -1.21669,0.49356 -2.06607,0.65426c-0.84938,0.16069 -1.5266,0.16069 -2.03164,0c-0.34435,-0.13774 -0.68869,-0.27548 -1.03304,-0.41321c-1.74468,-0.80347 -3.55823,-1.27408 -5.44066,-1.41182c-2.31859,-0.04591 -4.48223,0.38452 -6.49091,1.29129c-2.00868,0.90678 -3.54102,2.24398 -4.59701,4.01162c-1.05599,1.76764 -1.33147,3.91406 -0.82643,6.43926z" data-paper-data="{&quot;glyphName&quot;:&quot;s&quot;,&quot;glyphIndex&quot;:4,&quot;lastGlyphOfWord&quot;:true,&quot;word&quot;:1}" id="element-id-93290"></path></g><g data-paper-data="{&quot;isPrimaryText&quot;:true}" id="element-id-30099"><path d="M87.89646,328.19297h22.41061c0.01026,0 0.0171,-0.01026 0.03079,-0.01026c0.01026,0 0.0171,0.01026 0.03079,0.01026c12.59784,0 22.84856,-10.22677 22.89304,-22.81776c0.00342,-0.03079 0.03422,-0.05132 0.03422,-0.07869v-122.27296c0,-0.02053 -0.02053,-0.03763 -0.02395,-0.05816v-12.49862c0,-0.23608 -0.1916,-0.42768 -0.42768,-0.42768h-10.43547c-3.81836,0 -7.19877,1.83391 -9.48773,4.66004c-3.83888,-2.91167 -8.60841,-4.66004 -13.78509,-4.66004h-11.2053c-12.62521,0 -22.89646,10.27124 -22.89646,22.89988v67.41316c0,12.62521 10.27124,22.89646 22.89646,22.89646h11.2053c3.921,0 7.60934,-0.99222 10.83579,-2.73375v24.70641c-0.00342,0.02737 -0.02737,0.04448 -0.02737,0.07185v11.12319c-0.02053,0.0479 -0.06159,0.08553 -0.06159,0.14028c0,5.94309 -4.83453,10.77762 -10.77762,10.77762c-5.94309,0 -10.77762,-4.83453 -10.77762,-10.77762v-11.26347c0,-12.62521 -10.27124,-22.89987 -22.89988,-22.89987c-0.23608,0 -0.42768,0.1916 -0.42768,0.42768v22.47219c-0.00342,12.62864 10.27124,22.89988 22.89645,22.89988zM99.13256,282.39664c-5.94309,0 -10.77762,-4.83453 -10.77762,-10.77762v-89.94352c0,-5.94309 4.83795,-10.77762 10.77762,-10.77762c4.97823,0 9.55958,1.67994 13.25476,4.47186c-1.52255,2.1521 -2.44977,4.78321 -2.44977,7.65724c0,0.03079 0.02737,0.05132 0.03421,0.08211v96.42035c-3.20592,1.81338 -6.89768,2.86719 -10.83921,2.86719z" data-paper-data="{&quot;glyphName&quot;:&quot;g&quot;,&quot;glyphIndex&quot;:0,&quot;firstGlyphOfWord&quot;:true,&quot;word&quot;:1}" id="element-id-42434"></path><path d="M189.74025,170.03909c-0.01026,0 -0.0171,0.01026 -0.03079,0.01368c-0.01026,0 -0.0171,-0.01369 -0.03079,-0.01369h-22.41061c-0.01026,0 -0.0171,0.01026 -0.02737,0.01368c-0.01026,0 -0.0171,-0.01369 -0.03079,-0.01369c-12.62521,0 -22.89646,10.27124 -22.89646,22.89988v67.41316c0,12.62521 10.27124,22.89646 22.89646,22.89646c0.01026,0 0.0171,-0.01026 0.03079,-0.01026c0.01026,0 0.0171,0.01026 0.02737,0.01026h22.41061c0.01026,0 0.0171,-0.01026 0.03079,-0.01026c0.01369,0 0.01711,0.01026 0.0308,0.01026c12.62521,0 22.89646,-10.27124 22.89646,-22.89646v-67.41316c0.00342,-12.62521 -10.26782,-22.89987 -22.89646,-22.89987zM189.31257,271.47531c-0.02053,0.0479 -0.06159,0.08553 -0.06159,0.14028c0,5.94309 -4.83453,10.77762 -10.77762,10.77762c-5.94309,0 -10.77762,-4.83453 -10.77762,-10.77762c0,-0.05475 -0.04106,-0.09238 -0.05816,-0.14028v-89.65953c0.0171,-0.0479 0.05816,-0.08553 0.05816,-0.1437c0,-5.94309 4.83453,-10.77762 10.77762,-10.77762c5.94309,0 10.77762,4.83795 10.77762,10.77762c0,0.05475 0.04106,0.09238 0.06159,0.1437z" data-paper-data="{&quot;glyphName&quot;:&quot;o&quot;,&quot;glyphIndex&quot;:1,&quot;word&quot;:1}" id="element-id-57402"></path><path d="M236.12207,283.25885h10.43547c0.23608,0 0.42768,-0.1916 0.42768,-0.42768v-12.55678c0,-0.03079 -0.02737,-0.05132 -0.03421,-0.07869v-132.03097c0.00684,-0.03079 0.03421,-0.05132 0.03421,-0.08211c0,-7.15771 -5.5941,-12.98447 -12.47125,-12.98447h-10.43547c-0.23608,0 -0.42768,0.1916 -0.42768,0.42768v12.49862c-0.00342,0.02053 -0.02395,0.03763 -0.02395,0.05816v132.19179c0,0.03079 0.02395,0.0479 0.03079,0.07527c0.04106,7.12349 5.61463,12.90919 12.46441,12.90919z" data-paper-data="{&quot;glyphName&quot;:&quot;l&quot;,&quot;glyphIndex&quot;:2,&quot;word&quot;:1}" id="element-id-66961"></path><path d="M362.12795,236.51446c0.51322,0.17108 0.99222,0.37636 1.50545,0.51323c0.51322,0.17108 1.02644,0.34215 1.57388,0.44479c0.41058,0.10264 0.78694,0.20529 1.19752,0.27372c0.37636,0.10264 0.71851,0.17107 1.09487,0.20529c0.54744,0.10264 1.09487,0.17107 1.64231,0.20529c0.20529,0.03422 0.41058,0.06843 0.61586,0.06843c0.61586,0.03422 1.26594,0.06843 1.91602,0.06843h11.22241c12.62521,0 22.88961,-10.29862 22.88961,-22.92383v-22.44482c0,-12.62521 -10.2644,-22.88961 -22.88961,-22.88961c-0.03422,0 -22.44482,0 -22.44482,0c-0.03422,0 -0.03422,0 -0.03422,0c-12.62521,0 -22.88961,10.2644 -22.88961,22.88961v9.51168l15.53346,19.8445c2.29238,2.94246 4.92691,5.30327 7.76673,6.94558v-47.42153c0.03422,-0.03422 0.06843,-0.06843 0.06843,-0.13686c0,-5.95335 4.82427,-10.77762 10.77762,-10.77762c2.97668,0 5.67964,1.19751 7.62987,3.14775c1.95024,1.95024 3.14775,4.6532 3.14775,7.62987v44.99229c0,4.00311 -2.22395,7.52722 -5.50856,9.40903c-1.53966,0.85537 -3.35303,1.36859 -5.26906,1.36859c-0.30793,0 -0.65008,0 -0.9238,-0.03422c-0.34215,0 -0.61586,0 -0.95801,-0.03422h-0.13686c-0.37636,-0.03422 -0.78694,-0.06843 -1.1633,-0.13686c-0.82115,-0.10264 -1.6423,-0.2395 -2.46345,-0.44479c-0.41058,-0.06843 -0.82115,-0.17107 -1.19752,-0.30793c-1.36859,-0.34215 -2.70296,-0.85537 -4.00311,-1.43701c-0.47901,-0.20529 -0.9238,-0.44479 -1.4028,-0.71851c-0.30793,-0.17108 -0.65008,-0.34215 -0.95801,-0.51323c-1.64231,-0.95801 -3.25039,-2.08709 -4.75584,-3.42147c-0.37636,-0.30793 -0.71851,-0.65008 -1.06065,-0.99222c-1.26594,-1.1633 -2.49767,-2.49767 -3.62676,-3.9689l-11.49613,-14.67809l-11.35927,-14.54123v-58.13072c0,-0.03422 -0.03422,-0.03422 -0.03422,-0.06843c-0.07185,-7.11665 -5.6112,-12.89893 -12.48835,-12.89893h-10.43547c-0.2395,0 -0.41058,0.17108 -0.41058,0.41058v12.55678c0,0.03422 0.03422,0.06843 0.03422,0.06843v34.18045c-0.85537,-0.37636 -1.74495,-0.68429 -2.63453,-0.99222c-0.03422,0 -0.06843,-0.03422 -0.13686,-0.03422c-0.51322,-0.17108 -1.02644,-0.34215 -1.57388,-0.44479c-0.41058,-0.10264 -0.82115,-0.20529 -1.23173,-0.27372c-0.37636,-0.10264 -0.71851,-0.17107 -1.09487,-0.20529c-0.54744,-0.10264 -1.09487,-0.17107 -1.64231,-0.20529c-0.20529,-0.03422 -0.41058,-0.06843 -0.61586,-0.06843c-0.61586,-0.03422 -1.26594,-0.06843 -1.91602,-0.06843h-11.1882c-6.32971,0 -12.07778,2.5661 -16.21775,6.70607c-4.13997,4.13997 -6.70607,9.88804 -6.70607,16.18354v67.43711c0,12.62179 10.2644,22.88619 22.92383,22.88619h11.1882c5.16641,0 9.95647,-1.74495 13.78851,-4.6532c2.29238,2.83982 5.67963,4.6532 9.47746,4.6532h10.43547c0.2395,0 0.44479,-0.17108 0.44479,-0.41058v-12.52257l0.03422,-0.03422v-64.35779l-15.56767,-19.87872c-2.29238,-2.97668 -4.92691,-5.30327 -7.76673,-6.97979v91.11366c0,0.03422 -0.03422,0.06843 -0.03422,0.10265c0,2.87403 0.9238,5.47434 2.42924,7.62987c-3.69518,2.8056 -8.27995,4.48212 -13.24108,4.48212c-5.95335,0 -10.77762,-4.82427 -10.77762,-10.77762v-89.95036c0,-4.03733 2.22395,-7.56144 5.54278,-9.40903c1.53966,-0.88958 3.31882,-1.36859 5.23484,-1.36859c0.34215,0 0.61586,0 0.95801,0.03422c0.27372,0 0.61586,0.03422 0.9238,0.03422h0.13686c0.37636,0.03422 0.78694,0.06843 1.1633,0.13686c0.82115,0.10264 1.6423,0.2395 2.46345,0.44479c0.41058,0.06843 0.82115,0.17107 1.19752,0.30793c0.68429,0.17108 1.36859,0.37636 2.01867,0.65008c0.65008,0.2395 1.30016,0.47901 1.95024,0.78694l0.03422,0.03422c0.47901,0.20529 0.9238,0.44479 1.4028,0.68429c0.30793,0.17108 0.65008,0.34215 0.95801,0.51323c0.85537,0.51322 1.71073,1.06066 2.53188,1.67652c0.41058,0.27372 0.78694,0.54744 1.1633,0.88958c0.78694,0.61586 1.53966,1.26594 2.29238,1.98445c0.37636,0.34215 0.75272,0.71851 1.09487,1.09487c0.41058,0.44479 0.82115,0.85537 1.19752,1.33437c0.41058,0.44479 0.78694,0.9238 1.1633,1.4028l11.53034,14.71231l11.35927,14.50702v48.24268c0,12.62179 10.2644,22.88619 22.88961,22.88619c0,0 0,0 0.03422,0c0,0 0,0 0.03422,0h22.41061c12.62521,0 22.88961,-10.2644 22.88961,-22.88619v-22.47904c0,-0.2395 -0.20529,-0.44479 -0.44479,-0.44479c-12.62521,0 -22.88961,10.29862 -22.88961,22.92383v11.25662c0,5.95335 -4.82427,10.77762 -10.77762,10.77762c-5.95335,0 -10.77762,-4.82427 -10.77762,-10.77762c0,-0.06843 -0.03422,-0.10264 -0.06843,-0.13686v-35.51482c0.44479,0.20871 0.85537,0.37978 1.30016,0.55086z" data-paper-data="{&quot;glyphName&quot;:&quot;&quot;,&quot;glyphIndex&quot;:3,&quot;word&quot;:1}" id="element-id-57420"></path><path d="M429.22667,283.25885h10.43547c0.23608,0 0.42768,-0.1916 0.42768,-0.42768v-12.55678c0,-0.03079 -0.02737,-0.05132 -0.03421,-0.07869v-87.09001c0.00684,-0.03079 0.03421,-0.05132 0.03421,-0.08211c0,-2.88088 -0.93406,-5.51882 -2.46688,-7.67435c3.6986,-2.79876 8.28337,-4.48212 13.26845,-4.48212c5.94309,0 10.77762,4.83453 10.77762,10.77762v88.61599c0,0.00342 -0.00342,0.00684 -0.00342,0.01026c0,7.16113 5.5941,12.98447 12.47125,12.98447h10.43547c0.23608,0 0.42768,-0.1916 0.42768,-0.42768v-12.55678c0,-0.00342 -0.00342,-0.00684 -0.00342,-0.01026v-77.3491c0,-12.62521 -10.27124,-22.89987 -22.89988,-22.89987h-11.2053c-5.18694,0 -9.95647,1.75179 -13.79878,4.6703c-2.28896,-2.81244 -5.66595,-4.63951 -9.47404,-4.63951h-10.4389c-0.23608,0 -0.42768,0.1916 -0.42768,0.42768v12.49862c-0.00342,0.02053 -0.02395,0.03763 -0.02395,0.05816v87.2474c0,0.03079 0.02737,0.0479 0.03079,0.07527c0.04106,7.12349 5.61463,12.90919 12.46782,12.90919z" data-paper-data="{&quot;glyphName&quot;:&quot;n&quot;,&quot;glyphIndex&quot;:4,&quot;lastGlyphOfWord&quot;:true,&quot;word&quot;:1}" id="element-id-66382"></path></g></g></g><rect data-element-id="element-id-30099" stroke-width="2" fill="transparent" class="invisible-element-box grouping-element" x="65" y="125" width="420" height="203" data-element-name="isPrimaryText"></rect><rect data-element-id="element-id-57420" stroke-width="2" fill="transparent" class="invisible-element-box individual-element" x="258" y="125" width="148" height="158"></rect><rect data-element-id="element-id-30099" stroke-width="2" fill="transparent" class="invisible-element-box grouping-element" x="146" y="295" width="240" height="50" data-element-name="isSecondaryText"></rect><rect data-element-id="element-id-42434" stroke-width="2" fill="transparent" class="invisible-element-box individual-element" x="65" y="170" width="68" height="158"></rect><rect data-element-id="element-id-57402" stroke-width="2" fill="transparent" class="invisible-element-box individual-element" x="144" y="170" width="68" height="113"></rect><rect data-element-id="element-id-66382" stroke-width="2" fill="transparent" class="invisible-element-box individual-element" x="417" y="170" width="68" height="113"></rect><rect data-element-id="element-id-66961" stroke-width="2" fill="transparent" class="invisible-element-box individual-element" x="224" y="125" width="23" height="158"></rect><rect data-element-id="element-id-72133" stroke-width="2" fill="transparent" class="invisible-element-box individual-element" x="301" y="295" width="31" height="50"></rect><rect data-element-id="element-id-47101" stroke-width="2" fill="transparent" class="invisible-element-box individual-element" x="146" y="295" width="27" height="50"></rect><rect data-element-id="element-id-40399" stroke-width="2" fill="transparent" class="invisible-element-box individual-element" x="240" y="310" width="31" height="34"></rect><rect data-element-id="element-id-93290" stroke-width="2" fill="transparent" class="invisible-element-box individual-element" x="362" y="310" width="24" height="34"></rect><rect data-element-id="element-id-99736" stroke-width="2" fill="transparent" class="invisible-element-box individual-element" x="202" y="303" width="9" height="42"></rect></svg>