<svg version="1.1" xmlns="http://www.w3.org/2000/svg" xmlns:xlink="http://www.w3.org/1999/xlink" class="thumbnail-icon" viewBox="-0.8598100543022156 0 201.71963500976562 200"><g data-paper-data="{&quot;fillRule&quot;:&quot;evenodd&quot;,&quot;selectedEffects&quot;:{&quot;container&quot;:&quot;&quot;,&quot;transformation&quot;:&quot;&quot;,&quot;pattern&quot;:&quot;&quot;},&quot;initialText&quot;:&quot;G&quot;,&quot;isIcon&quot;:&quot;true&quot;,&quot;iconType&quot;:&quot;initial&quot;,&quot;iconStyle&quot;:&quot;standalone&quot;,&quot;rawInitialId&quot;:246,&quot;disableIconEffects&quot;:&quot;true&quot;,&quot;monogramSpecial&quot;:&quot;half-moon&quot;,&quot;bounds&quot;:{&quot;x&quot;:203.59060603955353,&quot;y&quot;:129.62052460569902,&quot;width&quot;:142.81878792089296,&quot;height&quot;:141.60129145907035}}"><path d="M-0.85981,100c0,-55.22876 44.77152,-100 100,-100c23.29089,0 44.72201,7.96197 61.71982,21.31398c-12.94447,-7.20758 -27.85258,-11.31377 -43.71987,-11.31377c-49.70556,0 -90,40.29369 -90,89.99979c0,49.70567 40.29444,90 90,90c15.86729,0 30.7754,-4.10608 43.71987,-11.31377c-16.99781,13.35126 -38.42893,21.31377 -61.71982,21.31377c-55.22848,0 -100,-44.77156 -100,-100zM200.85981,100c0,44.18279 -35.81721,80 -79.99979,80c-18.63276,0 -35.77763,-6.37 -49.3759,-17.05108c10.35566,5.76617 22.28206,9.05112 34.97591,9.05112c39.76445,0 72.00036,-32.23559 72.00036,-72.00004c0,-39.76424 -32.23591,-72.00047 -72.00036,-72.00047c-12.69385,0 -24.62026,3.28495 -34.97591,9.05165c13.59827,-10.68139 30.74315,-17.05076 49.3759,-17.05076c44.18258,0 79.99979,35.81721 79.99979,79.99958zM112.35713,99.36338h31.06697c1.78253,28.39318 -17.57066,46.09116 -40.87089,46.09116c-23.80952,0 -46.09116,-18.58925 -46.09116,-45.45455c0,-26.86529 22.40896,-45.45455 45.70919,-45.45455c13.87828,0 23.93685,5.72956 30.17571,12.85969l-11.20448,12.22307c-3.69239,-4.20168 -10.44054,-7.76674 -18.58925,-7.76674c-14.0056,0 -26.356,11.96842 -26.356,28.0112c0,16.04278 12.60504,28.26585 26.73797,28.26585c9.93125,0 17.57066,-4.8383 21.0084,-13.11434h-11.58645z" fill-rule="evenodd"></path></g></svg>