<svg version="1.1" xmlns="http://www.w3.org/2000/svg" xmlns:xlink="http://www.w3.org/1999/xlink" class="thumbnail-icon" viewBox="1.3571929931640625 0.000050067901611328125 197.28562927246094 199.9999542236328"><g data-paper-data="{&quot;fillRule&quot;:&quot;nonzero&quot;,&quot;initialText&quot;:&quot;G&quot;,&quot;selectedEffects&quot;:{&quot;container&quot;:&quot;enclosed_circle_outline2&quot;,&quot;transformation&quot;:&quot;&quot;,&quot;pattern&quot;:&quot;&quot;},&quot;blockLetter&quot;:&quot;O&quot;,&quot;blockLetterId&quot;:0,&quot;relativeBoundsIconToContainer&quot;:{&quot;top&quot;:-0.019150102922339807,&quot;left&quot;:-0.04442971289677286},&quot;widthRatioIconToContainer&quot;:0.7701737322594947,&quot;heightRatioIconToContainer&quot;:0.9616997941553204,&quot;bounds&quot;:{&quot;x&quot;:213.17020458190711,&quot;y&quot;:114.99999999999997,&quot;width&quot;:123.65959083618577,&quot;height&quot;:125.3609716496837},&quot;isIcon&quot;:&quot;true&quot;,&quot;iconType&quot;:&quot;initial&quot;,&quot;iconStyle&quot;:&quot;standalone&quot;,&quot;rawInitialId&quot;:569}"><path d="M166.22091,85.52164v100.30931h-14.78761l-7.14734,-14.78761c-0.73938,1.2323 -2.4646,2.4646 -3.6969,3.6969c-1.2323,0.73938 -8.37964,-2.71106 -3.94336,2.71106c0.73938,3.6969 -2.21814,2.95752 -4.9292,3.45044c-0.73938,0.98584 -22.42788,-16.01991 -5.66858,1.97168c-16.51283,-13.55531 -0.73938,2.95752 -5.42212,-0.98584c6.40796,6.65442 -2.95752,0 -0.98584,2.71106c0.24646,1.97168 9.11903,15.28053 -5.66858,1.72522c6.65442,10.10487 -11.83009,-7.88672 -7.64026,0.73938c-2.21814,0.73938 -4.18982,0.98584 -6.65442,0.98584c-53.23541,0 -68.7624,-27.11063 -72.21284,-67.77656c0,-0.98584 0.73938,-1.72522 0.98584,-2.71106c0.98584,-0.24646 10.84425,8.13318 -1.72522,-5.42212c14.78761,8.13318 -18.48452,-21.44204 1.97168,-6.40796c10.35133,7.3938 -4.9292,-6.40796 -0.98584,-4.9292c13.80177,10.10487 -17.9916,-20.94912 -1.2323,-5.91504c6.40796,4.68274 1.72522,0.73938 -4.43628,-4.9292c-6.1615,-6.40796 -0.49292,-1.47876 3.20398,2.21814c-14.04823,-16.26637 -13.30885,-16.7593 2.4646,-1.97168c22.42788,17.74514 -15.52699,-17.25222 -0.24646,-4.9292c14.54115,10.84425 -15.28053,-16.01991 -0.73938,-4.9292c-1.97168,-4.18982 4.43628,0.49292 0,-4.43628c-10.10487,-11.09071 -7.88672,-10.59779 0.24646,-4.43628c9.36549,6.65442 14.29469,10.59779 0.49292,-3.94336c1.2323,-2.21814 0.24646,-5.91504 0.49292,-8.13318c2.21814,-1.2323 -2.95752,-7.64026 1.47876,-7.3938c-10.35133,-12.07655 1.47876,-4.43628 1.47876,-7.14734c-6.65442,-8.13318 11.83009,5.42212 1.97168,-6.65442c20.94912,16.26637 1.2323,-5.17566 2.71106,-6.1615c6.40796,4.18982 7.14734,0.49292 3.20398,-5.91504c-7.64026,-10.35133 -6.90088,-12.56947 3.45044,-5.17566c-5.17566,-7.88672 4.9292,-0.98584 4.43628,-4.9292c11.33717,7.64026 7.88672,1.72522 4.9292,-3.94336c2.4646,-0.24646 1.47876,-4.43628 5.66858,-3.45044c2.4646,-1.47876 4.9292,-2.21814 6.90088,-2.95752c9.61195,-3.45044 21.44204,-5.66858 35.73673,-5.66858c58.41107,0 65.80488,32.77921 67.28364,54.96063l-40.17301,5.91504v-0.24646c-0.98584,-20.4562 -6.65442,-32.03983 -28.83585,-32.03983c-3.45044,0 -6.65442,0.24646 -9.11903,1.2323c-2.95752,0.73938 -4.43628,2.21814 -7.64026,4.18982c0.73938,2.95752 -14.29469,-9.36549 -2.71106,3.20398c-1.47876,1.47876 -11.33717,-5.91504 -2.4646,4.18982c-2.4646,1.2323 12.81593,15.03407 -2.21814,5.42212c-12.07655,-7.64026 -7.14734,-2.4646 -1.47876,6.65442c6.1615,8.87257 10.35133,15.52699 -0.98584,7.88672c11.33717,11.83009 14.29469,15.28053 -0.73938,4.43628c17.00576,16.51283 12.81593,16.51283 -0.49292,4.68274c-6.40796,-4.68274 2.21814,6.90088 -0.24646,5.42212c-13.55531,-10.59779 -5.17566,-1.97168 -0.24646,5.17566c8.62611,8.13318 -4.43628,0 0,5.91504c15.77345,16.01991 -3.94336,-0.24646 0,6.1615c-3.45044,-3.20398 -3.45044,-1.72522 0,1.72522c3.94336,5.17566 13.06239,15.77345 0,5.91504c0.24646,1.72522 2.95752,6.65442 0.24646,5.66858c-6.90088,-3.94336 -1.72522,1.2323 0,5.66858c-4.43628,-2.21814 -3.6969,-1.72522 0.73938,4.9292c8.37964,11.33717 -15.28053,-11.58363 -0.73938,7.3938c3.94336,5.42212 3.94336,3.94336 -2.21814,1.47876c6.90088,6.1615 7.14734,9.11903 6.1615,8.37964c5.17566,4.9292 -4.18982,-0.98584 0.98584,5.91504c-4.9292,-2.4646 4.68274,7.88672 2.4646,5.66858c3.6969,5.66858 6.65442,7.64026 2.95752,4.9292c1.47876,1.2323 2.4646,2.21814 3.20398,2.71106c0,0 0,0.24646 0.49292,0.49292v-0.24646l-0.49292,-0.24646c-1.72522,-2.95752 1.2323,0.24646 0.98584,0.24646c1.2323,0.73938 5.66858,4.68274 8.62611,7.64026c12.32301,10.35133 4.43628,1.97168 -0.98584,-3.45044c-1.97168,-1.47876 -0.73938,-2.95752 4.18982,0c-3.94336,-6.65442 -22.18142,-21.93496 6.40796,1.72522c4.68274,1.72522 28.58939,20.70266 3.45044,-1.72522c-13.80177,-13.30885 -9.85841,-10.35133 4.68274,0c-3.6969,-5.66858 -25.13894,-28.83585 7.3938,-2.4646c1.2323,-1.97168 -6.90088,-12.32301 5.66858,-4.18982c6.65442,3.20398 5.42212,-0.49292 3.94336,-4.18982c6.90088,3.94336 10.35133,3.94336 2.95752,-4.68274c-3.6969,-5.66858 7.14734,2.95752 1.2323,-3.20398c1.72522,0.98584 2.21814,-1.97168 -0.24646,-6.90088c2.71106,0 -2.71106,-7.64026 0,-6.65442c5.17566,2.21814 -7.14734,-12.32301 0,-6.90088c-3.20398,-3.6969 -3.94336,-5.66858 -3.6969,-6.40796c-1.2323,0 -2.71106,-0.24646 -4.18982,-0.24646c2.4646,4.9292 -10.35133,-4.68274 -7.88672,0c0.49292,2.4646 3.20398,6.65442 -8.13318,0c-0.73938,0.24646 -3.20398,-1.2323 -5.91504,-2.4646c-0.24646,-1.2323 -0.98584,-2.71106 -2.21814,-4.68274c5.17566,3.20398 -0.73938,-4.9292 0,-6.1615c-2.21814,-4.9292 -9.11903,-12.56947 0,-6.40796c13.80177,7.14734 8.13318,0.73938 0,-6.90088c-5.91504,-5.66858 1.2323,-1.47876 6.90088,0c0,-1.47876 0.49292,-4.9292 7.3938,0c0,-2.95752 0.49292,-1.72522 4.18982,0c-3.6969,-4.43628 -5.66858,-6.40796 4.68274,0c0.49292,-0.49292 2.21814,-0.49292 4.9292,0c2.95752,0.98584 -2.71106,-5.17566 5.42212,0zM102.14127,109.67474c1.72522,4.18982 0,4.18982 -2.21814,2.4646c-13.80177,-12.81593 -4.9292,-6.65442 2.21814,-2.4646zM131.96294,112.13934c0.49292,0.49292 0.24646,0.49292 -0.98584,0.49292c1.97168,0.73938 3.6969,1.72522 0.98584,-0.49292zM169.75089,31.60558c9.10136,9.10114 16.14783,19.55255 21.1394,31.35421c5.16835,12.21973 7.75253,25.01866 7.75253,38.3968c0,13.37868 -2.58418,26.17761 -7.75253,38.3968c-4.57415,10.81486 -10.8739,20.49591 -18.89925,29.04312v-6.11232c6.29146,-7.35655 11.33841,-15.52997 15.14084,-24.52026c4.95391,-11.71173 7.43087,-23.98085 7.43087,-36.80733c0,-12.82648 -2.47696,-25.09557 -7.43087,-36.80725c-4.06901,-9.62076 -9.56315,-18.30598 -16.48242,-26.05566l-0.00807,-0.03514l-0.0401,-0.16369l-0.48453,-1.8612l-0.04829,-0.17253l-0.54264,-1.84524l-0.05566,-0.18088l-0.60321,-1.82641l-0.06548,-0.18858l-0.66541,-1.80448l-0.07612,-0.1952l-0.18039,-0.43909c0.63,0.59865 1.25378,1.20677 1.87134,1.82435zM100.00021,200c-13.37846,0 -26.17745,-2.58445 -38.39696,-7.75335c-11.80176,-4.99156 -22.25317,-12.03775 -31.35421,-21.13858c-9.10108,-9.10136 -16.14747,-19.55294 -21.13917,-31.3547c-5.16845,-12.21973 -7.75268,-25.01866 -7.75268,-38.3968c0,-13.37824 2.58423,-26.17718 7.75268,-38.3968c2.91844,-6.89995 6.5392,-13.33832 10.86228,-19.31512l-0.09368,0.35694l-0.08875,0.92217l-0.02661,1.70896l0.08284,1.0681l0.27885,1.03438l-1.20525,3.9027c-2.28157,3.7969 -4.29875,7.76737 -6.05154,11.91141c-4.95357,11.71168 -7.43035,23.98077 -7.43035,36.80725c0,12.82703 2.47678,25.09615 7.43035,36.80733c4.78507,11.31341 11.54052,21.33283 20.26636,30.05824c8.72596,8.72596 18.74544,15.48159 30.05841,20.26691c11.71162,4.95337 23.98077,7.43005 36.80741,7.43005c4.74903,0 9.42157,-0.33949 14.01764,-1.01847l0.01253,0.00275l1.69423,0.47062l0.65887,0.49681l0.59421,0.39368l1.66231,0.95924l0.43379,0.2259l0.45179,0.18907l0.46571,0.14978l0.45663,0.10495c-6.65854,1.40436 -13.47444,2.10655 -20.44772,2.10655z" fill-rule="nonzero"></path></g></svg>