<svg xmlns:mydata="http://www.w3.org/2000/svg" mydata:contrastcolor="85714D" mydata:template="Contrast" mydata:presentation="2.5" mydata:layouttype="undefined" mydata:specialfontid="undefined" mydata:id1="570" mydata:id2="588" mydata:companyname="Golden links" mydata:companytagline="" version="1.1" xmlns="http://www.w3.org/2000/svg" xmlns:xlink="http://www.w3.org/1999/xlink" viewBox="0 0 550 470" style="height: 675px;"><g fill="#101820" fill-rule="nonzero" stroke="none" stroke-width="1" stroke-linecap="butt" stroke-linejoin="miter" stroke-miterlimit="10" stroke-dasharray="" stroke-dashoffset="0" font-family="none" font-weight="none" font-size="none" text-anchor="none" style="mix-blend-mode: normal"><g data-paper-data="{&quot;isGlobalGroup&quot;:true,&quot;bounds&quot;:{&quot;x&quot;:65,&quot;y&quot;:174.95663677926348,&quot;width&quot;:420,&quot;height&quot;:120.08672644147305}}"><g data-paper-data="{&quot;isSecondaryText&quot;:true}" id="element-id-63430"><path d="M128.24427,271.43866h-7.40989v0.57293c0.35649,0 0.62386,0.05093 0.8021,0.15278c0.17824,0.10185 0.30556,0.39468 0.38195,0.87849c0.07639,0.48381 0.12095,1.22862 0.13368,2.23443c0.01273,1.00581 0.0191,2.39994 0.0191,4.18239v6.79877c0,1.78245 -0.00637,3.17658 -0.0191,4.18239c-0.01273,1.00581 -0.05729,1.75062 -0.13368,2.23443c-0.07639,0.48381 -0.20371,0.77664 -0.38195,0.87849c-0.17824,0.10185 -0.44561,0.15278 -0.8021,0.15278v0.57293h16.80594l0.11459,-0.57293h0.0382c0.07639,-0.48381 0.16551,-1.01218 0.26737,-1.58511c0.10185,-0.57293 0.19098,-1.1013 0.26737,-1.58511c-0.15278,-0.05093 -0.30556,-0.07639 -0.45834,-0.07639c-0.07639,-0.02546 -0.16551,-0.05093 -0.26737,-0.07639l-0.30556,0.42015c-0.35649,0.53473 -0.70661,0.95488 -1.05037,1.26045c-0.34376,0.30556 -0.84666,0.53473 -1.50871,0.68752c-0.66205,0.15278 -1.56601,0.24827 -2.71187,0.28646c-1.14586,0.0382 -2.69914,0.05729 -4.65983,0.05729h-0.45834v-13.63573c0,-1.78245 0.00637,-3.17658 0.0191,-4.18239c0.01273,-1.00581 0.06366,-1.75062 0.15278,-2.23443c0.08912,-0.48381 0.22281,-0.77664 0.40105,-0.87849c0.17824,-0.10185 0.43288,-0.15278 0.76391,-0.15278z" data-paper-data="{&quot;glyphName&quot;:&quot;L&quot;,&quot;glyphIndex&quot;:0,&quot;firstGlyphOfWord&quot;:true,&quot;word&quot;:1}" id="element-id-21710"></path><path d="M197.32497,293.70653c-0.33103,0 -0.58566,-0.05093 -0.76391,-0.15278c-0.17824,-0.10185 -0.31193,-0.39468 -0.40105,-0.87849c-0.08912,-0.48381 -0.14005,-1.22862 -0.15278,-2.23443c-0.01273,-1.00581 -0.0191,-2.39994 -0.0191,-4.18239v-6.79877c0,-1.78245 0.00637,-3.17658 0.0191,-4.18239c0.01273,-1.00581 0.06366,-1.75062 0.15278,-2.23443c0.08912,-0.48381 0.22281,-0.77664 0.40105,-0.87849c0.17824,-0.10185 0.43288,-0.15278 0.76391,-0.15278v-0.57293h-7.40989v0.57293c0.35649,0 0.62386,0.05093 0.8021,0.15278c0.17824,0.10185 0.30556,0.39468 0.38195,0.87849c0.07639,0.48381 0.12095,1.22862 0.13368,2.23443c0.01273,1.00581 0.0191,2.39994 0.0191,4.18239v6.79877c0,1.78245 -0.00637,3.17658 -0.0191,4.18239c-0.01273,1.00581 -0.05729,1.75062 -0.13368,2.23443c-0.07639,0.48381 -0.20371,0.77664 -0.38195,0.87849c-0.17824,0.10185 -0.44561,0.15278 -0.8021,0.15278v0.57293h7.40989z" data-paper-data="{&quot;glyphName&quot;:&quot;I&quot;,&quot;glyphIndex&quot;:1,&quot;word&quot;:1}" id="element-id-31129"></path><path d="M249.86326,272.01159c0.35649,0 0.62386,0.05093 0.8021,0.15278c0.17824,0.10185 0.30556,0.39468 0.38195,0.87849c0.07639,0.48381 0.12095,1.22862 0.13368,2.23443c0.01273,1.00581 0.0191,2.39994 0.0191,4.18239v6.79877c0,1.78245 -0.00637,3.17658 -0.0191,4.18239c-0.01273,1.00581 -0.05729,1.75062 -0.13368,2.23443c-0.07639,0.48381 -0.20371,0.77664 -0.38195,0.87849c-0.17824,0.10185 -0.44561,0.15278 -0.8021,0.15278v0.57293h4.0869v-0.57293c-0.33103,0 -0.58566,-0.05093 -0.76391,-0.15278c-0.17824,-0.10185 -0.31193,-0.39468 -0.40105,-0.87849c-0.08912,-0.48381 -0.14005,-1.22862 -0.15278,-2.23443c-0.01273,-1.00581 -0.0191,-2.39994 -0.0191,-4.18239v-10.77108c2.54635,3.2848 5.07361,6.54413 7.58177,9.778c2.50816,3.23387 5.02268,6.4932 7.54357,9.778h1.52781v-15.58369c0,-1.78245 0.00637,-3.17658 0.0191,-4.18239c0.01273,-1.00581 0.06366,-1.75062 0.15278,-2.23443c0.08912,-0.48381 0.22281,-0.77664 0.40105,-0.87849c0.17824,-0.10185 0.43288,-0.15278 0.76391,-0.15278v-0.57293h-4.0869v0.57293c0.35649,0 0.62386,0.05093 0.8021,0.15278c0.17824,0.10185 0.30556,0.39468 0.38195,0.87849c0.07639,0.48381 0.12095,1.22862 0.13368,2.23443c0.01273,1.00581 0.0191,2.39994 0.0191,4.18239v8.1356l-12.45167,-16.15662h-5.53832z" data-paper-data="{&quot;glyphName&quot;:&quot;N&quot;,&quot;glyphIndex&quot;:2,&quot;word&quot;:1}" id="element-id-57464"></path><path d="M352.4324,271.43866h-3.74314v0.57293h0.11459c0.15278,0 0.23554,0.0382 0.24827,0.11459c0.01273,0.07639 -0.10822,0.2801 -0.36286,0.61113c-0.25464,0.33103 -0.66842,0.81483 -1.24135,1.45142c-0.57293,0.63659 -1.36867,1.51508 -2.38721,2.63548l-1.56601,1.68059v0l-3.17021,3.47577v-2.52089c0,-1.78245 0.00637,-3.17658 0.0191,-4.18239c0.01273,-1.00581 0.06366,-1.75062 0.15278,-2.23443c0.08912,-0.48381 0.22281,-0.77664 0.40105,-0.87849c0.17824,-0.10185 0.43288,-0.15278 0.76391,-0.15278v-0.57293h-7.3717v0.57293c0.35649,0 0.62386,0.05093 0.8021,0.15278c0.17824,0.10185 0.30556,0.39468 0.38195,0.87849c0.07639,0.48381 0.12095,1.22862 0.13368,2.23443c0.01273,1.00581 0.0191,2.39994 0.0191,4.18239v6.79877c0,1.78245 -0.00637,3.17658 -0.0191,4.18239c-0.01273,1.00581 -0.05729,1.75062 -0.13368,2.23443c-0.07639,0.48381 -0.20371,0.77664 -0.38195,0.87849c-0.17824,0.10185 -0.44561,0.15278 -0.8021,0.15278v0.57293h7.3717v-0.57293c-0.33103,0 -0.58566,-0.05093 -0.76391,-0.15278c-0.17824,-0.10185 -0.31193,-0.39468 -0.40105,-0.87849c-0.08912,-0.48381 -0.14005,-1.22862 -0.15278,-2.23443c-0.01273,-1.00581 -0.0191,-2.39994 -0.0191,-4.18239v-4.27788c0.40742,0.63659 0.87849,1.34957 1.41323,2.13894c0.45834,0.66205 1.00581,1.47052 1.6424,2.4254c0.63659,0.95488 1.34957,2.01799 2.13894,3.18931c0.58566,0.8403 1.18405,1.55964 1.79518,2.15804c0.61113,0.59839 1.28591,1.08857 2.02435,1.47052c0.73844,0.38195 1.54054,0.66205 2.4063,0.8403c0.86576,0.17824 1.83338,0.26737 2.90284,0.26737h1.6042v-0.91669c-0.50927,0 -1.02491,-0.12732 -1.54691,-0.38195c-0.522,-0.25464 -1.07583,-0.66842 -1.6615,-1.24135c-0.58566,-0.57293 -1.23498,-1.3241 -1.94796,-2.25352c-0.71298,-0.92942 -1.51508,-2.06891 -2.4063,-3.41848c-1.01854,-1.52781 -1.91613,-2.86465 -2.69277,-4.01051c-0.77664,-1.14586 -1.3814,-2.03708 -1.81428,-2.67367l0.11459,-0.11459c1.57874,-1.75698 2.83282,-3.13202 3.76224,-4.12509c0.92942,-0.99308 1.65513,-1.73789 2.17713,-2.23443c0.522,-0.49654 0.91669,-0.8021 1.18405,-0.91669c0.26737,-0.11459 0.52837,-0.17188 0.783,-0.17188h0.22917z" data-paper-data="{&quot;glyphName&quot;:&quot;K&quot;,&quot;glyphIndex&quot;:3,&quot;word&quot;:1}" id="element-id-41174"></path><path d="M427.44683,276.70961l0.0382,-3.66675c-0.89122,-0.53473 -1.87157,-0.96761 -2.94104,-1.29864c-1.06947,-0.33103 -2.04982,-0.49654 -2.94104,-0.49654c-1.19679,0 -2.28535,0.17188 -3.2657,0.51564c-0.98035,0.34376 -1.82064,0.82757 -2.52089,1.45142c-0.70025,0.62386 -1.24135,1.3814 -1.6233,2.27262c-0.38195,0.89122 -0.57293,1.87157 -0.57293,2.94104c0,1.34957 0.52837,2.59092 1.58511,3.72404c1.05674,1.13313 2.4636,1.96706 4.22058,2.50179c0.96761,0.2801 1.83974,0.61113 2.61638,0.99308c0.77664,0.38195 1.44506,0.78937 2.00525,1.22225c0.5602,0.43288 0.99308,0.88486 1.29864,1.35593c0.30556,0.47108 0.45834,0.93579 0.45834,1.39413c0,1.1204 -0.43925,2.01162 -1.31774,2.67367c-0.87849,0.66205 -2.04345,0.99308 -3.49487,0.99308c-1.24771,0 -2.45723,-0.31829 -3.62855,-0.95488c-1.17132,-0.63659 -2.08801,-1.48962 -2.75006,-2.55909c-0.07639,-0.12732 -0.15915,-0.25464 -0.24827,-0.38195c-0.08912,-0.12732 -0.17188,-0.25464 -0.24827,-0.38195h-0.49654l-0.0382,3.66675c0.89122,0.53473 2.01162,0.96761 3.36119,1.29864c1.34957,0.33103 2.69914,0.49654 4.0487,0.49654c1.22225,0 2.33628,-0.16551 3.34209,-0.49654c1.00581,-0.33103 1.8652,-0.78937 2.57818,-1.37503c0.71298,-0.58566 1.26681,-1.29864 1.6615,-2.13894c0.39468,-0.8403 0.59203,-1.76972 0.59203,-2.78826c0,-1.45142 -0.5602,-2.77553 -1.68059,-3.97231c-1.1204,-1.19679 -2.61001,-2.07528 -4.46885,-2.63548c-1.85884,-0.5602 -3.34846,-1.24771 -4.46885,-2.06255c-1.1204,-0.81483 -1.68059,-1.62967 -1.68059,-2.4445c0,-0.58566 0.10822,-1.13313 0.32466,-1.6424c0.21644,-0.50927 0.51564,-0.94852 0.89759,-1.31774c0.38195,-0.36922 0.83393,-0.66205 1.35593,-0.87849c0.522,-0.21644 1.08857,-0.32466 1.69969,-0.32466c1.14586,0 2.17077,0.35649 3.07472,1.06947c0.90396,0.71298 1.64876,1.52781 2.23443,2.4445c0.07639,0.12732 0.15915,0.261 0.24827,0.40105c0.08912,0.14005 0.17188,0.27373 0.24827,0.40105z" data-paper-data="{&quot;glyphName&quot;:&quot;S&quot;,&quot;glyphIndex&quot;:4,&quot;lastGlyphOfWord&quot;:true,&quot;word&quot;:1}" id="element-id-68681"></path></g><g data-paper-data="{&quot;isPrimaryText&quot;:true}" id="element-id-99009"><path d="M120.83748,251.56003c-3.19161,-5.7449 -0.95748,-4.14909 0.74471,-3.61716l7.97902,-34.2566h-28.08615l-2.65967,11.3834h13.8303l-2.65967,11.3834c-1.38303,2.4469 -6.80876,8.72373 -14.6814,8.72373c-9.89399,0 -12.76643,-5.85128 -7.76625,-27.55422l0.21277,-0.74471c5.00019,-21.80932 9.68121,-27.55422 18.61772,-27.55422c9.46844,0 10.63869,5.00019 8.9365,13.61753v0.10639l17.55385,-2.4469c0.31916,-1.91497 0.63832,-4.25548 0.74471,-6.4896c0.10639,-0.8511 -0.10639,-1.5958 -0.21277,-2.34051c-5.85128,-7.44709 -2.87245,-3.82993 -0.21277,-2.23413c2.76606,2.76606 -2.4469,-3.51077 -4.36186,-5.85128c-0.95748,-0.74471 -2.55329,-2.34051 -3.19161,-3.51077c-5.53212,-6.06406 -0.95748,-0.31916 -3.08522,-1.17026c2.55329,2.34051 0.8511,1.91497 -1.5958,-0.42555c-3.51077,-3.19161 -2.34051,-0.8511 -2.02135,-0.63832c3.51077,4.68103 -1.38303,-0.42555 -1.80858,-0.31916c2.55329,4.0427 0.31916,2.12774 -2.23413,-0.21277c0.63832,1.70219 2.76606,5.21296 -2.34051,-0.10639c-3.51077,-2.65967 -0.53193,1.91497 -2.65967,0c-4.46825,-5.00019 -1.5958,-0.53193 -2.23413,0c-3.298,-2.55329 -3.08522,-2.4469 -2.34051,0.10639c1.70219,2.55329 -0.42555,0.31916 -2.02135,0.10639c2.65967,4.0427 -0.31916,1.27664 -2.12774,0.31916c1.38303,3.19161 -0.10639,2.65967 -3.61716,0.8511c1.17026,2.4469 0.31916,3.61716 -3.40438,0.95748c3.298,4.8938 -0.95748,2.87245 -3.298,1.27664c2.34051,3.82993 -5.85128,-3.51077 -2.76606,1.48942c-0.8511,0 0.31916,2.97883 -2.65967,1.70219c-3.40438,-2.23413 -9.25566,-7.44709 -2.34051,2.12774c3.72354,5.10657 -4.36186,-2.34051 -2.02135,2.23413c-4.25548,-3.93632 -1.06387,1.27664 -1.91497,2.4469c2.12774,3.51077 -0.21277,2.87245 -1.70219,2.65967c-1.27664,0.42555 1.80858,4.8938 -1.5958,2.76606c-1.17026,0.53193 -1.27664,1.38303 -1.48942,2.97883c-0.42555,1.17026 -0.74471,2.12774 -1.17026,3.19161c-1.38303,4.36186 -2.65967,9.25566 -3.82993,14.36224l-0.21277,0.74471c-1.48942,6.38322 -2.65967,12.34089 -2.76606,17.55385c0.10639,0.95748 -0.10639,2.12774 0,2.97883c-1.06387,-0.10639 -2.55329,-1.27664 0.21277,2.87245c5.85128,6.80876 -2.23413,-0.8511 0.53193,2.65967c0.42555,2.34051 -2.23413,-1.70219 0.74471,2.4469c-1.91497,-2.23413 -0.74471,0.42555 1.17026,2.12774c3.19161,3.40438 3.40438,3.61716 1.80858,2.34051c0.21277,0.63832 0.74471,1.06387 1.17026,1.48942c0.8511,-0.31916 -2.55329,-3.72354 2.23413,1.5958c5.21296,5.31935 3.08522,2.02135 2.12774,0.63832l-0.21277,-0.21277c0,0.10639 0.10639,0.10639 0.10639,0.10639l-0.10639,-0.10639c-0.31916,-0.31916 -0.31916,-0.42555 -0.31916,-0.21277c-7.3407,-8.29818 3.82993,2.65967 3.82993,2.12774c-3.51077,-5.00019 1.06387,-1.27664 3.19161,0.74471c-6.38322,-8.08541 -4.8938,-6.80876 2.12774,0.21277c13.40476,15.63888 6.59599,5.00019 1.91497,0.10639c-6.27683,-7.23431 -6.4896,-7.97902 2.02135,0.21277c-0.63832,-0.8511 7.3407,6.91515 2.34051,0.10639c-3.51077,-5.85128 -0.53193,-3.298 3.08522,-0.31916c0.31916,-0.31916 -5.63851,-8.9365 2.97883,-0.31916c2.76606,2.65967 1.70219,-0.31916 2.87245,-0.53193c1.17026,0.31916 -1.06387,-4.14909 2.87245,-1.06387c0.31916,-1.17026 0.10639,-2.4469 2.4469,-0.95748c-1.38303,-2.4469 -1.80858,-4.68103 2.23413,-1.27664c-0.74471,-1.80858 2.12774,0.21277 2.23413,-1.27664c-2.55329,-3.93632 -2.02135,-3.93632 2.12774,-1.48942c0.74471,1.27664 0.95748,2.87245 0.53193,3.08522c-0.74471,-0.42555 0.63832,1.48942 1.48942,2.97883c0.95748,0.42555 2.12774,1.06387 2.4469,0.31916c4.57464,3.82993 -1.5958,-4.8938 3.08522,0c-2.23413,-3.72354 1.06387,-0.31916 0.53193,-2.34051c1.48942,0.10639 -2.76606,-5.85128 0.63832,-2.65967zM131.15702,185.28096c-0.31916,-0.74471 -0.8511,-1.06387 -1.06387,-1.27664c0,-0.10639 0,-0.21277 -0.21277,-0.53193c2.76606,2.76606 -7.44709,-8.19179 -1.91497,-1.80858c1.5958,1.91497 1.70219,2.34051 1.38303,2.23413c0.53193,0.63832 1.5958,1.80858 3.19161,3.51077c3.51077,3.72354 -1.17026,-2.34051 -1.38303,-2.12774zM128.81651,183.68516c0.21277,0.10639 0.21277,0.21277 0.53193,0.21277c-1.48942,-1.48942 -1.38303,-1.27664 -0.53193,-0.21277zM70.30369,250.38977c0.21277,0.10639 0.42555,0.21277 0.53193,0.21277c-0.8511,-0.63832 -1.38303,-1.27664 -1.91497,-1.91497zM76.79329,254.96441l-0.53193,-0.74471l0.10639,0.10639zM113.3904,256.56022c1.91497,2.02135 1.5958,1.06387 0.74471,-0.31916c-0.95748,-0.63832 -1.80858,-0.95748 -0.74471,0.31916z" data-paper-data="{&quot;glyphName&quot;:&quot;G&quot;,&quot;glyphIndex&quot;:0,&quot;firstGlyphOfWord&quot;:true,&quot;word&quot;:1}" id="element-id-99539"></path><path d="M197.75525,233.0487c4.57464,4.36186 -1.17026,-2.65967 0.8511,-1.80858c-1.06387,-2.34051 1.91497,0.53193 0.63832,-1.80858c0.42555,-0.53193 2.65967,1.27664 0.63832,-1.91497c1.91497,1.27664 -1.06387,-2.65967 0.53193,-1.91497c0.31916,-0.74471 0.42555,-1.48942 0.63832,-2.12774c0.53193,-2.02135 1.17026,-4.25548 1.70219,-6.59599l0.10639,-0.31916c6.17044,-27.12867 1.27664,-40.32065 -20.85184,-40.32065c-9.89399,0 -17.44746,2.55329 -23.40513,7.87263c-1.06387,0.74471 -1.5958,1.38303 -2.34051,2.12774c-1.38303,-0.21277 14.46862,20.42629 -2.12774,2.4469c-8.83012,-7.23431 18.83049,22.87319 -1.5958,2.76606c23.93706,27.76699 3.19161,5.42573 0,2.34051c4.78741,8.19179 2.12774,3.19161 -2.12774,0.21277c-8.19179,-8.83012 5.42573,9.46844 -2.02135,2.76606c-3.19161,-2.55329 -3.298,-2.65967 -0.8511,1.38303c-0.10639,0.63832 -0.21277,1.38303 -0.10639,2.34051l-0.74471,1.80858c-1.80858,4.25548 -3.08522,9.04289 -4.25548,14.25585l-0.10639,0.31916c-6.38322,27.34145 -1.17026,40.63981 20.95823,40.63981c12.2345,0 21.171,-4.25548 27.66061,-12.44727c0.74471,-0.8511 1.27664,-1.5958 1.80858,-2.55329c1.38303,0.10639 2.12774,-0.8511 1.80858,-2.97883c-0.74471,-2.55329 3.93632,1.17026 1.70219,-3.08522c-1.27664,-3.298 6.59599,4.68103 1.48942,-3.40438zM181.26527,226.98465c-3.298,-4.25548 -1.70219,-0.63832 -0.8511,1.91497c-22.12848,-25.21371 0.21277,2.23413 -0.63832,1.80858c-0.21277,0.74471 -0.31916,1.27664 -0.42555,2.23413c-3.72354,9.68121 -7.55347,12.2345 -13.29837,12.2345c-8.29818,0 -10.10676,-5.21296 -4.78741,-28.29893v-0.21277c1.06387,0 -2.23413,-4.36186 2.12774,-0.95748c-1.17026,-1.06387 -4.8938,-7.97902 0.21277,-2.97883c8.9365,8.40457 1.48942,-0.74471 -0.31916,-3.61716c9.7876,10.85147 6.17044,5.95767 0.53193,-2.4469c3.40438,2.65967 17.1283,17.76662 0.8511,-1.91497c-5.21296,-5.85128 5.00019,5.10657 0,-2.76606c0.10639,-1.91497 3.19161,2.12774 -0.31916,-2.87245c14.36224,14.6814 0.31916,-1.06387 2.02135,0.10639c-1.17026,-2.55329 -1.27664,-4.68103 1.27664,-2.76606c0.42555,-0.95748 0.95748,-1.70219 1.38303,-2.4469c2.76606,-4.14909 6.06406,-5.42573 10.10676,-5.42573c7.12793,0 9.46844,4.0427 6.38322,20.31991l-0.53193,2.55329c-2.34051,-2.4469 -1.38303,-0.21277 -0.42555,2.55329c-0.21277,1.17026 -3.40438,-2.02135 -0.63832,2.65967c1.38303,0.95748 3.298,3.82993 0,0.21277c4.36186,5.95767 -2.65967,-0.42555 -0.21277,3.51077c2.23413,2.65967 -6.91515,-5.21296 -3.298,-0.31916c-3.40438,-4.25548 5.53212,7.02154 0.95748,3.82993c11.70256,14.78779 8.51096,10.53231 -0.10639,3.08522z" data-paper-data="{&quot;glyphName&quot;:&quot;O&quot;,&quot;glyphIndex&quot;:1,&quot;word&quot;:1}" id="element-id-79803"></path><path d="M243.28886,244.43211c-0.31916,0.42555 -1.70219,-0.31916 -2.12774,0c-0.21277,0.74471 -1.17026,0.42555 -2.23413,0c0.74471,1.38303 -2.23413,-0.8511 -2.02135,-0.21277c-0.74471,0.74471 -2.87245,-1.38303 -2.23413,-0.31916l-4.0427,-4.68103c0,-0.10639 -0.10639,-0.31916 -0.42555,-0.53193c3.93632,2.97883 4.25548,2.4469 0.74471,-2.97883c-0.31916,-2.02135 0.53193,-2.4469 0.74471,-3.298c-4.57464,-6.06406 3.82993,2.02135 0.42555,-1.91497c0.95748,0.31916 -0.53193,-2.4469 0.42555,-1.91497c0.10639,0 -1.38303,-3.40438 0.53193,-2.02135c-0.31916,-1.17026 2.87245,0.95748 0.42555,-2.12774c-0.95748,-1.48942 -0.42555,-2.87245 0.53193,-2.02135c-6.17044,-8.61734 5.31935,4.57464 0.42555,-2.12774c4.78741,3.72354 -2.65967,-4.25548 0.53193,-2.23413c2.65967,2.76606 5.53212,5.00019 0.53193,-2.34051c3.40438,3.19161 2.34051,1.17026 0.53193,-2.12774c2.12774,0.95748 0.53193,-1.70219 0.53193,-2.34051l7.65986,-33.19273h-18.40494l-3.298,14.14946c-0.10639,0.63832 0,1.5958 -0.42555,1.91497c2.87245,4.14909 2.34051,3.72354 -0.42555,2.12774c-4.14909,-4.25548 -5.10657,-3.82993 -0.53193,2.02135c0.10639,0.95748 -4.8938,-4.36186 -0.53193,2.34051c7.3407,8.9365 -1.91497,-0.10639 -0.53193,2.34051c-0.74471,0.53193 1.80858,3.298 -0.53193,2.34051c-3.61716,-2.87245 -0.10639,1.5958 -0.53193,2.34051c0.21277,0.31916 2.4469,3.93632 -0.53193,2.4469c-4.46825,-3.93632 -0.53193,1.06387 -0.63832,2.4469c0.10639,1.17026 -2.65967,-2.4469 -0.53193,2.4469c4.25548,6.17044 -1.27664,-0.10639 -0.53193,2.4469c1.27664,2.4469 -1.27664,0.53193 -0.53193,2.4469c-1.17026,-0.63832 -1.27664,0.31916 -0.53193,2.34051c1.80858,3.93632 -1.80858,0 0.42555,3.51077c-1.38303,-0.63832 -0.63832,2.4469 -1.5958,1.17026c1.17026,3.08522 -7.3407,-5.85128 -0.8511,1.91497c1.48942,1.91497 -2.97883,-2.34051 -0.10639,2.97883c0.63832,1.27664 4.46825,7.76625 -0.63832,2.12774c-5.31935,-4.46825 -1.06387,0.21277 -0.53193,2.23413c-3.61716,-2.34051 3.61716,5.53212 -0.42555,2.34051c5.63851,7.87263 -0.31916,1.48942 -0.10639,2.55329c-0.53193,1.06387 -1.06387,2.12774 -1.38303,3.298l-2.76606,12.2345h18.51133c0.95748,0.21277 4.25548,2.97883 2.23413,-0.21277c-2.34051,-2.97883 -0.42555,-2.55329 2.87245,0.21277c-4.68103,-6.27683 -2.23413,-6.17044 1.38303,-1.06387c1.70219,0.10639 -1.70219,-4.8938 3.40438,1.06387c1.38303,0.8511 4.14909,3.72354 1.70219,-0.74471c6.4896,5.42573 -0.42555,-1.80858 3.51077,1.06387c0.8511,0.63832 4.0427,3.298 2.23413,0c-0.63832,-1.38303 1.17026,-0.31916 1.70219,-0.31916h9.57483l2.76606,-12.12811zM229.8841,241.45327l-0.31916,-0.42555c-3.08522,-4.68103 -1.5958,-3.19161 -0.10639,-2.02135l3.19161,4.46825c-1.80858,-1.80858 -2.55329,-2.23413 -2.76606,-2.02135zM230.30965,245.2832c0.63832,2.02135 -0.53193,0.42555 -1.38303,-0.8511c-7.65986,-8.9365 1.80858,1.06387 0.31916,-1.48942c0.74471,1.17026 2.97883,4.14909 1.06387,2.34051z" data-paper-data="{&quot;glyphName&quot;:&quot;L&quot;,&quot;glyphIndex&quot;:2,&quot;word&quot;:1}" id="element-id-13440"></path><path d="M292.6524,257.30493c2.87245,2.23413 2.55329,1.91497 0.31916,-0.74471c0.10639,0 14.36224,14.14946 2.34051,0.31916c0.74471,-0.42555 -4.0427,-6.4896 1.5958,-0.63832c-4.25548,-6.70238 -0.95748,-2.4469 2.12774,-0.10639c1.5958,1.48942 5.21296,3.19161 2.12774,-0.31916c-3.72354,-4.25548 3.93632,1.5958 3.51077,-0.74471c0.8511,-0.53193 -7.3407,-12.55366 3.298,-1.17026c-5.7449,-8.83012 4.78741,1.38303 3.08522,-1.5958c3.298,2.65967 6.59599,3.93632 2.87245,-1.70219c2.34051,0.95748 7.65986,6.4896 2.55329,-1.91497c-5.00019,-5.7449 -2.87245,-6.17044 2.34051,-2.23413c1.80858,0.53193 2.55329,0 1.91497,-2.34051c0.8511,-0.95748 1.38303,-1.5958 1.91497,-2.55329c2.65967,-3.61716 4.36186,-7.44709 6.06406,-11.3834l1.06387,-3.19161c1.80858,0.63832 1.91497,-0.53193 0.8511,-2.97883c2.65967,1.48942 1.48942,-0.8511 1.06387,-3.19161c2.76606,2.12774 -5.63851,-8.51096 0.74471,-2.97883c-2.65967,-2.4469 1.27664,0.63832 0.21277,-0.8511c3.51077,2.97883 3.08522,1.27664 0.63832,-2.97883c2.65967,1.80858 0.21277,-2.23413 0.42555,-2.97883c-0.21277,-1.27664 0.95748,-1.48942 0.42555,-3.08522c2.23413,1.48942 -0.95748,-2.87245 0.42555,-3.08522c1.38303,0.53193 -0.42555,-3.51077 -0.10639,-2.97883c5.95767,5.42573 -3.19161,-6.38322 0.21277,-2.97883c-10.21315,-11.27702 -0.95748,-2.55329 -0.31916,-2.76606c-5.00019,-7.87263 -0.95748,-3.08522 -0.53193,-2.65967c-3.51077,-4.68103 -3.08522,-5.00019 -0.8511,-2.55329c-2.23413,-2.87245 -4.36186,-5.85128 -5.10657,-7.12793c-1.06387,-0.8511 -2.23413,-2.02135 -2.97883,-2.76606c0.74471,0.8511 -1.27664,-0.53193 -2.87245,-1.27664c-5.10657,-5.42573 -0.10639,1.48942 -3.08522,-0.8511c-0.63832,0.53193 -4.46825,-3.82993 -1.80858,-0.21277c-2.55329,-2.97883 1.48942,3.08522 -1.80858,-0.42555c5.31935,6.27683 0.21277,1.91497 -2.12774,-0.10639c1.80858,2.4469 6.27683,8.51096 -2.12774,0c-1.80858,-2.23413 -1.70219,-0.74471 -2.76606,0c-1.91497,-1.27664 -3.93632,-2.65967 -3.298,0c-2.76606,-2.4469 0.31916,1.80858 -1.80858,0c-0.42555,-0.10639 -2.87245,-1.48942 -2.02135,0c2.76606,3.82993 -4.0427,-3.08522 -2.12774,0c-2.34051,-2.65967 -0.74471,0.74471 -2.02135,0c0.53193,1.17026 -1.17026,-0.31916 -2.12774,0c-2.34051,-1.80858 2.97883,5.31935 -1.91497,0c-2.23413,-1.5958 -2.4469,-1.48942 -2.12774,0c0.10639,0.8511 -2.34051,-1.5958 -1.91497,0c-0.63832,0.74471 -2.12774,0 -3.08522,0h-2.87245l-0.8511,3.40438c-0.10639,0.63832 3.61716,6.27683 -0.53193,2.4469c-1.17026,-0.31916 -1.06387,1.06387 -0.63832,2.87245c-0.74471,-0.10639 -0.74471,1.06387 -0.42555,1.70219c-0.53193,0.31916 -0.42555,0.95748 -0.42555,1.80858c-0.21277,0.53193 -1.27664,0 -0.42555,1.91497c-1.17026,-0.74471 -1.27664,-0.31916 -0.42555,1.91497c1.17026,2.4469 -1.27664,0.21277 -0.53193,2.12774c6.06406,7.55347 1.80858,4.14909 -0.42555,2.12774c-1.17026,-0.42555 -1.80858,-0.21277 -0.53193,2.12774c5.7449,8.08541 -0.95748,0.95748 -0.53193,2.34051c-1.70219,-0.74471 -1.27664,0.31916 -0.53193,2.34051c-0.8511,-0.21277 -0.8511,1.06387 -0.53193,2.34051l-11.27702,48.938h10.00037c1.27664,0 2.23413,-0.31916 3.51077,-0.53193c5.00019,5.53212 4.25548,3.298 2.4469,0.63832c-4.68103,-5.63851 2.4469,2.02135 2.23413,-0.10639c1.70219,1.5958 -1.38303,-2.97883 1.5958,-0.53193c-4.78741,-6.17044 4.25548,4.0427 2.55329,0.8511c4.25548,3.61716 7.02154,5.00019 2.97883,-0.31916c-8.61734,-11.17063 13.29837,14.78779 2.4469,0.74471zM332.22835,188.2598c-0.42555,-0.8511 -0.74471,-1.06387 -0.42555,-0.95748c0,-0.10639 -0.31916,-0.10639 -0.21277,-0.31916l-0.63832,-0.74471c-0.10639,0 -1.17026,-0.95748 -3.72354,-3.82993c0.95748,1.27664 1.5958,1.91497 1.80858,2.4469c0.8511,0.74471 1.80858,1.80858 3.19161,3.40438zM329.03674,184.85542c-1.70219,-1.91497 -1.91497,-1.91497 -1.17026,-1.06387c0.95748,1.17026 1.70219,1.70219 1.17026,1.06387zM329.46229,184.42987l-0.21277,-0.21277c-0.74471,-0.95748 -0.31916,-0.42555 0.21277,0.21277zM330.9517,186.23845c0.21277,-0.10639 -0.53193,-1.17026 -1.48942,-1.80858c0.53193,0.53193 1.06387,1.17026 1.48942,1.80858zM286.26919,244.43211l12.55366,-54.15096h8.40457c10.00037,0 10.74508,10.00037 6.80876,27.02228l-0.10639,0.42555c-3.93632,16.80914 -9.25566,26.70312 -19.25604,26.70312z" data-paper-data="{&quot;glyphName&quot;:&quot;D&quot;,&quot;glyphIndex&quot;:3,&quot;word&quot;:1}" id="element-id-40153"></path><path d="M387.76233,247.62371c3.61716,2.55329 0.63832,-1.27664 1.27664,-1.48942c-1.80858,-2.65967 -0.42555,-1.27664 0.74471,-0.31916l-1.27664,-1.38303c-5.42573,-6.70238 -1.70219,-0.63832 -3.08522,0c2.23413,3.40438 -7.76625,-6.70238 -2.34051,-0.74471c0.74471,2.34051 -2.87245,-2.4469 -1.5958,0.42555c0.21277,2.02135 -3.298,-0.8511 -3.61716,0.31916c-2.12774,-1.48942 2.97883,5.95767 -2.34051,0c-5.31935,-5.42573 6.17044,9.46844 -2.23413,0c-11.59618,-12.34089 9.46844,12.66005 -2.4469,0c-2.55329,-2.55329 -4.46825,-3.93632 -2.12774,0c-1.27664,-0.21277 -1.06387,1.06387 -2.23413,0c-6.27683,-7.44709 -2.97883,-1.80858 -1.91497,0c-0.53193,1.38303 -4.0427,-1.80858 -3.40438,0h-3.19161l0.74471,-3.19161c0.63832,-1.06387 3.08522,0.42555 0.8511,-3.51077c-2.76606,-4.78741 3.298,1.06387 0.42555,-1.91497c-1.06387,-2.34051 1.70219,0.53193 0.42555,-1.91497c-1.5958,-1.06387 -0.53193,-2.76606 0.42555,-2.02135c-8.9365,-11.59618 -4.25548,-6.06406 0.42555,-1.91497c0.95748,-0.53193 -4.25548,-8.19179 0.8511,-3.40438c2.02135,1.06387 0.63832,-2.97883 0.63832,-3.51077c-3.93632,-4.0427 -3.19161,-2.87245 1.06387,0.10639c1.27664,0 0.10639,-2.34051 2.87245,0c-2.87245,-3.298 -4.36186,-6.70238 1.70219,-0.10639c2.23413,1.38303 -0.63832,-2.34051 2.12774,0.10639c0.31916,-0.63832 1.27664,-0.21277 2.87245,0.74471c-0.63832,-1.5958 -0.95748,-3.298 1.91497,-0.74471c2.23413,2.23413 3.72354,2.87245 2.12774,-0.10639c0.74471,0.10639 1.5958,0.10639 2.23413,0.10639h7.87263l2.76606,-12.02172h-20.85184c-1.17026,0 -2.34051,-0.42555 -2.87245,0c2.02135,3.19161 1.91497,3.40438 -0.95748,0c1.17026,1.17026 -1.5958,-3.19161 0.74471,-3.298l4.14909,-17.66023h30.53305l2.76606,-12.12811h-48.938l-2.87245,12.34089c-1.27664,-0.8511 0,1.80858 -0.42555,1.80858c0,0.95748 0.10639,1.91497 -0.42555,2.02135c-2.76606,-1.91497 1.17026,3.51077 -0.42555,2.02135c0.63832,1.48942 3.93632,6.38322 -0.53193,2.23413c-2.87245,-2.02135 2.97883,5.21296 -0.53193,2.12774c3.72354,4.8938 4.57464,7.55347 -0.53193,2.23413c-4.36186,-3.93632 -2.23413,-0.63832 -0.53193,2.4469c-3.298,-3.298 2.76606,4.8938 -0.53193,2.34051c3.93632,5.63851 0.95748,4.36186 -0.53193,2.4469c-3.19161,-1.38303 -0.53193,2.12774 -0.53193,2.34051c3.93632,4.14909 -3.40438,-1.70219 -0.63832,2.55329c-0.63832,0 -5.00019,-3.298 -0.53193,2.4469c-5.31935,-4.68103 -2.4469,-1.38303 -0.53193,2.34051c6.70238,9.46844 3.93632,7.02154 -0.63832,2.4469c2.02135,3.82993 -2.12774,-0.21277 -0.53193,2.34051l-7.3407,32.02247h41.27813c4.0427,3.40438 3.40438,2.12774 2.02135,0c3.08522,2.23413 1.5958,0 2.97883,0c2.02135,0.42555 2.55329,0 2.65967,0c-0.8511,-1.27664 2.34051,0.42555 0.63832,-2.97883c-9.68121,-12.76643 5.7449,4.14909 0.63832,-3.19161c9.7876,9.7876 -2.12774,-4.36186 0.74471,-2.76606zM362.7614,223.04833l0.10639,0.10639c-0.10639,-0.10639 0,-0.21277 -0.10639,-0.10639z" data-paper-data="{&quot;glyphName&quot;:&quot;E&quot;,&quot;glyphIndex&quot;:4,&quot;word&quot;:1}" id="element-id-11689"></path><path d="M421.91254,258.04963c-0.95748,-1.5958 0.10639,-0.53193 -0.8511,-1.48942c-5.95767,-7.12793 0.21277,-0.8511 0.42555,-2.12774c0.21277,-0.53193 3.40438,2.02135 1.06387,-1.80858c3.51077,3.51077 5.63851,5.63851 0.42555,-1.5958c-3.19161,-4.36186 -4.36186,-6.4896 -0.10639,-2.34051c-1.27664,-1.91497 1.38303,-0.10639 0.42555,-1.80858c0.8511,-0.21277 -1.38303,-2.4469 0.42555,-1.91497c0.10639,0 8.9365,9.14928 0.53193,-2.23413c-2.97883,-3.51077 0.95748,-0.95748 0.53193,-2.23413c0.8511,1.17026 4.14909,2.23413 0.42555,-2.23413c-0.21277,-0.74471 5.31935,4.0427 0.53193,-2.12774c-0.74471,-2.65967 -0.42555,-2.34051 0.53193,-2.34051c-4.57464,-6.27683 1.48942,-0.10639 0.53193,-2.34051c0.31916,0.10639 -2.55329,-4.78741 0.53193,-2.34051c3.40438,2.55329 3.08522,1.38303 0.63832,-2.4469c0.53193,-0.31916 -2.55329,-5.42573 0.53193,-2.34051c-0.21277,-1.38303 2.65967,1.17026 0.42555,-2.12774c-3.93632,-5.21296 1.48942,-0.31916 0.53193,-2.12774c2.76606,2.65967 -0.74471,-2.76606 0.53193,-2.12774c1.17026,0.31916 1.80858,0.63832 0.42555,-1.91497c1.17026,0.21277 -0.10639,-1.5958 0.42555,-1.91497c-1.38303,-2.97883 0.10639,-2.65967 0.74471,-3.08522c1.38303,0.42555 0.74471,-2.02135 0.53193,-2.55329c-3.08522,-5.42573 1.5958,-1.27664 0.53193,-2.12774c1.38303,1.27664 0.10639,0.53193 0.42555,1.5958c1.38303,2.02135 1.06387,2.34051 0.63832,2.12774c0,0.74471 1.70219,3.08522 0.53193,2.65967c0.42555,0.95748 0.63832,2.02135 0.8511,2.97883l10.63869,40.85259h21.171l18.08578,-78.51357h-18.51133l-11.48979,50.00186l-13.19198,-50.00186h-8.40457c0.42555,1.27664 -1.17026,0 -1.91497,0c0.10639,0.8511 -3.19161,-1.80858 -2.23413,0c-2.76606,-2.12774 -1.27664,0.53193 -1.80858,0c2.34051,4.46825 -2.12774,0.53193 -3.51077,0c-2.4469,-0.53193 -5.63851,-3.40438 -3.298,0c2.02135,2.12774 -4.36186,-4.25548 -0.31916,1.5958c0.53193,1.80858 -0.95748,-0.42555 -0.42555,1.80858c2.23413,3.298 -2.87245,-1.48942 -0.63832,2.4469c-0.63832,0.21277 1.17026,3.40438 -0.63832,2.87245c-0.53193,0.10639 0.31916,2.4469 -0.42555,1.80858c-1.17026,-0.8511 -1.70219,-0.42555 -0.31916,1.70219c-0.42555,0.31916 -0.74471,0.31916 -0.53193,1.91497c-3.82993,-3.72354 0.42555,2.55329 -0.42555,2.02135c-1.48942,-0.53193 1.91497,3.82993 -0.42555,2.02135c1.27664,2.87245 2.87245,4.78741 -0.53193,2.23413c-1.48942,-1.06387 0.21277,1.91497 -0.53193,2.12774c-1.27664,-0.53193 -2.55329,-1.17026 -0.53193,2.23413c-3.19161,-2.23413 -2.34051,-0.42555 -0.53193,2.34051c-3.19161,-2.76606 -2.65967,-1.48942 -0.53193,2.34051c1.5958,2.55329 -5.21296,-4.78741 -0.53193,2.4469c4.68103,7.02154 -1.91497,0.42555 -0.63832,2.55329c-2.02135,-2.4469 -3.40438,-2.02135 -0.53193,2.4469c6.91515,9.04289 2.02135,3.19161 -0.53193,2.34051c-1.5958,-0.95748 -2.4469,-0.42555 -0.53193,2.4469c-3.298,-2.97883 3.82993,6.27683 -0.63832,2.4469c-0.31916,1.06387 3.72354,6.38322 -0.53193,2.34051c4.57464,7.23431 -3.82993,-2.23413 -0.53193,2.4469c-3.72354,-3.19161 1.70219,3.72354 -0.53193,2.34051c-1.5958,-0.10639 1.5958,3.72354 -0.53193,2.34051c-5.53212,-5.42573 2.55329,5.21296 -0.53193,2.23413c-0.31916,0.95748 -1.48942,0.42555 -0.53193,2.23413c-1.80858,-0.63832 3.61716,5.42573 0.10639,2.76606c0.31916,1.80858 1.48942,3.93632 -1.17026,1.27664c0.10639,1.17026 -2.34051,-0.74471 -0.53193,1.70219c0.10639,0.63832 -2.87245,-1.27664 -0.31916,2.4469c-0.31916,0.53193 1.27664,2.65967 0.63832,2.97883c2.76606,4.0427 2.55329,5.10657 -0.95748,0.8511c1.5958,3.61716 -0.21277,2.23413 -1.17026,2.55329c-2.23413,-1.38303 -0.95748,1.06387 -0.53193,2.4469l-0.74471,3.40438h4.78741c-2.97883,-4.25548 -0.95748,-2.34051 2.4469,0.31916c-1.38303,-2.87245 2.34051,0.53193 1.38303,-1.17026c-1.80858,-2.4469 4.14909,3.08522 2.97883,0.8511c3.51077,3.51077 2.34051,0.95748 2.12774,0c-3.08522,-4.78741 4.57464,3.51077 2.76606,1.06387c-3.298,-4.57464 2.12774,1.27664 0.95748,-0.74471c3.51077,3.51077 4.25548,3.93632 1.91497,1.17026z" data-paper-data="{&quot;glyphName&quot;:&quot;N&quot;,&quot;glyphIndex&quot;:5,&quot;lastGlyphOfWord&quot;:true,&quot;word&quot;:1}" id="element-id-21881"></path></g></g></g><rect data-element-id="element-id-99009" stroke-width="2" fill="transparent" class="invisible-element-box grouping-element" x="65" y="175" width="420" height="90" data-element-name="isPrimaryText"></rect><rect data-element-id="element-id-63430" stroke-width="2" fill="transparent" class="invisible-element-box grouping-element" x="121" y="271" width="308" height="24" data-element-name="isSecondaryText"></rect><rect data-element-id="element-id-21881" stroke-width="2" fill="transparent" class="invisible-element-box individual-element" x="403" y="176" width="82" height="83"></rect><rect data-element-id="element-id-99539" stroke-width="2" fill="transparent" class="invisible-element-box individual-element" x="65" y="175" width="69" height="90"></rect><rect data-element-id="element-id-40153" stroke-width="2" fill="transparent" class="invisible-element-box individual-element" x="265" y="177" width="72" height="86"></rect><rect data-element-id="element-id-11689" stroke-width="2" fill="transparent" class="invisible-element-box individual-element" x="337" y="178" width="67" height="81"></rect><rect data-element-id="element-id-79803" stroke-width="2" fill="transparent" class="invisible-element-box individual-element" x="140" y="176" width="66" height="81"></rect><rect data-element-id="element-id-13440" stroke-width="2" fill="transparent" class="invisible-element-box individual-element" x="208" y="178" width="50" height="80"></rect><rect data-element-id="element-id-41174" stroke-width="2" fill="transparent" class="invisible-element-box individual-element" x="334" y="271" width="22" height="23"></rect><rect data-element-id="element-id-57464" stroke-width="2" fill="transparent" class="invisible-element-box individual-element" x="250" y="271" width="21" height="24"></rect><rect data-element-id="element-id-21710" stroke-width="2" fill="transparent" class="invisible-element-box individual-element" x="121" y="271" width="17" height="23"></rect><rect data-element-id="element-id-68681" stroke-width="2" fill="transparent" class="invisible-element-box individual-element" x="414" y="271" width="16" height="23"></rect><rect data-element-id="element-id-31129" stroke-width="2" fill="transparent" class="invisible-element-box individual-element" x="190" y="271" width="7" height="23"></rect></svg>