<?xml version="1.0" encoding="utf-8"?>
<svg version="1.1" viewBox="60.8 144.2 427.3 170" style="" width="400px" height="200px" xmlns="http://www.w3.org/2000/svg">
  <g fill="#101820" fill-rule="evenodd" stroke="none" stroke-width="1" stroke-linecap="butt" stroke-linejoin="miter" stroke-miterlimit="10" stroke-dasharray="" stroke-dashoffset="0" font-family="none" font-weight="none" font-size="none" text-anchor="none" style="mix-blend-mode: normal">
    <g data-paper-data="{&quot;isGlobalGroup&quot;:true,&quot;bounds&quot;:{&quot;x&quot;:65.00000000000003,&quot;y&quot;:146.92162089742976,&quot;width&quot;:420,&quot;height&quot;:176.15675820514048}}">
      <g data-paper-data="{&quot;isContainerElementsWrapper&quot;:true}" id="element-id-5413">
        <path d="M65,311.79558c0,3.11538 1.10151,5.77455 3.30454,7.97752c2.20302,2.20352 4.86231,3.30528 7.97785,3.30528h397.43482c3.11593,0 5.77537,-1.10176 7.97834,-3.30528c2.20297,-2.20297 3.30445,-4.86214 3.30445,-7.97752v-153.59116c0,-3.11538 -1.10148,-5.77455 -3.30445,-7.97752c-2.20352,-2.20352 -4.86297,-3.30528 -7.97834,-3.30528h-397.43482c-3.11554,0 -5.77482,1.10176 -7.97785,3.30528c-2.20302,2.20297 -3.30454,4.86214 -3.30454,7.97752zM76.28239,320.99413c-2.54018,0 -4.70835,-0.89784 -6.50453,-2.69353c-1.79618,-1.79623 -2.69427,-3.96458 -2.69427,-6.50503v-153.59116c0,-2.54045 0.89809,-4.70879 2.69427,-6.50503c1.79612,-1.79568 3.9643,-2.69353 6.50453,-2.69353h397.43482c2.54045,0 4.70879,0.89784 6.50503,2.69353c1.79568,1.79678 2.69353,3.96513 2.69353,6.50503v153.59116c0,2.54045 -0.89784,4.70879 -2.69353,6.50503c-1.79623,1.79568 -3.96458,2.69353 -6.50503,2.69353z" data-paper-data="{&quot;isOuterDoubleOutline&quot;:true}" id="element-id-33846"/>
        <path d="M72.16006,311.79558c0,2.27717 1.84565,4.12232 4.12232,4.12232h397.43482c2.27635,0 4.12232,-1.84515 4.12232,-4.12232v-153.59116c0,-2.27717 -1.84598,-4.12232 -4.12232,-4.12232h-397.43482c-2.27668,0 -4.12232,1.84515 -4.12232,4.12232zM147.90857,247.1658c-1.22928,-0.47159 -2.27222,-0.87146 -0.01072,3.19975c-1.52444,-1.42962 -1.18558,-0.63236 -0.75439,0.38008c0.36276,0.85085 0.78901,1.85257 0.22838,1.813c0.19292,0.73212 -0.22425,0.60103 -0.59526,0.48396c-0.47489,-0.14923 -0.87558,-0.2762 0.15665,1.44529c-1.8872,-1.97294 -1.63491,-1.26143 -1.32574,-0.3875c0.32401,0.91186 0.70986,2.00098 -1.21773,0.3875c-0.2358,0.54992 -1.0347,0.1855 -1.766,-0.14923c-0.08492,-0.03875 -0.16902,-0.0775 -0.25146,-0.11378c-0.19952,-0.34957 -0.43532,-0.728 -0.65545,-1.0817c-0.55322,-0.88877 -1.01162,-1.62502 -0.57218,-1.37438c0.3504,-0.17561 0.17479,-1.49063 -0.43862,-2.54347c-3.4207,-2.01746 -3.85932,-2.01746 -1.75446,1.22763c-0.04287,0.59609 -0.62082,0.51034 -1.13611,0.43532c-0.54662,-0.0808 -1.02234,-0.15088 -0.70574,0.61752c-3.33331,-2.80648 -2.98209,-0.96462 -1.84185,1.05284c-1.63821,-1.04295 -1.75941,-0.44191 -1.91935,0.35452c-0.02886,0.14098 -0.05854,0.28856 -0.09811,0.43449c-2.09496,-1.64233 -2.07023,-0.68843 -2.04879,0.12285c0.01154,0.44521 0.02226,0.84755 -0.31989,0.75439c-0.34372,0.06266 -0.45354,0.41471 -0.55585,0.74367c-0.1846,0.59197 -0.34463,1.10561 -1.81201,-0.30505c-5.27748,-5.2774 -3.92453,-2.71496 -2.98737,-0.93907c0.32443,0.61423 0.59906,1.13446 0.53137,1.20207c-0.09514,-0.07832 -0.18979,-0.15665 -0.2837,-0.23332c-2.84976,-2.34972 -5.06205,-4.17344 -2.25994,0.49633c3.0605,4.16767 0.22318,1.71241 -1.22647,0.45758c-0.50309,-0.43532 -0.83873,-0.72553 -0.70319,-0.54497c-7.01702,-6.75401 -6.84157,-6.13979 -1.66657,-0.17561c3.8594,4.03493 9.47293,12.80641 -1.57877,-0.08739c-5.78906,-5.78939 -7.01702,-6.84141 -1.7543,-0.17561c-1.75421,-1.66624 -5.52581,-4.73655 -2.63136,-0.61423c0,0.15665 -1.17272,-0.8929 -2.40678,-1.99768c-2.22325,-1.99026 -4.64289,-4.15613 -0.75084,0.24404c0,-0.05854 0,-0.08739 0.00956,-0.09152c0.00965,-0.0033 0.02919,0.01979 0.06843,0.06513c0.039,0.04535 0.09745,0.11378 0.18517,0.20117l0.08772,0.08822l0.43853,0.6134l-0.35089,-0.52601c0.78942,1.14023 2.54372,3.85932 -1.75421,-0.52601c-1.14642,-1.2738 -1.72305,-1.94079 -1.98144,-2.24007c-0.12672,-0.14675 -0.17693,-0.20447 -0.18006,-0.20199c-0.00214,0.00165 0.01591,0.02886 0.04568,0.07503c0.15121,0.23085 0.60631,0.9267 0.27389,1.05119c-0.35089,-0.35122 -0.78942,-0.70162 -0.96487,-1.22763c1.27339,1.01821 1.15005,0.88712 -1.24461,-1.66707l-0.24651,-0.263c-1.57877,-1.40324 -2.54364,-3.59631 -0.96479,-1.75446c-0.48437,-0.67441 -0.78794,-1.08664 -0.96586,-1.32821c-0.16366,-0.22178 -0.22096,-0.29928 -0.21486,-0.30505c0.00322,-0.00247 0.02482,0.01566 0.05829,0.0437c0.17858,0.15005 0.69214,0.5829 0.50845,-0.4279c-0.98433,-1.24906 -0.30192,-0.78242 0.40391,-0.30011c0.9295,0.63566 1.8994,1.29853 -0.84252,-1.89215c-1.85867,-2.78834 -1.38675,-2.66302 -0.67367,-2.47422c0.16176,0.0437 0.33605,0.08987 0.49831,0.10553c-0.04345,-0.3471 -0.02234,-0.76016 -0.00058,-1.18311c0.0221,-0.43119 0.04477,-0.87476 0.00058,-1.27297c0.08772,-4.29793 1.05251,-9.20927 2.28047,-14.47183l0.17545,-0.61423c0.96487,-4.21054 2.01738,-8.24465 3.15762,-11.84096c0.35089,-0.87723 0.61398,-1.66707 0.96487,-2.63169c0.17545,-1.31585 0.26317,-2.01746 1.22796,-2.45608c1.65924,1.03718 1.44875,0.17396 1.21666,-0.77829c-0.16052,-0.65792 -0.33135,-1.35872 0.09902,-1.50217c0.09572,0.01402 0.19573,0.02968 0.29788,0.04535c1.20858,0.19128 2.72304,0.43119 1.10552,-2.23842c0.25905,-0.35617 0.06381,-1.16662 -0.10908,-1.8839c-0.29532,-1.22598 -0.52518,-2.17988 1.68793,-0.13274c-0.97823,-1.91193 0.25253,-1.2771 1.30414,-0.7346c1.02283,0.52766 1.87599,0.96792 0.36235,-1.10808c-4.68279,-6.48359 -2.2648,-4.74232 0.30382,-2.89305c0.55866,0.40234 1.12449,0.81045 1.62584,1.13941c1.61884,0.69337 1.75141,-0.13686 1.85472,-0.78407c0.05334,-0.33391 0.09894,-0.61917 0.33811,-0.61917c-1.35501,-2.19637 -0.07173,-1.50547 1.13183,-0.85744c1.05589,0.56888 2.05044,1.10478 1.14873,-0.37101c1.92966,1.31585 5.43817,2.98209 2.71908,-1.05284c3.06989,2.19308 3.7716,1.22845 2.80672,-0.78901c2.89494,1.49146 4.12257,1.92925 2.98234,-0.70162c0.37678,0.19952 0.81622,0.49468 1.22598,0.77005c1.21031,0.81375 2.16669,1.45683 0.52848,-1.03305c0.51859,0.06926 1.10643,0.39739 1.54092,0.64143c0.66699,0.37266 0.97452,0.54497 0.12532,-0.72965c-0.04122,-0.14016 -0.07997,-0.27125 -0.11625,-0.39327c-0.21271,-0.71728 -0.33391,-1.12457 -0.21601,-1.21196c0.15417,-0.1146 0.72141,0.32401 2.03478,1.3414c0.07338,0.05689 0.14923,0.11625 0.22755,0.17644c0.17891,-0.14923 0.02226,-0.67606 -0.11707,-1.14271c-0.26878,-0.90032 -0.46912,-1.5739 1.95893,1.14271c0.76428,0.6876 0.72883,0.36029 0.68595,-0.04782c-0.05606,-0.52766 -0.12697,-1.1897 1.5063,0.04782c3.48831,3.63342 2.88233,2.26975 2.27305,0.89784c-0.12614,-0.28444 -0.25311,-0.56971 -0.34298,-0.81045c2.10486,1.93007 3.94671,3.50892 1.84185,0.17561c0.12202,-0.03051 0.69255,0.4617 1.26061,0.95143c1.06109,0.91598 2.11558,1.82536 0.23085,-0.68843c-0.26383,-0.17561 -1.22845,-2.10486 1.66624,0.52683c2.01746,1.92925 3.4207,2.28047 1.31585,0.3504c0.74779,0.29928 0.49056,-0.3908 0.30423,-0.8929c-0.25146,-0.67441 -0.37678,-1.00914 2.23925,1.85752c0.52601,0.96545 1.84185,2.28047 2.63169,2.8947c0.16737,0.20447 0.36524,0.44604 0.58207,0.71069l0.00082,0.00082c1.83361,2.23265 5.05149,6.15133 3.01259,4.11243c-0.67524,-0.40481 -1.37686,-0.96875 -1.88143,-1.37521c-1.13364,-0.91186 -1.28039,-1.02976 2.05704,3.21789c0.02144,0.14675 0.04699,0.29351 0.07338,0.44191c0.08327,0.47077 0.16902,0.95391 0.10223,1.48733c-0.08739,1.84185 -0.35122,3.77193 -0.61423,5.35078l-14.47265,2.01746v-0.08822c1.40406,-7.10441 0.43862,-11.22673 -7.36742,-11.22673c-7.36791,0 -11.22731,4.73655 -15.3498,22.7173l-0.17536,0.61423c-4.12249,17.89336 -1.7543,22.7173 6.40296,22.7173c6.49052,0 10.96406,-5.17516 12.10429,-7.19263l2.19308,-9.38488h-11.40284l2.19275,-9.38571h23.15591l-6.5784,28.24368c-0.19705,-0.06183 -0.40316,-0.14098 -0.60351,-0.21766zM154.91487,194.58062c-0.263,0 -0.263,-0.08739 -0.43779,-0.17561c-0.70244,-0.87723 -0.78984,-1.05202 0.43779,0.17561zM154.91487,194.58062c0.26383,0.08739 0.17561,-0.263 -1.14023,-1.84185c-4.56094,-5.26256 3.85932,3.7711 1.57885,1.49063c0.17561,0.26383 0.17561,0.35122 0.17561,0.43862c0.17561,0.17561 0.61423,0.43862 0.87723,1.05284c0.17561,-0.17561 4.03493,4.82394 1.14023,1.75446c-1.31585,-1.40379 -2.19308,-2.36869 -2.63169,-2.8947zM106.67347,249.57653c-0.08772,0 -0.26309,-0.08822 -0.43853,-0.17561l-1.14023,-1.40324c0.43853,0.52601 0.87707,1.05202 1.57877,1.57885zM142.37229,254.22487c0.70162,1.14023 0.96462,1.93007 -0.61423,0.263c-0.87641,-1.05202 -0.17479,-0.78901 0.61423,-0.263zM211.31402,235.10388c2.03808,1.94244 1.59204,1.14601 1.01409,0.11378c-0.49138,-0.87888 -1.0784,-1.9276 -0.31247,-1.60523c-0.44191,-0.97204 -0.0371,-0.85332 0.33803,-0.74284c0.36936,0.10883 0.71069,0.20941 0.1888,-0.74779c0.11295,-0.14263 0.38255,-0.08245 0.63896,-0.02473c0.5359,0.11872 1.01409,0.2259 -0.11295,-1.55412c0.80385,0.53508 0.56146,-0.04287 0.30423,-0.65792c-0.24816,-0.59361 -0.51117,-1.22268 0.13439,-0.92093c0.263,-0.61423 0.3504,-1.22845 0.52601,-1.75446c0.43862,-1.66624 0.96462,-3.50892 1.40324,-5.43817l0.08822,-0.263c5.08695,-22.3669 1.05202,-33.24324 -17.19174,-33.24324c-8.15725,0 -14.38443,2.10486 -19.29659,6.49101c-0.87723,0.6134 -1.31585,1.14023 -1.93007,1.75364c-0.3809,-0.05854 0.82364,1.80146 2.08754,3.75131c2.51874,3.889 5.2708,8.13829 -3.84118,-1.73385c-3.31105,-2.71249 -0.39987,0.94236 2.17494,4.17509c3.08762,3.87581 5.69128,7.14399 -3.49078,-1.89462c15.44057,17.91149 8.33121,10.53418 3.24509,5.25679c-1.41478,-1.46755 -2.67291,-2.7735 -3.24509,-3.32671c0.39904,0.68348 0.73542,1.25566 1.01409,1.7289c0.81127,1.3785 1.13199,1.92348 1.08582,1.95645c-0.02968,0.02144 -0.21683,-0.17644 -0.52766,-0.5054c-0.66122,-0.70079 -1.88308,-1.99356 -3.32671,-3.00435c-3.27477,-3.53036 -2.32252,-1.80146 -1.17156,0.28609c1.22186,2.21781 2.66797,4.84043 -0.49468,1.99438l-0.07915,-0.06348c-2.55419,-2.04302 -2.62015,-2.09579 -0.62247,1.20372c-0.08822,0.52601 -0.17561,1.14023 -0.08822,1.92925l-0.6134,1.49146c-1.49146,3.5081 -2.5443,7.45563 -3.50892,11.75357l-0.08739,0.263c-5.26338,22.54169 -0.96545,33.50624 17.27913,33.50624c10.0865,0 17.45474,-3.50892 22.80469,-10.26294c0.61423,-0.70162 1.05284,-1.31502 1.49146,-2.10486c1.14023,0.08822 1.75446,-0.70162 1.49146,-2.45608c-0.27042,-0.9267 0.32649,-0.85002 0.92258,-0.77417c0.75686,0.09729 1.51124,0.19457 0.48066,-1.7693c-0.43367,-1.11962 0.41141,-0.66287 1.26226,-0.20364c1.21526,0.65627 2.44289,1.31914 -0.03463,-2.60283zM395.77644,254.89845c0.00247,-0.00495 0.00495,-0.00907 0.00577,-0.01319c0.00742,-0.02968 -0.03463,-0.07173 -0.36029,-0.39739c-2.92685,-3.50233 -2.30273,-3.07938 -1.28369,-2.38847c0.6909,0.4683 1.56401,1.05944 1.63491,0.63401c0.05524,-0.13686 0.35122,-0.02473 0.67276,0.09729c0.70409,0.26713 1.52938,0.58042 0.20447,-1.58792c2.8947,2.8947 4.64833,4.64833 0.3504,-1.31585c-2.63087,-3.59631 -3.59549,-5.35078 -0.08739,-1.92925c-0.54167,-0.81292 -0.22343,-0.8121 0.10471,-0.81127c0.31,0 0.62907,0.00082 0.24651,-0.68018c0.3067,-0.07668 0.12697,-0.47242 -0.04782,-0.85662c-0.22425,-0.49385 -0.44026,-0.96875 0.39822,-0.72223c0.01319,0 0.1921,0.17396 0.46252,0.43614c1.50795,1.46425 5.8537,5.68221 -0.02391,-2.278c-1.50465,-1.77425 -0.86899,-1.67037 -0.23167,-1.56566c0.40316,0.06513 0.80633,0.13109 0.67029,-0.2762c0.70162,0.96462 3.4207,1.84185 0.35122,-1.84185c-0.05359,-0.18633 0.32814,0.04617 0.77665,0.31989c1.03058,0.62824 2.41238,1.47084 -0.33885,-2.07435c-0.54909,-1.96387 -0.39574,-1.9581 0.20941,-1.93502c0.07008,0.00247 0.14675,0.00495 0.2292,0.00495c-2.2277,-3.05629 -1.39499,-2.53276 -0.50292,-1.97129c0.61835,0.38915 1.26473,0.79561 0.94154,0.04205c0.0709,0.02309 -0.04864,-0.25064 -0.21106,-0.62494c-0.44356,-1.01904 -1.21031,-2.78009 0.64968,-1.30513c2.8073,2.10568 2.54347,1.14023 0.52683,-2.01746c0.16242,-0.09729 -0.0841,-0.73542 -0.32979,-1.37191c-0.418,-1.08252 -0.83353,-2.15927 0.7684,-0.55734c-0.07173,-0.465 0.27949,-0.38997 0.59609,-0.32319c0.45923,0.09729 0.84508,0.17973 -0.24569,-1.43127c-1.97294,-2.6119 -1.09324,-2.14608 -0.27784,-1.71324c0.52601,0.27867 1.02563,0.54415 0.71646,-0.04122c1.28369,1.23505 0.92752,0.35699 0.55899,-0.55239c-0.28609,-0.70657 -0.58042,-1.43127 -0.12037,-1.20124c0.05854,0.01566 0.11543,0.03215 0.17066,0.04699c0.85167,0.23909 1.25071,0.35122 0.17973,-1.62584c0.55486,0.10058 0.44274,-0.34875 0.33061,-0.79973c-0.08245,-0.33308 -0.16572,-0.66699 0.02061,-0.77912c-0.91763,-1.97707 -0.30093,-2.19225 0.24899,-2.38353c0.13274,-0.04699 0.26218,-0.09152 0.36524,-0.15995c1.14023,0.3504 0.6134,-1.66707 0.43862,-2.10568c-2.28129,-4.01102 0.58619,-1.67449 0.57053,-1.65552c-0.00165,0.00247 -0.04122,-0.02638 -0.13191,-0.09811c0.6538,0.60351 0.58619,0.65875 0.45923,0.76181c-0.09399,0.07668 -0.22096,0.17973 -0.10883,0.55322c1.14023,1.66707 0.87723,1.93007 0.52601,1.75446c0,0.23167 0.20034,0.6505 0.39739,1.06356c0.32484,0.68183 0.64226,1.348 0.04122,1.12952c0.35122,0.78901 0.52683,1.66624 0.70244,2.45608l8.77065,33.68103h17.45474l14.91127,-64.73119h-15.26166l-9.4731,41.22488l-10.87634,-41.22488h-6.92963c0.22838,0.68266 -0.24651,0.47901 -0.775,0.25229c-0.28609,-0.12285 -0.58784,-0.25229 -0.80385,-0.25229c0.03875,0.30588 -0.45675,0.06101 -0.96215,-0.18798c-0.6538,-0.32237 -1.32491,-0.65298 -0.8797,0.18798c-1.59699,-1.22845 -1.47332,-0.52189 -1.40654,-0.13851c0.02886,0.16489 0.04699,0.2696 -0.0841,0.13851c1.42715,2.72486 -0.21683,1.658 -1.63162,0.74119c-0.49715,-0.32319 -0.96627,-0.62742 -1.26308,-0.74119c-0.72883,-0.1583 -1.53763,-0.56888 -2.18236,-0.89619c-1.14106,-0.57795 -1.7693,-0.89702 -0.53673,0.89619c0.49221,0.51859 0.38008,0.42377 0.06266,0.15747c-0.75603,-0.63319 -2.67374,-2.24007 -0.32566,1.15755c0.20694,0.70409 0.04287,0.66534 -0.14263,0.62165c-0.20694,-0.04782 -0.44026,-0.10306 -0.20859,0.86981c0.86651,1.27874 0.39409,1.08335 -0.15747,0.85497c-0.62165,-0.25723 -1.3447,-0.55651 -0.36854,1.1625c-0.20529,0.06843 -0.10388,0.50952 0.00742,0.99678c0.17561,0.76263 0.37596,1.63904 -0.53343,1.37108c-0.20777,0.04205 -0.15995,0.49385 -0.11707,0.90444c0.04782,0.4584 0.08987,0.86486 -0.23415,0.58702c-0.96462,-0.70162 -1.40324,-0.35122 -0.263,1.40324c-0.03957,0.02968 -0.0775,0.05524 -0.11378,0.0808c-0.29021,0.1987 -0.48066,0.32896 -0.32484,1.49805c-2.04055,-1.98366 -1.29771,-0.52518 -0.70574,0.63731c0.32401,0.63649 0.60351,1.18476 0.35452,1.02893c-0.58537,-0.20859 -0.25311,0.49963 0.04452,1.13611c0.32731,0.69832 0.61423,1.3109 -0.39492,0.53096c0.23992,0.54002 0.49385,1.03883 0.70904,1.4626c0.72883,1.43374 1.01904,2.00427 -1.14765,0.37925c-0.68101,-0.48643 -0.55239,0.05277 -0.40811,0.65957c0.11625,0.48643 0.24239,1.01656 -0.03051,1.09489c-0.0404,-0.01731 -0.0808,-0.0338 -0.1212,-0.05112c-1.00832,-0.42295 -1.91935,-0.80633 -0.31742,1.89297c-2.63169,-1.84185 -1.93007,-0.35122 -0.43862,1.92925c-2.63169,-2.28047 -2.19308,-1.22763 -0.43862,1.93007c0.4955,0.79231 0.00907,0.42872 -0.58455,-0.01402c-0.98359,-0.7346 -2.26068,-1.6885 0.14593,2.03148c2.45608,3.68288 1.14765,2.82132 0.14181,2.15927c-0.57465,-0.37925 -1.05037,-0.69255 -0.66782,-0.05441c-1.66624,-2.01746 -2.80648,-1.66624 -0.43862,2.01746c3.6598,4.78602 3.30775,4.51147 2.02901,3.51634c-0.71316,-0.55569 -1.71406,-1.33563 -2.46762,-1.58709c-1.31585,-0.78901 -2.01746,-0.3504 -0.43862,2.01746c-1.23917,-1.1188 -0.69255,-0.14263 -0.07997,0.95226c0.73212,1.30678 1.55824,2.78339 -0.44604,1.06521c-0.10058,0.33556 0.32319,1.18228 0.6909,1.91523c0.59361,1.1864 1.03883,2.07435 -1.12952,0.01484c2.14938,3.39927 0.82364,2.32581 -0.21189,1.48733c-0.78077,-0.63236 -1.39664,-1.13034 -0.22673,0.53013c-1.65058,-1.41478 -1.12127,-0.4213 -0.56476,0.62247c0.47901,0.89867 0.97782,1.83443 0.12614,1.30678c-0.65957,-0.0437 -0.32731,0.728 -0.05277,1.36531c0.2729,0.63319 0.48891,1.13281 -0.38585,0.56476c-2.59871,-2.54924 -1.55247,-0.79808 -0.64226,0.72635c0.6876,1.15095 1.29771,2.17164 0.20364,1.1155c-0.09234,0.27784 -0.2729,0.40399 -0.43202,0.51529c-0.29351,0.20447 -0.51776,0.36112 -0.0066,1.32656c-0.69585,-0.24569 -0.09234,0.71234 0.4551,1.58132c0.62494,0.99266 1.17651,1.86824 -0.36689,0.69915c0.06101,0.3471 0.15995,0.70904 0.24899,1.03141c0.29186,1.06273 0.4683,1.70334 -1.21444,0.02144c0.0371,0.40481 -0.29681,0.36194 -0.58619,0.32401c-0.40069,-0.05112 -0.71811,-0.09234 0.14758,1.07922c0.02721,0.15912 -0.17891,0.12532 -0.4213,0.08657c-0.55816,-0.08987 -1.31007,-0.21189 0.1583,1.9309c-0.12037,0.20034 0.08987,0.67606 0.30258,1.1592c0.25311,0.57218 0.50952,1.15343 0.22343,1.29688c2.28129,3.33249 2.10568,4.20972 -0.78901,0.70162c0.97699,2.21369 0.40646,2.15597 -0.27455,2.08672c-0.23662,-0.02473 -0.48726,-0.04947 -0.69008,0.01814c-1.51124,-0.93577 -1.07428,0.25476 -0.67441,1.34223c0.08739,0.23745 0.17231,0.47077 0.2358,0.67524l-0.61423,2.80648h3.94754c-2.1131,-3.01754 -1.17486,-2.2714 0.91516,-0.60845c0.33968,0.27042 0.70986,0.56558 1.10148,0.87146c-0.6505,-1.35212 0.0709,-1.01656 0.66369,-0.74202c0.44439,0.20694 0.8154,0.37925 0.47654,-0.22261c-0.70904,-0.9605 0.03133,-0.42955 0.89949,0.19045c0.95473,0.68348 2.06199,1.47662 1.55659,0.51117c2.47752,2.47752 2.12794,1.29194 1.86576,0.40399c-0.04452,-0.14923 -0.08574,-0.29021 -0.1113,-0.40399c-1.55741,-2.41651 0.20612,-0.78819 1.4659,0.37431c0.79726,0.73542 1.39252,1.28534 0.81457,0.50292c-1.55082,-2.15185 -0.76181,-1.50547 0.02391,-0.86321c0.59114,0.48314 1.17981,0.96545 0.76593,0.24899c2.89387,2.8947 3.5081,3.24592 1.57885,0.96545c-0.41553,-0.69255 -0.36936,-0.77747 -0.34792,-0.81787zM289.55324,255.1021c2.25326,1.75281 2.12465,1.59946 0.52024,-0.30835c-0.08162,-0.09729 -0.16737,-0.19952 -0.25641,-0.30588c0.01484,0 0.38173,0.35205 0.9267,0.87393c2.59047,2.48329 9.19278,8.81105 1.00255,-0.61093c0.23497,-0.13356 -0.19705,-0.94813 -0.56064,-1.63244c-0.58702,-1.10561 -0.9943,-1.87318 1.87648,1.10643c-2.44619,-3.8519 -1.86494,-3.31352 -0.42707,-1.98036c0.62412,0.57877 1.41066,1.30843 2.18153,1.89297c1.31502,1.22763 4.29793,2.63087 1.75364,-0.263c-1.60029,-1.83031 -0.64968,-1.39335 0.57795,-0.83106c1.12622,0.51694 2.48494,1.14023 2.31675,0.21683c0.22261,-0.13933 -0.30423,-1.2301 -0.84837,-2.35714c-1.17156,-2.4264 -2.4231,-5.01769 3.56746,1.39252c-2.94416,-4.52549 -0.70327,-2.98456 1.07758,-1.76023c1.08417,0.74532 1.99685,1.37356 1.4659,0.44439c2.71908,2.19225 5.43817,3.24509 2.36869,-1.40324c0.52601,0.21519 1.23505,0.71069 1.90204,1.17734c1.78002,1.24494 3.26488,2.28294 0.20282,-2.75619c-4.12232,-4.73655 -2.36786,-5.08777 1.93007,-1.84268c1.49063,0.43862 2.10486,0 1.57885,-1.92925c0.70162,-0.78984 1.14023,-1.31585 1.57885,-2.10486c2.19225,-2.98209 3.59549,-6.13979 4.99955,-9.38571l0.87641,-2.63087c1.49146,0.52601 1.57885,-0.43862 0.70244,-2.45608c1.74209,0.97617 1.49063,-0.04287 1.13776,-1.47084c-0.09152,-0.36854 -0.1888,-0.76428 -0.26136,-1.16085c0.93577,0.71976 0.32154,-0.33143 -0.36441,-1.5063c-0.98771,-1.69098 -2.12547,-3.64001 0.97864,-0.94978c-1.12375,-1.03388 -0.81869,-0.86981 -0.37266,-0.62907c0.42377,0.22838 0.97534,0.52601 0.54827,-0.07255c2.8947,2.45608 2.54347,1.05284 0.52601,-2.45608c1.47167,1.0009 1.04707,-0.17066 0.66205,-1.23505c-0.1888,-0.52189 -0.36854,-1.01821 -0.31082,-1.22021c-0.07832,-0.4683 0.06926,-0.76263 0.21848,-1.06109c0.18633,-0.37266 0.37596,-0.75191 0.13191,-1.48321c0.95308,0.63566 0.70904,-0.01979 0.40893,-0.82529c-0.27949,-0.75191 -0.60845,-1.63326 -0.05771,-1.71818c0.85415,0.32896 0.23085,-1.46095 -0.02391,-2.1939c-0.08574,-0.24487 -0.12944,-0.37183 -0.06431,-0.26218c2.87903,2.6218 1.47991,0.36276 0.39327,-1.39087c-0.76758,-1.23917 -1.37933,-2.22688 -0.21766,-1.06521c-5.76795,-6.36899 -4.0036,-4.99955 -2.15103,-3.56169c0.85167,0.66122 1.72231,1.33646 1.88802,1.28122c-3.62435,-5.70612 -1.48569,-3.34485 -0.67771,-2.45196c0.1113,0.12202 0.19705,0.21683 0.23909,0.25971c-2.8947,-3.85932 -2.54347,-4.12232 -0.70162,-2.10568c-1.84185,-2.36786 -3.59631,-4.82394 -4.21054,-5.87596c0.78984,0.96462 1.40406,1.40324 0.96545,0.87641c0.70162,0.61423 1.49063,1.49146 2.63087,2.8073c-0.14675,-0.29433 -0.27867,-0.49633 -0.36276,-0.62494c-0.11625,-0.17808 -0.14098,-0.21519 0.01237,-0.16489c0,-0.0338 -0.03957,-0.05441 -0.08245,-0.0775c-0.06843,-0.03628 -0.14675,-0.0775 -0.09316,-0.1855l-0.52601,-0.61423c0.17479,-0.08739 -0.43862,-0.96462 -1.22845,-1.49063c-0.10141,-0.12202 -0.1987,-0.23992 -0.28032,-0.33803c-0.26878,-0.32566 -0.36606,-0.44356 0.10553,0.16242l0.17479,0.17561c0.43862,0.43862 0.87723,0.96462 1.22845,1.49063c-0.08822,0 -0.96545,-0.78901 -3.07031,-3.15688c0.78984,1.05202 1.31585,1.57803 1.49146,2.01664c-1.40324,-1.57885 -1.57885,-1.57885 -0.96545,-0.87641c-0.87641,-0.70244 -1.84185,-1.66707 -2.45526,-2.28129c0.3875,0.44356 -0.13521,0.1517 -0.90526,-0.27867c-0.44768,-0.25064 -0.97946,-0.54744 -1.46342,-0.77335c-2.31757,-2.46268 -2.1098,-1.84185 -1.86494,-1.10808c0.20034,0.59939 0.42542,1.2738 -0.67853,0.40646c-0.24239,0.20199 -1.04295,-0.45181 -1.62172,-0.92505c-0.67853,-0.55404 -1.05202,-0.85909 0.13027,0.74944c-0.96545,-1.12622 -0.78654,-0.68431 -0.573,-0.155c0.25229,0.62494 0.55404,1.37108 -0.91763,-0.19622c4.38533,5.17516 0.17561,1.57885 -1.75446,-0.08739c1.49146,2.01746 5.17516,7.01702 -1.75446,0c-1.09571,-1.35377 -1.33893,-1.04954 -1.7388,-0.54909c-0.14428,0.18056 -0.30917,0.38667 -0.54167,0.54909l-0.07255,-0.04864c-1.55659,-1.038 -3.1643,-2.11063 -2.64653,0.04864c-1.21031,-1.07098 -1.06109,-0.58455 -0.91763,-0.11543c0.12697,0.41471 0.24981,0.81457 -0.573,0.11543c-0.07503,-0.01896 -0.2259,-0.08492 -0.40893,-0.16654c-0.67853,-0.29928 -1.8097,-0.79973 -1.25813,0.16654c1.15507,1.59946 0.28526,0.92587 -0.64968,0.20199c-0.91103,-0.70492 -1.88308,-1.45683 -1.10396,-0.20199c-1.1188,-1.2705 -1.14683,-0.86239 -1.17816,-0.41388c-0.02226,0.32566 -0.04617,0.67194 -0.48891,0.41388c0.23745,0.52106 -0.06348,0.40234 -0.51364,0.22508c-0.3842,-0.1517 -0.87723,-0.34628 -1.23999,-0.22508c-0.85662,-0.66122 -0.46912,0.12779 -0.12614,0.82694c0.43037,0.87641 0.79149,1.61265 -1.45271,-0.82694c-1.84268,-1.31585 -2.01746,-1.22763 -1.75446,0c0.03793,0.30423 -0.31907,0.09729 -0.70822,-0.12697c-0.50787,-0.29351 -1.06933,-0.61835 -0.87063,0.12697c-0.35534,0.41388 -1.02893,0.2696 -1.67284,0.13191c-0.31082,-0.06678 -0.61423,-0.13191 -0.87063,-0.13191h-2.36869l-0.70162,2.80648c-0.02638,0.1583 0.23085,0.68513 0.51199,1.26226c0.6571,1.34882 1.44611,2.96725 -0.95061,0.75521c-0.96462,-0.263 -0.87723,0.87723 -0.52601,2.36869c-0.61423,-0.08822 -0.61423,0.87723 -0.35122,1.40324c-0.37266,0.22425 -0.36524,0.63896 -0.35452,1.1897c0.00165,0.09646 0.00412,0.19705 0.00412,0.30175c-0.05359,0.13274 -0.17149,0.1855 -0.29104,0.23745c-0.27207,0.12037 -0.54827,0.24239 -0.06019,1.3414c-0.96462,-0.61423 -1.05202,-0.26383 -0.3504,1.57803c0.51117,1.07016 0.18468,1.05449 -0.14346,1.03965c-0.29104,-0.01319 -0.58372,-0.02721 -0.29516,0.71481c4.99955,6.22801 1.49063,3.4207 -0.35122,1.75446c-0.96462,-0.35122 -1.49063,-0.17561 -0.43862,1.75446c3.08185,4.33668 1.81959,3.36464 0.6571,2.46927c-0.6233,-0.48066 -1.21773,-0.93824 -1.09571,-0.54002c-1.37108,-0.60021 -1.06768,0.22425 -0.47984,1.81712l0.04122,0.11295c-0.70162,-0.17561 -0.70162,0.87723 -0.43862,1.92925l-9.29749,40.34765h8.24547c1.05202,0 1.84185,-0.263 2.8947,-0.43862c4.12232,4.56094 3.5081,2.71908 2.01664,0.52683c-1.90534,-2.29613 -1.43704,-1.9177 -0.4955,-1.15837c0.96462,0.77829 2.4264,1.9581 2.33818,1.07016c0.59526,0.55816 0.47984,0.20117 0.33803,-0.24157c-0.19292,-0.60021 -0.43697,-1.35872 0.97699,-0.19705c-1.98449,-2.55749 -1.08664,-1.70087 0.11872,-0.55074c1.19218,1.13694 2.68446,2.56079 1.98696,1.25236c3.5081,2.98291 5.78857,4.12315 2.45608,-0.263c-3.35804,-4.35235 -1.09406,-1.86824 1.28534,0.74119c2.65395,2.91201 5.45054,5.97902 0.7313,-0.12697zM247.96065,244.51102c0.37925,0.0808 0.75686,0.1616 0.89454,-0.02226h11.84096l-2.28047,9.99911h-7.89425c-0.12285,0 -0.32979,-0.06926 -0.55074,-0.14346c-0.56641,-0.19045 -1.23093,-0.41306 -0.8525,0.40646c1.35377,2.46927 -0.6909,0.88877 -1.60358,0.18303c-0.09316,-0.07173 -0.17396,-0.13439 -0.23827,-0.18303c-1.46507,-1.06851 -1.10726,-0.44026 -0.76593,0.15995c0.41553,0.72965 0.80715,1.41725 -2.12877,-1.03635c1.56731,2.86089 0.54085,2.07106 -0.52931,1.24659c-0.30753,-0.23662 -0.61917,-0.47654 -0.87393,-0.63319c-2.5814,-3.01094 -2.52534,-2.62674 -2.41815,-1.89874c0.06678,0.45923 0.15417,1.05614 -0.38832,1.02151c-2.98291,-4.20972 -5.00038,-4.29793 -1.14023,0.87723c-2.71908,-2.28047 -4.29793,-2.63087 -2.36869,-0.17561c1.17651,1.85834 0.16654,1.2672 -0.80633,0.6975c-0.40481,-0.23662 -0.80385,-0.46994 -1.03553,-0.52189h-15.26166l2.28047,-10.0865c0.263,-0.96545 0.70162,-1.84185 1.14023,-2.71908c-0.05936,-0.29516 0.45593,0.10306 0.99018,0.51611c1.05531,0.81622 2.18401,1.6885 -0.90279,-2.6218c1.63656,1.29276 1.03141,0.38502 0.34463,-0.64473c-0.71151,-1.06768 -1.51124,-2.26645 0.0066,-1.28452c-0.15253,-0.57795 -0.67441,-1.42055 -1.10726,-2.1197c-0.81622,-1.31667 -1.31832,-2.12794 1.54587,0.27784c3.63671,4.01597 1.77507,0.56971 0.86157,-1.12127c-0.14346,-0.26713 -0.26383,-0.48973 -0.33556,-0.63319c-1.52279,-2.81884 -0.54415,-2.37611 0.02309,-2.1197c0.31495,0.14263 0.50292,0.22755 0.06431,-0.33638c-2.85182,-3.41246 -2.18978,-2.91366 -1.09571,-2.08754c0.95803,0.72306 2.24832,1.69675 1.79733,0.50869c0.37348,0.49715 0.43284,0.1921 0.51199,-0.21271c0.08904,-0.45263 0.20199,-1.02976 0.80385,-0.75191c-0.88877,-1.39664 -0.65462,-1.36366 -0.34133,-1.32079c0.33556,0.04699 0.76263,0.10636 -0.00907,-1.5739c-0.61423,-1.66624 -0.52683,-2.45608 0.43862,-1.92925c-0.28691,-0.73707 0.01896,-0.78654 0.31989,-0.83436c0.34298,-0.05441 0.67936,-0.108 0.11872,-1.18311c-0.2696,-0.92422 0.45758,-0.44521 1.06191,-0.04782c0.77335,0.50869 1.3447,0.88465 -0.62412,-1.96965c-1.13117,-2.60283 -0.58372,-2.28542 -0.07668,-1.99191c0.27949,0.16242 0.54662,0.31659 0.51529,-0.02556c0.03215,-0.41388 -0.37431,-1.21938 -0.73048,-1.9243c-0.62412,-1.23752 -1.09077,-2.16092 1.25731,-0.09316c2.45608,1.22845 0.6134,-1.75446 0.43862,-2.01746c0.13109,-0.2292 -0.1921,-0.8896 -0.49221,-1.50053c-0.50045,-1.02316 -0.93577,-1.91111 0.93082,-0.42872c1.12869,0.4617 0.87641,-0.12697 0.59609,-0.78324c-0.19952,-0.465 -0.41306,-0.96462 -0.15747,-1.14683c-0.44356,-0.78324 0.43697,-0.13769 1.32491,0.51282c1.39747,1.02481 2.81472,2.06446 -0.88712,-2.44206c-2.40744,-3.7002 -1.35542,-2.95653 -0.42295,-2.29861c0.46005,0.32566 0.89125,0.62989 0.86157,0.36854c-3.7711,-4.82394 -2.98209,-5.17516 0.43862,-1.66624c0.10306,0.05936 0.20282,0.11707 0.29763,0.17231c2.01664,1.16744 2.3151,1.33975 0.05359,-1.92677c0.3504,-0.263 0.263,-1.05284 0.3504,-1.57885l2.71908,-11.66535h15.17427l-6.3154,27.36563c0,0.13933 0.09234,0.39409 0.19457,0.68018c0.28691,0.79643 0.65875,1.83114 -0.63236,1.24989c1.49063,2.71908 2.36786,4.38533 -0.43862,1.75446c4.12232,6.05157 1.75364,4.20972 -0.43862,1.92925c-1.24494,-0.78819 -0.52683,0.26795 0.15747,1.27545c0.76263,1.12292 1.48404,2.18483 -0.59609,0.56641c1.86989,2.56161 0.83766,1.59864 -0.30175,0.5359c-1.31749,-1.2301 -2.77845,-2.59212 -0.04947,1.21856c-0.78901,-0.70162 -1.22763,0.43862 -0.43862,1.66624c1.23505,1.55741 0.728,1.50382 0.20941,1.44941c-0.32814,-0.03463 -0.66205,-0.06926 -0.55981,0.30505c-1.24412,-0.89867 -0.74532,0.6538 -0.52106,1.35295c0.06019,0.18798 0.10058,0.3133 0.08245,0.3133c-0.38915,-0.21601 -0.28856,0.22838 -0.18056,0.70327c0.1113,0.48891 0.23003,1.00914 -0.17066,0.87558c1.1864,1.37191 0.63401,0.97287 -0.11543,0.43284c-1.02316,-0.7379 -2.41321,-1.74044 -0.23497,1.14601c-0.05277,0.20941 -0.1517,0.3875 -0.25806,0.57877c-0.25064,0.44933 -0.54085,0.97122 -0.35617,2.14031c2.85512,4.41336 2.63829,4.89979 -0.48396,2.55419c0.16324,0.14016 0.22096,0.2696 0.22096,0.3405l3.33331,3.85932c-0.2292,-0.38173 -0.02638,-0.26465 0.32649,-0.06183c0.45758,0.263 1.16827,0.67194 1.51537,0.32484c-0.0742,-0.22096 0.31742,-0.02391 0.75109,0.1954c0.59609,0.30093 1.2705,0.64061 0.91516,-0.01979c0.87723,0.35122 1.66624,0.61423 1.84185,0c0.16737,-0.12532 0.51447,-0.05112 0.85992,0.02226zM369.20147,246.81458c0.34463,0.8154 0.70904,1.67614 -1.2334,0.30588c-1.01409,-0.56393 0.20777,1.25401 1.30265,2.88233c1.46178,2.17411 2.69682,4.01184 -1.91606,-0.60186c1.89132,2.71826 0.36606,1.40159 -1.16332,0.0808c-1.87648,-1.62007 -3.75956,-3.24674 0.63649,2.55007c0.86569,1.73138 0.19622,1.86082 -0.27867,1.95316c-0.29598,0.05689 -0.51611,0.09976 -0.24734,0.50292c-0.01402,0 -0.03545,0.00907 -0.07008,0.02144c-0.18386,0.0709 -0.71564,0.27455 -2.123,-0.02144c-0.4246,0 -0.52024,0.25558 -0.60516,0.48149c-0.14346,0.38008 -0.25394,0.67441 -1.85092,-0.48149c1.14106,1.75446 1.66707,2.8073 -1.66624,0h-34.03225l6.05239,-26.40101c-0.58372,-0.93329 -0.2358,-0.79808 0.18715,-0.63236c0.53013,0.20694 1.17898,0.46005 0.25146,-1.29771c3.7711,3.77193 6.05157,5.78939 0.52601,-2.01746c-0.41471,-0.8055 -0.88383,-1.58792 -1.2705,-2.23265c-1.08664,-1.81135 -1.52526,-2.54265 1.70912,0.3034c-2.8172,-3.62187 -1.37686,-2.88398 -0.30835,-2.33653c0.32896,0.16819 0.6233,0.31907 0.74696,0.31907c-1.20124,-1.84763 -0.09152,-1.38428 0.75439,-1.03141c0.76098,0.31742 1.30843,0.5458 -0.22838,-1.07345c0,-0.0338 -0.07832,-0.16324 -0.18715,-0.34545c-0.46912,-0.77994 -1.50877,-2.50967 0.62577,-1.58462c1.22763,1.57885 3.68371,2.63169 0.43862,-2.01746c1.43622,1.1122 0.71976,-0.24651 0.12367,-1.37686c-0.5326,-1.00914 -0.96875,-1.83608 0.31495,-0.55239c-0.15747,-0.28609 -0.31989,-0.57383 -0.47819,-0.85497c-1.25154,-2.22441 -2.27552,-4.04317 0.9168,-1.1625c4.20972,4.38533 3.5081,2.19225 0.43862,-1.84185c1.45436,1.27792 0.95968,0.40811 0.40811,-0.56228c-0.5458,-0.96133 -1.14765,-2.02159 0.03051,-1.19218c2.87161,2.66632 1.85257,0.80303 1.01409,-0.73048c-0.23662,-0.43367 -0.46005,-0.84095 -0.57548,-1.11138c0.5359,0.49963 0.31495,0.05441 0.01896,-0.5425c-0.43037,-0.86981 -1.01986,-2.06034 0.33143,-1.12457c0.37513,-0.0742 0.36524,-0.66205 0.35452,-1.32327c-0.00165,-0.11295 -0.0033,-0.22838 -0.0033,-0.34298c0.13521,0 0.06183,-0.32484 -0.01896,-0.68513c-0.12862,-0.57465 -0.27784,-1.23752 0.36936,-0.8055l2.36869,-10.17472h40.34765l-2.28047,9.99911h-25.17338l-3.4207,14.56005c-1.22186,0.05524 -0.75603,1.51784 -0.49468,2.33736c0.1517,0.47572 0.23415,0.73542 -0.11955,0.38173c2.36786,2.80648 2.45608,2.63169 0.78901,0c0.28279,-0.2259 0.78242,-0.16077 1.36037,-0.08574c0.32072,0.04122 0.66452,0.08574 1.00832,0.08574h17.19174l-2.28047,9.91171h-6.49101c-0.52601,0 -1.22763,0 -1.84185,-0.08822c1.31585,2.45608 0.08739,1.93007 -1.75446,0.08822c-2.36786,-2.10568 -2.10486,-0.70162 -1.57885,0.6134c-1.31585,-0.78901 -2.10486,-1.14023 -2.36786,-0.6134c-1.18228,-1.04625 -1.1155,-0.7247 -1.03305,-0.33143c0.07585,0.36524 0.16572,0.79231 -0.72141,0.24322c-4.99955,-5.43817 -3.77193,-2.63087 -1.40324,0.08822c-1.44364,-1.22186 -1.58709,-0.89702 -1.76435,-0.49385c-0.10306,0.23332 -0.21766,0.49385 -0.60433,0.49385c-1.33481,-0.93412 -2.24996,-1.65305 -2.69435,-2.00098l-0.00165,-0.00165c-0.19705,-0.15417 -0.30011,-0.2358 -0.30588,-0.23003c-0.00577,0.0066 0.10965,0.12037 0.35205,0.36029c0.33803,0.33308 0.9234,0.91186 1.7726,1.78414c0,0.09069 0.04947,0.30505 0.1113,0.58042c0.24074,1.05696 0.68431,3.01012 -0.63731,2.31427c-2.58964,-2.42805 -1.95975,-0.97287 -1.27545,0.60928c0.4279,0.99018 0.87723,2.02901 0.57383,2.1972c-0.98606,-0.87393 -1.97212,-1.82207 -2.77103,-2.59047c-2.32746,-2.23842 -3.06536,-2.94829 2.4198,4.16932c-0.78901,-0.6134 -1.66624,0.78984 -0.3504,1.66707c0.52931,1.01409 0.21601,0.9201 -0.1146,0.82034c-0.32731,-0.09811 -0.67276,-0.20117 -0.23662,0.75851c0.88218,0.91516 0.74202,0.81952 0.33638,0.54332c-0.68266,-0.465 -2.11805,-1.44116 -0.68678,1.03553c1.2639,2.22688 0.71069,2.34725 0.06843,2.48741c-0.29351,0.06348 -0.60516,0.13191 -0.77005,0.40646l-0.61423,2.63169h2.63169c-0.25888,-0.73212 0.30753,-0.47077 1.00255,-0.14923c0.72058,0.33308 1.5805,0.72965 1.80393,0.14923c-0.87723,-1.49063 -3.59631,-6.13979 1.57885,0c0.54744,0.49798 0.728,0.37431 0.97369,0.20612c0.18715,-0.12779 0.41306,-0.28197 0.86816,-0.20612c-1.92925,-3.24509 -0.3504,-2.10486 1.75446,0c4.95256,5.26256 2.99446,2.63252 1.05944,0.03463c-1.90286,-2.55584 -3.78264,-5.07953 0.95803,-0.03463c3.68536,4.152 2.73063,2.6218 1.68933,0.95226c-0.9168,-1.4692 -1.90039,-3.0464 0.15253,-0.95226c2.54512,2.851 2.19472,1.97872 1.79568,0.98524c-0.28856,-0.71811 -0.60186,-1.50053 0.13356,-0.98524c0.11872,-0.43284 0.76593,-0.19457 1.4288,0.04864c0.81457,0.29928 1.65058,0.60681 1.55412,-0.31165c-0.53343,-1.19877 -0.03215,-0.77912 0.51282,-0.32319c0.53178,0.44521 1.10561,0.92505 0.8022,-0.02803c-2.12629,-2.33488 -1.3785,-1.67614 -0.20612,-0.64473c1.29358,1.13859 3.10246,2.73145 2.13619,1.25896c0.43284,-0.19952 0.25888,-1.04377 0.1212,-1.71241c-0.22508,-1.09242 -0.35287,-1.71571 2.42228,1.71241l1.05284,1.14023c-0.15005,-0.12285 -0.30505,-0.25394 -0.45263,-0.38008c-0.80385,-0.68348 -1.42055,-1.20867 -0.1616,0.64308c-0.18386,0.06183 -0.00412,0.48561 0.18056,0.92258zM347.35563,226.85841c0.02803,-0.02803 0.03875,-0.03793 0.04205,-0.03545c0.00247,0.00082 0.00247,0.00577 0.00247,0.01402c0,0.02144 0,0.06596 0.0437,0.10965zM197.7186,230.10433c-2.31427,-2.98704 -1.70499,-1.2705 -1.04047,0.60516c0.11625,0.32731 0.23497,0.6604 0.33885,0.97369c-12.66543,-14.43143 -7.66093,-7.93795 -3.65073,-2.73475c1.766,2.29119 3.33908,4.33256 3.12472,4.22538c-0.17561,0.61423 -0.263,1.05284 -0.35122,1.84185c-3.06948,7.98247 -6.22718,10.08732 -10.96373,10.08732c-6.84141,0 -8.33286,-4.29793 -3.94671,-23.33152v-0.17561c0.31907,0 0.1616,-0.47737 0.00577,-0.94896c-0.27207,-0.82199 -0.53755,-1.6242 1.74786,0.15995c-0.96462,-0.87723 -4.03493,-6.5784 0.17561,-2.45608c5.67232,5.33429 3.33908,2.09167 1.28369,-0.76428c-0.61423,-0.85415 -1.20372,-1.67284 -1.5467,-2.21781c7.16212,7.94124 5.6179,5.65418 1.92925,0.19457c-0.46665,-0.69173 -0.96875,-1.43374 -1.49063,-2.21204c0.85167,0.66534 2.48741,2.27635 3.97722,3.74307c3.41905,3.36794 6.07136,5.97984 -3.2756,-5.32192c-1.65305,-1.85505 -1.42467,-1.6613 -0.75274,-1.08829c1.07593,0.91598 3.28961,2.80236 0.75274,-1.19218c0.03793,-0.68843 0.5425,-0.44356 0.86074,-0.28939c0.41141,0.19952 0.50952,0.24734 -1.12375,-2.0793c7.66752,7.83819 5.51484,5.15703 3.42647,2.55584c-1.13694,-1.41561 -2.25491,-2.80813 -1.76023,-2.46762c-0.96462,-2.10568 -1.05284,-3.85932 1.05284,-2.28047c0.3504,-0.78984 0.78901,-1.40406 1.14023,-2.01746c2.28047,-3.4207 4.99955,-4.47354 8.33286,-4.47354c5.87596,0 7.80603,3.33331 5.26256,16.75312l-0.43862,2.10486c-1.7322,-1.81052 -1.2738,-0.51199 -0.59114,1.42138c0.07832,0.22096 0.15912,0.45016 0.23992,0.68348c-0.06348,0.35122 -0.45181,0.22673 -0.81127,0.1113c-0.62824,-0.20117 -1.16579,-0.37431 0.28526,2.08177c1.14023,0.78984 2.71908,3.1577 0,0.17561c1.95563,2.67127 1.13611,2.33323 0.30505,1.99108c-0.69667,-0.28691 -1.40077,-0.57713 -0.48066,0.90361c0.74861,0.89125 -0.05277,0.34792 -1.06851,-0.3405c-1.48239,-1.00502 -3.4207,-2.31757 -1.65058,0.07668c-0.46088,-0.57548 -0.6472,-0.80633 -0.6538,-0.80138c-0.00495,0.0033 0.09729,0.1484 0.26383,0.38338l0.00082,0.00082c0.93,1.3142 3.8519,5.43982 1.17898,3.57488c0.59774,0.75521 1.14765,1.45023 1.65305,2.08837l0.00082,0.00165c3.36711,4.25012 4.72418,5.96253 4.61948,6.05734c-0.07008,0.06348 -0.80633,-0.6101 -2.0389,-1.73797c-1.09077,-0.9976 -2.57068,-2.35137 -4.32267,-3.86509zM284.29069,244.48876l10.35033,-44.64558h6.9288c8.24547,0 8.8597,8.24547 5.61378,22.27868l-0.08739,0.35122c-3.24592,13.85843 -7.63124,22.01568 -15.87589,22.01568zM237.54024,241.68229l0.263,0.3504c0.17561,-0.17561 0.78984,0.17561 2.28047,1.66707l-2.63087,-3.68453c-0.14098,-0.11048 -0.28197,-0.22425 -0.41718,-0.33391c-1.04295,-0.84508 -1.74704,-1.41561 0.50457,2.00098zM237.01424,244.48876c0.70162,1.05284 1.66624,2.36869 1.14023,0.70162c1.22515,1.15755 0.38997,-0.06266 -0.33308,-1.1188c-0.20777,-0.30423 -0.40729,-0.59444 -0.54415,-0.81045c0.52766,0.90526 -0.61505,-0.10388 -1.58709,-0.96215c-1.28781,-1.13694 -2.2747,-2.00922 1.32409,2.18978zM400.68695,271.10083l0.03133,-3.02331c-0.7346,-0.44109 -1.5434,-0.79808 -2.42475,-1.07098c-0.88135,-0.2729 -1.69015,-0.40893 -2.42475,-0.40893c-0.98661,0 -1.88418,0.14153 -2.6927,0.4246c-0.80798,0.28362 -1.50053,0.68266 -2.07848,1.19712c-0.57713,0.51447 -1.02316,1.13886 -1.33811,1.87318c-0.31495,0.73487 -0.47242,1.54312 -0.47242,2.42475c0,1.11303 0.43532,2.13619 1.30678,3.07031c0.87146,0.93494 2.03148,1.62255 3.48007,2.06281c0.79753,0.23085 1.51647,0.50375 2.1568,0.81869c0.64061,0.31495 1.19135,0.65133 1.65305,1.00832c0.46252,0.35617 0.81952,0.72883 1.07098,1.11715c0.25229,0.38915 0.3776,0.7717 0.3776,1.15013c0,0.9234 -0.36194,1.658 -1.08582,2.20379c-0.7247,0.5458 -1.68521,0.81869 -2.8815,0.81869c-1.02893,0 -2.02571,-0.26218 -2.99198,-0.78736c-0.96572,-0.52436 -1.72148,-1.22763 -2.26728,-2.1098c-0.06266,-0.10471 -0.13109,-0.20941 -0.20447,-0.31495c-0.07338,-0.10471 -0.14181,-0.20941 -0.20447,-0.31412h-0.40976l-0.03133,3.02249c0.7346,0.44109 1.65882,0.79808 2.77103,1.07098c1.11303,0.2729 2.22523,0.40893 3.33826,0.40893c1.0075,0 1.92595,-0.13604 2.75536,-0.40893c0.82941,-0.2729 1.53763,-0.6505 2.12547,-1.13364c0.58812,-0.48314 1.04487,-1.07098 1.37026,-1.76353c0.32484,-0.69255 0.48808,-1.4593 0.48808,-2.29861c0,-1.19712 -0.46252,-2.28871 -1.38593,-3.2756c-0.9234,-0.98606 -2.15185,-1.71076 -3.68453,-2.17246c-1.53268,-0.4617 -2.76031,-1.02893 -3.68453,-1.70087c-0.9234,-0.67194 -1.3851,-1.34305 -1.3851,-2.01499c0,-0.48314 0.08904,-0.93412 0.26713,-1.3546c0.17891,-0.41965 0.42542,-0.78159 0.74037,-1.08582c0.31495,-0.30505 0.6876,-0.5458 1.11797,-0.7247c0.43037,-0.17808 0.89757,-0.26713 1.40159,-0.26713c0.94401,0 1.78909,0.29351 2.5344,0.88135c0.74532,0.58784 1.35954,1.25978 1.84268,2.01582c0.06266,0.10471 0.13109,0.21519 0.20447,0.33061c0.07338,0.11543 0.14181,0.22508 0.20447,0.33061zM147.89538,266.75508h6.10928v0.47242c-0.2729,0 -0.48231,0.04205 -0.62989,0.12532c-0.14675,0.0841 -0.25723,0.32566 -0.33061,0.7247c-0.07338,0.39904 -0.11543,1.01244 -0.12532,1.84185c-0.01072,0.82941 -0.01649,1.97872 -0.01649,3.44874v11.24158h0.37843c1.61595,0 2.89717,-0.01566 3.84201,-0.04699c0.94401,-0.03133 1.68933,-0.11048 2.23512,-0.2358c0.54662,-0.12614 0.9605,-0.31495 1.24412,-0.56723c0.28362,-0.25146 0.57218,-0.59856 0.86651,-1.03883l0.25146,-0.34628c0.0841,0.02061 0.15747,0.04122 0.22013,0.06266c0.12614,0 0.25229,0.02061 0.37843,0.06266c-0.06348,0.39904 -0.13686,0.83436 -0.22096,1.30678c-0.08327,0.47242 -0.15747,0.90856 -0.22013,1.3076h-0.03133l-0.09481,0.47159h-13.85595v-0.47159c0.29433,0 0.51447,-0.04205 0.66122,-0.12614c0.14758,-0.0841 0.25229,-0.32566 0.31495,-0.7247c0.06348,-0.39904 0.09976,-1.01244 0.11048,-1.84185c0.01072,-0.82941 0.01566,-1.97872 0.01566,-3.44874v-5.60471c0,-1.47002 -0.00495,-2.61932 -0.01566,-3.44874c-0.01072,-0.82941 -0.04699,-1.44281 -0.11048,-1.84185c-0.06266,-0.39904 -0.16737,-0.64061 -0.31495,-0.7247c-0.14675,-0.08327 -0.36689,-0.12532 -0.66122,-0.12532zM210.32961,284.98811c0.14675,0.0841 0.35699,0.12614 0.62989,0.12614v0.47159h-6.10928v-0.47159c0.29433,0 0.51447,-0.04205 0.66122,-0.12614c0.14675,-0.0841 0.25229,-0.32566 0.31495,-0.7247c0.06348,-0.39904 0.09976,-1.01244 0.11048,-1.84185c0.01072,-0.82941 0.01566,-1.97872 0.01566,-3.44874v-5.60471c0,-1.47002 -0.00495,-2.61932 -0.01566,-3.44874c-0.01072,-0.82941 -0.04699,-1.44281 -0.11048,-1.84185c-0.06266,-0.39904 -0.16819,-0.64061 -0.31495,-0.7247c-0.14675,-0.08327 -0.36689,-0.12532 -0.66122,-0.12532v-0.47242h6.10928v0.47242c-0.2729,0 -0.48314,0.04205 -0.62989,0.12532c-0.14675,0.0841 -0.25723,0.32566 -0.33061,0.7247c-0.07338,0.39904 -0.11543,1.01244 -0.12614,1.84185c-0.01072,0.82941 -0.01566,1.97872 -0.01566,3.44874v5.60471c0,1.47002 0.00495,2.61932 0.01566,3.44874c0.01072,0.82941 0.05277,1.44281 0.12614,1.84185c0.07338,0.39904 0.18386,0.64061 0.33061,0.7247zM254.27523,267.2275c0.29433,0 0.51447,0.04205 0.66122,0.12532c0.14758,0.0841 0.25229,0.32566 0.31495,0.7247c0.06348,0.39904 0.09976,1.01244 0.11048,1.84185c0.01072,0.82941 0.01566,1.97872 0.01566,3.44874v5.60471c0,1.47002 -0.00495,2.61932 -0.01566,3.44874c-0.01072,0.82941 -0.04699,1.44281 -0.11048,1.84185c-0.06266,0.39904 -0.16737,0.64061 -0.31495,0.7247c-0.14675,0.0841 -0.36689,0.12614 -0.66122,0.12614v0.47159h3.36959v-0.47159c-0.2729,0 -0.48314,-0.04205 -0.62989,-0.12614c-0.14675,-0.0841 -0.25723,-0.32566 -0.33061,-0.7247c-0.07338,-0.39904 -0.11543,-1.01244 -0.12614,-1.84185c-0.00989,-0.82941 -0.01566,-1.97872 -0.01566,-3.44874v-8.88031c2.09991,2.70837 4.18333,5.3953 6.25109,8.06161c2.06776,2.66632 4.14101,5.35352 6.21976,8.06161h1.25896v-12.84763c0,-1.47002 0.00577,-2.61932 0.01649,-3.44874c0.00989,-0.82941 0.05194,-1.44281 0.12532,-1.84185c0.07338,-0.39904 0.18386,-0.64061 0.33061,-0.7247c0.14758,-0.08327 0.35699,-0.12532 0.62989,-0.12532v-0.47242h-3.36959v0.47242c0.29433,0 0.51447,0.04205 0.66205,0.12532c0.14675,0.0841 0.25146,0.32566 0.31412,0.7247c0.06348,0.39904 0.09976,1.01244 0.11048,1.84185c0.01072,0.82941 0.01566,1.97872 0.01566,3.44874v6.70702l-10.26541,-13.32005h-4.56671zM328.85712,275.44658v3.52624c0,1.47002 0.00577,2.61932 0.01649,3.44874c0.00989,0.82941 0.05194,1.44281 0.12532,1.84185c0.07338,0.39904 0.18386,0.64061 0.33061,0.7247c0.14758,0.0841 0.35699,0.12614 0.62989,0.12614v0.47159h-6.07713v-0.47159c0.29351,0 0.51364,-0.04205 0.66122,-0.12614c0.14675,-0.0841 0.25146,-0.32566 0.31495,-0.7247c0.06266,-0.39849 0.09921,-1.01244 0.10965,-1.84185c0.01072,-0.82941 0.01566,-1.97872 0.01566,-3.44874v-5.60471c0,-1.47002 -0.00495,-2.61932 -0.01566,-3.44874c-0.00989,-0.82941 -0.04699,-1.44281 -0.10965,-1.84185c-0.06348,-0.39904 -0.16819,-0.64061 -0.31495,-0.7247c-0.14758,-0.08327 -0.36771,-0.12532 -0.66122,-0.12532v-0.47242h6.07713v0.47242c-0.2729,0 -0.48231,0.04205 -0.62989,0.12532c-0.14675,0.0841 -0.25723,0.32566 -0.33061,0.7247c-0.07338,0.39904 -0.11543,1.01244 -0.12532,1.84185c-0.01072,0.82941 -0.01649,1.97872 -0.01649,3.44874zM330.02291,277.21011c-0.44081,-0.65133 -0.82941,-1.23917 -1.16579,-1.76353l2.61438,-2.86584l1.29111,-1.38593c0.8393,-0.9234 1.49558,-1.6481 1.968,-2.17246c0.47242,-0.52518 0.81375,-0.92422 1.02316,-1.19712c0.21024,-0.2729 0.31,-0.44026 0.29928,-0.50375c-0.01072,-0.06266 -0.07832,-0.09399 -0.20447,-0.09399h-0.09481v-0.47242h3.08597v0.47242h-0.1888c-0.20941,0 -0.4246,0.04699 -0.64556,0.14098c-0.22013,0.09481 -0.5458,0.3471 -0.97617,0.75603c-0.43037,0.40976 -1.02893,1.02316 -1.79486,1.84268c-0.76593,0.81869 -1.79981,1.95233 -3.10164,3.40092l-0.09481,0.09399c0.35699,0.52518 0.85579,1.25978 1.49558,2.20462c0.64061,0.94484 1.38098,2.04715 2.22028,3.3061c0.7346,1.11303 1.39664,2.05209 1.98449,2.81884c0.58784,0.76593 1.12292,1.38593 1.60606,1.85752c0.48231,0.47242 0.93907,0.81375 1.36944,1.02399c0.43037,0.20941 0.85579,0.31495 1.27545,0.31495v0.75521h-1.32244c-0.88218,0 -1.67943,-0.07338 -2.39342,-0.22013c-0.71399,-0.14675 -1.37521,-0.3776 -1.98366,-0.69255c-0.60928,-0.31495 -1.16579,-0.71893 -1.66954,-1.21279c-0.50375,-0.49303 -0.99678,-1.08582 -1.47991,-1.77919c-0.65078,-0.96572 -1.23862,-1.84213 -1.76353,-2.62922c-0.52436,-0.78736 -0.97617,-1.45353 -1.35377,-1.99933z" data-paper-data="{&quot;isBaseLogoContainer&quot;:true}" id="element-id-36810"/>
      </g>
    </g>
  </g>
  <rect data-element-id="element-id-5413" stroke-width="2" fill="transparent" class="invisible-element-box grouping-element" x="65" y="147" width="420" height="176" data-element-name="isContainerElementsWrapper"/>
  <rect data-element-id="element-id-33846" stroke-width="2" fill="transparent" class="invisible-element-box individual-element" x="65" y="147" width="420" height="176"/>
  <rect data-element-id="element-id-36810" stroke-width="2" fill="transparent" class="invisible-element-box individual-element" x="72" y="154" width="406" height="162"/>
</svg>