<svg xmlns:mydata="http://www.w3.org/2000/svg" mydata:contrastcolor="85714D" mydata:template="Contrast" mydata:presentation="2.5" mydata:layouttype="undefined" mydata:specialfontid="undefined" mydata:id1="570" mydata:id2="588" mydata:companyname="Golden links" mydata:companytagline="" version="1.1" xmlns="http://www.w3.org/2000/svg" xmlns:xlink="http://www.w3.org/1999/xlink" viewBox="0 0 550 470" style="height: 675px;"><g fill="#101820" fill-rule="evenodd" stroke="none" stroke-width="1" stroke-linecap="butt" stroke-linejoin="miter" stroke-miterlimit="10" stroke-dasharray="" stroke-dashoffset="0" font-family="none" font-weight="none" font-size="none" text-anchor="none" style="mix-blend-mode: normal"><g data-paper-data="{&quot;isGlobalGroup&quot;:true,&quot;bounds&quot;:{&quot;x&quot;:64.99999999999997,&quot;y&quot;:151.22568346434926,&quot;width&quot;:420,&quot;height&quot;:167.54863307130145}}"><g data-paper-data="{&quot;isContainerElementsWrapper&quot;:true}" id="element-id-53273"><path d="M65,314.50647c0,2.35756 1.9108,4.26784 4.26784,4.26784h411.46432c2.3567,0 4.26784,-1.91029 4.26784,-4.26784v-159.01295c0,-2.35756 -1.91114,-4.26784 -4.26784,-4.26784h-411.46432c-2.35704,0 -4.26784,1.91029 -4.26784,4.26784zM143.42244,247.59525c-1.27267,-0.48824 -2.35243,-0.90222 -0.0111,3.3127c-1.57825,-1.48009 -1.22743,-0.65469 -0.78102,0.39349c0.37557,0.88088 0.81686,1.91797 0.23644,1.877c0.19973,0.75797 -0.23217,0.62225 -0.61628,0.50104c-0.49166,-0.1545 -0.90649,-0.28595 0.16218,1.49631c-1.95382,-2.04259 -1.69263,-1.30596 -1.37254,-0.40118c0.33545,0.94405 0.73492,2.07161 -1.26072,0.40118c-0.24412,0.56933 -1.07123,0.19205 -1.82834,-0.1545c-0.08792,-0.04012 -0.17498,-0.08024 -0.26034,-0.11779c-0.20656,-0.36191 -0.45068,-0.7537 -0.67859,-1.11988c-0.57274,-0.92015 -1.04733,-1.68238 -0.59238,-1.4229c0.36277,-0.18181 0.18096,-1.54325 -0.4541,-2.63326c-3.54145,-2.08868 -3.99555,-2.08868 -1.81639,1.27096c-0.04439,0.61713 -0.64274,0.52836 -1.17622,0.45068c-0.56592,-0.08365 -1.05842,-0.1562 -0.73065,0.63932c-3.45098,-2.90555 -3.08736,-0.99867 -1.90687,1.09001c-1.69604,-1.07976 -1.82151,-0.45751 -1.98711,0.36703c-0.02987,0.14596 -0.0606,0.29875 -0.10157,0.44983c-2.16892,-1.70031 -2.14331,-0.71273 -2.12112,0.12718c0.01195,0.46093 0.02305,0.87747 -0.33118,0.78102c-0.35585,0.06487 -0.46955,0.42934 -0.57548,0.76992c-0.19111,0.61286 -0.35679,1.14464 -1.87597,-0.31582c-5.46378,-5.46369 -4.06307,-2.8108 -3.09282,-0.97221c0.33588,0.63591 0.6202,1.17451 0.55012,1.2445c-0.0985,-0.08109 -0.19649,-0.16218 -0.29371,-0.24156c-2.95036,-2.43267 -5.24074,-4.32076 -2.33972,0.51385c3.16853,4.31479 0.23106,1.77286 -1.26977,0.47373c-0.52085,-0.45068 -0.86834,-0.75114 -0.72801,-0.56421c-7.26472,-6.99243 -7.08308,-6.35652 -1.7254,-0.18181c3.99564,4.17736 9.80733,13.25848 -1.6345,-0.09048c-5.99342,-5.99376 -7.26472,-7.08291 -1.81622,-0.18181c-1.81614,-1.72506 -5.72087,-4.90375 -2.72425,-0.63591c0,0.16218 -1.21412,-0.92441 -2.49174,-2.0682c-2.30173,-2.06051 -4.80678,-4.30284 -0.77734,0.25266c0,-0.0606 0,-0.09048 0.0099,-0.09475c0.00999,-0.00341 0.03022,0.02049 0.07085,0.06743c0.04037,0.04695 0.10089,0.11779 0.19171,0.20827l0.09082,0.09133l0.45401,0.63505l-0.36328,-0.54458c0.81729,1.18048 2.63351,3.99555 -1.81614,-0.54458c-1.18689,-1.31876 -1.78387,-2.0093 -2.05138,-2.31915c-0.13119,-0.15194 -0.18318,-0.21168 -0.18642,-0.20912c-0.00222,0.00171 0.01647,0.02987 0.04729,0.07767c0.15654,0.239 0.62771,0.95941 0.28356,1.0883c-0.36328,-0.36362 -0.81729,-0.72639 -0.99893,-1.27096c1.31834,1.05416 1.19064,0.91844 -1.28855,-1.72592l-0.25522,-0.27229c-1.6345,-1.45277 -2.63343,-3.72327 -0.99885,-1.81639c-0.50147,-0.69822 -0.81576,-1.125 -0.99996,-1.3751c-0.16943,-0.22961 -0.22876,-0.30985 -0.22244,-0.31582c0.00333,-0.00256 0.02569,0.01622 0.06035,0.04524c0.18488,0.15535 0.71657,0.60347 0.5264,-0.443c-1.01908,-1.29316 -0.31258,-0.81004 0.41816,-0.3107c0.96231,0.6581 1.96645,1.34437 -0.87226,-1.95894c-1.92428,-2.88677 -1.4357,-2.75703 -0.69745,-2.56156c0.16747,0.04524 0.34791,0.09304 0.5159,0.10926c-0.04498,-0.35935 -0.02313,-0.78699 -0.0006,-1.22487c0.02288,-0.44642 0.04635,-0.90564 0.0006,-1.31791c0.09082,-4.44965 1.08967,-9.53436 2.36097,-14.98268l0.18164,-0.63591c0.99893,-4.35917 2.0886,-8.53568 3.26908,-12.25895c0.36328,-0.9082 0.63565,-1.72592 0.99893,-2.72459c0.18164,-1.3623 0.27246,-2.08868 1.2713,-2.54278c1.71781,1.07379 1.49989,0.1801 1.25961,-0.80577c-0.16619,-0.68115 -0.34305,-1.40668 0.10251,-1.5552c0.0991,0.01451 0.20264,0.03073 0.30839,0.04695c1.25125,0.19803 2.81917,0.44642 1.14455,-2.31744c0.26819,-0.36874 0.06607,-1.2078 -0.11293,-1.9504c-0.30575,-1.26926 -0.54372,-2.25683 1.74751,-0.13742c-1.01276,-1.97942 0.26145,-1.32218 1.35017,-0.76053c1.05894,0.54628 1.94221,1.00209 0.37514,-1.1472c-4.8481,-6.71246 -2.34475,-4.90972 0.31454,-2.99517c0.57838,0.41654 1.16418,0.83906 1.68324,1.17963c1.67598,0.71785 1.81324,-0.14169 1.92019,-0.81174c0.05523,-0.3457 0.10243,-0.64103 0.35005,-0.64103c-1.40284,-2.27391 -0.07426,-1.55862 1.17178,-0.88771c1.09316,0.58896 2.12282,1.14378 1.18928,-0.38411c1.99778,1.3623 5.63014,3.08736 2.81507,-1.09001c3.17826,2.27049 3.90473,1.27182 2.9058,-0.81686c2.99713,1.54411 4.2681,1.99735 3.08761,-0.72639c0.39008,0.20656 0.84503,0.51214 1.26926,0.79723c1.25304,0.84247 2.24318,1.50826 0.54714,-1.06952c0.53689,0.0717 1.14549,0.41142 1.59532,0.66408c0.69054,0.38581 1.00892,0.56421 0.12974,-0.75541c-0.04268,-0.14511 -0.0828,-0.28082 -0.12035,-0.40715c-0.22022,-0.7426 -0.3457,-1.16427 -0.22363,-1.25475c0.15962,-0.11865 0.74687,0.33545 2.10661,1.38876c0.07597,0.0589 0.1545,0.12035 0.23558,0.18266c0.18522,-0.1545 0.02305,-0.69993 -0.12121,-1.18305c-0.27826,-0.9321 -0.48568,-1.62946 2.02808,1.18305c0.79126,0.71188 0.75455,0.37301 0.71017,-0.04951c-0.05804,-0.54628 -0.13145,-1.2317 1.55947,0.04951c3.61145,3.76168 2.98407,2.34987 2.35329,0.92954c-0.1306,-0.29448 -0.26205,-0.58982 -0.35508,-0.83906c2.17916,1.9982 4.08603,3.63279 1.90687,0.18181c0.12633,-0.03158 0.717,0.478 1.30511,0.98502c1.09854,0.94831 2.19026,1.8898 0.239,-0.71273c-0.27314,-0.18181 -1.27182,-2.17916 1.72506,0.54543c2.08868,1.99735 3.54145,2.36097 1.3623,0.36277c0.77419,0.30985 0.50787,-0.40459 0.31497,-0.92441c-0.26034,-0.69822 -0.39008,-1.04477 2.31829,1.92309c0.54458,0.99953 1.90687,2.36097 2.72459,2.99688c0.17327,0.21168 0.37813,0.46178 0.60262,0.73578l0.00085,0.00085c1.89834,2.31146 5.22981,6.36847 3.11894,4.2576c-0.69907,-0.4191 -1.42546,-1.00294 -1.94784,-1.42375c-1.17366,-0.94405 -1.32559,-1.06611 2.12965,3.33148c0.02219,0.15194 0.04865,0.30387 0.07597,0.45751c0.08621,0.48739 0.17498,0.98758 0.10584,1.53984c-0.09048,1.90687 -0.36362,3.90508 -0.63591,5.53966l-14.98354,2.08868v-0.09133c1.45363,-7.3552 0.4541,-11.62304 -7.62749,-11.62304c-7.628,0 -11.62364,4.90375 -15.89165,23.51922l-0.18155,0.63591c-4.26801,18.52499 -1.81622,23.51922 6.62898,23.51922c6.71963,0 11.35109,-5.35785 12.53158,-7.44653l2.27049,-9.71617h-11.80536l2.27015,-9.71702h23.97332l-6.81062,29.24069c-0.204,-0.06402 -0.41739,-0.14596 -0.62481,-0.22534zM150.67607,193.15381c-0.27229,0 -0.27229,-0.09048 -0.45324,-0.18181c-0.72724,-0.9082 -0.81772,-1.08915 0.45324,0.18181zM150.67607,193.15381c0.27314,0.09048 0.18181,-0.27229 -1.18048,-1.90687c-4.72194,-5.44833 3.99555,3.90422 1.63458,1.54325c0.18181,0.27314 0.18181,0.36362 0.18181,0.4541c0.18181,0.18181 0.63591,0.4541 0.9082,1.09001c0.18181,-0.18181 4.17736,4.99423 1.18048,1.81639c-1.3623,-1.45334 -2.27049,-2.4523 -2.72459,-2.99688zM100.73174,250.09109c-0.09082,0 -0.27237,-0.09133 -0.45401,-0.18181l-1.18048,-1.45277c0.45401,0.54458 0.90803,1.08915 1.6345,1.63458zM137.69073,254.90351c0.72639,1.18048 0.99867,1.9982 -0.63591,0.27229c-0.90734,-1.08915 -0.18096,-0.81686 0.63591,-0.27229zM209.06611,235.10755c2.11002,2.01101 1.64824,1.18646 1.04989,0.11779c-0.50873,-0.9099 -1.11647,-1.99564 -0.3235,-1.6619c-0.45751,-1.00636 -0.03841,-0.88344 0.34996,-0.76907c0.3824,0.11267 0.73578,0.21681 0.19547,-0.77419c0.11694,-0.14767 0.39606,-0.08536 0.66152,-0.02561c0.55482,0.12291 1.04989,0.23388 -0.11694,-1.60898c0.83223,0.55397 0.58128,-0.04439 0.31497,-0.68115c-0.25692,-0.61457 -0.52921,-1.26584 0.13913,-0.95344c0.27229,-0.63591 0.36277,-1.27182 0.54458,-1.81639c0.4541,-1.72506 0.99867,-3.63279 1.45277,-5.63014l0.09133,-0.27229c5.26652,-23.15646 1.08915,-34.41673 -17.79861,-34.41673c-8.4452,0 -14.89221,2.17916 -19.97777,6.72014c-0.9082,0.63505 -1.3623,1.18048 -1.9982,1.81554c-0.39435,-0.0606 0.85271,1.86505 2.16123,3.88374c2.60765,4.02628 5.45686,8.42557 -3.97677,-1.79505c-3.42793,-2.80824 -0.41398,0.97563 2.25171,4.32247c3.19661,4.01262 5.89218,7.39617 -3.61401,-1.9615c15.98563,18.54377 8.62531,10.90604 3.35964,5.44235c-1.46472,-1.51935 -2.76727,-2.8714 -3.35964,-3.44415c0.41313,0.70761 0.76138,1.29998 1.04989,1.78993c0.83991,1.42717 1.17195,1.99137 1.12415,2.02552c-0.03073,0.02219 -0.22449,-0.18266 -0.54628,-0.52324c-0.68456,-0.72553 -1.94955,-2.06393 -3.44415,-3.1104c-3.39037,-3.65498 -2.4045,-1.86505 -1.21292,0.29619c1.26499,2.2961 2.76215,5.0113 -0.51214,2.06478l-0.08194,-0.06572c-2.64435,-2.11514 -2.71264,-2.16977 -0.64444,1.24621c-0.09133,0.54458 -0.18181,1.18048 -0.09133,1.99735l-0.63505,1.54411c-1.54411,3.63193 -2.63411,7.71882 -3.63279,12.16847l-0.09048,0.27229c-5.44918,23.33741 -0.99953,34.68902 17.88908,34.68902c10.44255,0 18.07089,-3.63279 23.6097,-10.62522c0.63591,-0.72639 1.09001,-1.36144 1.54411,-2.17916c1.18048,0.09133 1.81639,-0.72639 1.54411,-2.54278c-0.27997,-0.95941 0.33801,-0.88003 0.95514,-0.8015c0.78358,0.10072 1.56459,0.20144 0.49763,-1.83176c-0.44898,-1.15915 0.42593,-0.68627 1.30681,-0.21083c1.25816,0.67944 2.52912,1.36571 -0.03585,-2.69472zM400.04008,255.60087c0.00256,-0.00512 0.00512,-0.00939 0.00597,-0.01366c0.00768,-0.03073 -0.03585,-0.07426 -0.37301,-0.41142c-3.03017,-3.62596 -2.38402,-3.18808 -1.32901,-2.47279c0.71529,0.48483 1.61922,1.09684 1.69263,0.65639c0.05719,-0.14169 0.36362,-0.02561 0.69651,0.10072c0.72895,0.27656 1.58337,0.60091 0.21168,-1.64397c2.99688,2.99688 4.81242,4.81242 0.36277,-1.3623c-2.72374,-3.72327 -3.72241,-5.53966 -0.09048,-1.99735c-0.56079,-0.84162 -0.23132,-0.84076 0.1084,-0.83991c0.32094,0 0.65127,0.00085 0.25522,-0.70419c0.31753,-0.07938 0.13145,-0.48909 -0.04951,-0.88686c-0.23217,-0.51129 -0.45581,-1.00294 0.41227,-0.74773c0.01366,0 0.19888,0.1801 0.47885,0.45154c1.56118,1.51594 6.06034,5.88279 -0.02475,-2.35841c-1.55776,-1.83688 -0.89966,-1.72933 -0.23985,-1.62093c0.41739,0.06743 0.83479,0.13572 0.69395,-0.28595c0.72639,0.99867 3.54145,1.90687 0.36362,-1.90687c-0.05548,-0.19291 0.33972,0.0478 0.80406,0.33118c1.06696,0.65042 2.49754,1.52277 -0.35082,-2.14758c-0.56848,-2.0332 -0.40971,-2.02722 0.21681,-2.00332c0.07255,0.00256 0.15194,0.00512 0.23729,0.00512c-2.30634,-3.16418 -1.44424,-2.62216 -0.52068,-2.04088c0.64018,0.40288 1.30937,0.82369 0.97478,0.04353c0.07341,0.0239 -0.05036,-0.25948 -0.21851,-0.647c-0.45922,-1.05501 -1.25304,-2.87823 0.67261,-1.3512c2.9064,2.18001 2.63326,1.18048 0.54543,-2.08868c0.16815,-0.10072 -0.08706,-0.76138 -0.34143,-1.42034c-0.43276,-1.12074 -0.86296,-2.2355 0.79553,-0.57701c-0.07426,-0.48141 0.28936,-0.40374 0.61713,-0.3346c0.47544,0.10072 0.87491,0.18608 -0.25436,-1.48179c-2.04259,-2.7041 -1.13183,-2.22184 -0.28765,-1.77371c0.54458,0.28851 1.06184,0.56336 0.74175,-0.04268c1.32901,1.27865 0.96026,0.3696 0.57872,-0.57189c-0.29619,-0.73151 -0.60091,-1.48179 -0.12462,-1.24365c0.0606,0.01622 0.1195,0.03329 0.17669,0.04865c0.88174,0.24753 1.29486,0.36362 0.18608,-1.68324c0.57445,0.10414 0.45837,-0.36106 0.34228,-0.82796c-0.08536,-0.34484 -0.17157,-0.69054 0.02134,-0.80662c-0.95002,-2.04686 -0.31155,-2.26964 0.25778,-2.46767c0.13742,-0.04865 0.27143,-0.09475 0.37813,-0.16559c1.18048,0.36277 0.63505,-1.72592 0.4541,-2.18001c-2.36182,-4.15261 0.60689,-1.7336 0.59067,-1.71397c-0.00171,0.00256 -0.04268,-0.02731 -0.13657,-0.10157c0.67688,0.62481 0.60689,0.682 0.47544,0.7887c-0.09731,0.07938 -0.22876,0.18608 -0.11267,0.57274c1.18048,1.72592 0.9082,1.9982 0.54458,1.81639c0,0.23985 0.20742,0.67347 0.41142,1.1011c0.33631,0.7059 0.66493,1.39558 0.04268,1.16939c0.36362,0.81686 0.54543,1.72506 0.72724,2.54278l9.08026,34.86997h18.07089l15.43764,-67.01621h-15.8004l-9.8075,42.68012l-11.26027,-42.68012h-7.17424c0.23644,0.70675 -0.25522,0.49592 -0.80235,0.26119c-0.29619,-0.12718 -0.60859,-0.26119 -0.83223,-0.26119c0.04012,0.31667 -0.47288,0.06316 -0.99611,-0.19461c-0.67688,-0.33375 -1.37168,-0.67603 -0.91076,0.19461c-1.65336,-1.27182 -1.52533,-0.54031 -1.45619,-0.1434c0.02987,0.17071 0.04865,0.27912 -0.08706,0.1434c1.47753,2.82104 -0.22449,1.71653 -1.68921,0.76736c-0.5147,-0.3346 -1.00038,-0.64957 -1.30767,-0.76736c-0.75455,-0.16389 -1.5919,-0.58896 -2.2594,-0.92783c-1.18134,-0.59835 -1.83176,-0.92868 -0.55567,0.92783c0.50958,0.53689 0.39349,0.43873 0.06487,0.16303c-0.78272,-0.65554 -2.76812,-2.31915 -0.33716,1.19841c0.21425,0.72895 0.04439,0.68883 -0.14767,0.64359c-0.21425,-0.04951 -0.45581,-0.1067 -0.21595,0.90051c0.8971,1.32388 0.40801,1.12159 -0.16303,0.88515c-0.64359,-0.26631 -1.39217,-0.57616 -0.38155,1.20353c-0.21254,0.07085 -0.10755,0.52751 0.00768,1.03196c0.18181,0.78955 0.38923,1.69689 -0.55226,1.41948c-0.2151,0.04353 -0.16559,0.51129 -0.12121,0.93636c0.04951,0.47458 0.09304,0.89539 -0.24241,0.60774c-0.99867,-0.72639 -1.45277,-0.36362 -0.27229,1.45277c-0.04097,0.03073 -0.08024,0.05719 -0.11779,0.08365c-0.30046,0.20571 -0.49763,0.34057 -0.33631,1.55093c-2.11258,-2.05369 -1.34352,-0.54372 -0.73065,0.65981c0.33545,0.65895 0.62481,1.22658 0.36703,1.06525c-0.60603,-0.21595 -0.26205,0.51726 0.04609,1.17622c0.33887,0.72297 0.63591,1.35717 -0.40886,0.5497c0.24839,0.55909 0.51129,1.0755 0.73407,1.51423c0.75455,1.48436 1.05501,2.07502 -1.18817,0.39264c-0.70505,-0.50361 -0.57189,0.05463 -0.42252,0.68285c0.12035,0.50361 0.25095,1.05245 -0.03158,1.13354c-0.04182,-0.01792 -0.08365,-0.035 -0.12547,-0.05292c-1.04391,-0.43788 -1.98711,-0.83479 -0.32862,1.95979c-2.72459,-1.90687 -1.9982,-0.36362 -0.4541,1.99735c-2.72459,-2.36097 -2.27049,-1.27096 -0.4541,1.9982c0.51299,0.82028 0.00939,0.44386 -0.60518,-0.01451c-1.01831,-0.76053 -2.34048,-1.74811 0.15108,2.10319c2.54278,3.81289 1.18817,2.92091 0.14681,2.2355c-0.59494,-0.39264 -1.08745,-0.717 -0.69139,-0.05634c-1.72506,-2.08868 -2.90555,-1.72506 -0.4541,2.08868c3.78899,4.95496 3.42452,4.67073 2.10063,3.64047c-0.73834,-0.57531 -1.77457,-1.38278 -2.55473,-1.64312c-1.3623,-0.81686 -2.08868,-0.36277 -0.4541,2.08868c-1.28291,-1.15829 -0.717,-0.14767 -0.0828,0.98587c0.75797,1.35291 1.61324,2.88165 -0.46178,1.10281c-0.10414,0.3474 0.3346,1.22402 0.71529,1.98284c0.61457,1.22828 1.0755,2.14758 -1.16939,0.01536c2.22525,3.51926 0.85271,2.40792 -0.21937,1.53984c-0.80833,-0.65469 -1.44594,-1.17024 -0.23473,0.54884c-1.70884,-1.46472 -1.16085,-0.43617 -0.58469,0.64444c0.49592,0.93039 1.01233,1.89919 0.1306,1.35291c-0.68285,-0.04524 -0.33887,0.7537 -0.05463,1.41351c0.28253,0.65554 0.50617,1.1728 -0.39947,0.58469c-2.69045,-2.63923 -1.60727,-0.82625 -0.66493,0.75199c0.71188,1.19158 1.34352,2.2483 0.21083,1.15488c-0.0956,0.28765 -0.28253,0.41825 -0.44727,0.53348c-0.30387,0.21168 -0.53604,0.37386 -0.00683,1.37339c-0.72041,-0.25436 -0.0956,0.73748 0.47117,1.63714c0.647,1.0277 1.21804,1.93419 -0.37984,0.72383c0.06316,0.35935 0.16559,0.73407 0.25778,1.06781c0.30216,1.10025 0.48483,1.76347 -1.25731,0.02219c0.03841,0.4191 -0.30728,0.37472 -0.60689,0.33545c-0.41483,-0.05292 -0.74346,-0.0956 0.15279,1.11732c0.02817,0.16474 -0.18522,0.12974 -0.43617,0.08962c-0.57787,-0.09304 -1.35632,-0.21937 0.16389,1.99906c-0.12462,0.20742 0.09304,0.69993 0.31326,1.20012c0.26205,0.59238 0.52751,1.19414 0.23132,1.34266c2.36182,3.45012 2.18001,4.35832 -0.81686,0.72639c1.01148,2.29183 0.42081,2.23208 -0.28424,2.16038c-0.24497,-0.02561 -0.50446,-0.05121 -0.71444,0.01878c-1.56459,-0.9688 -1.1122,0.26375 -0.69822,1.38961c0.09048,0.24583 0.1784,0.48739 0.24412,0.69907l-0.63591,2.90555h4.08689c-2.1877,-3.12406 -1.21633,-2.35158 0.94746,-0.62993c0.35167,0.27997 0.73492,0.58555 1.14037,0.90222c-0.67347,-1.39985 0.07341,-1.05245 0.68712,-0.76821c0.46007,0.21425 0.84418,0.39264 0.49336,-0.23046c-0.73407,-0.99441 0.03244,-0.44471 0.93124,0.19717c0.98843,0.70761 2.13477,1.52874 1.61154,0.52921c2.56497,2.56497 2.20306,1.33754 1.93163,0.41825c-0.04609,-0.1545 -0.08877,-0.30046 -0.11523,-0.41825c-1.61239,-2.50181 0.21339,-0.81601 1.51764,0.38752c0.8254,0.76138 1.44168,1.33071 0.84333,0.52068c-1.60556,-2.22781 -0.7887,-1.55862 0.02475,-0.89369c0.61201,0.50019 1.22146,0.99953 0.79296,0.25778c2.99602,2.99688 3.63193,3.3605 1.63458,0.99953c-0.4302,-0.717 -0.3824,-0.80491 -0.36021,-0.84674zM290.06719,255.8117c2.3328,1.81469 2.19965,1.65592 0.5386,-0.31923c-0.0845,-0.10072 -0.17327,-0.20656 -0.26546,-0.31667c0.01536,0 0.3952,0.36447 0.95941,0.90478c2.68191,2.57095 9.51729,9.12208 1.03794,-0.63249c0.24327,-0.13828 -0.204,-0.9816 -0.58043,-1.69007c-0.60774,-1.14464 -1.0294,-1.93931 1.94272,1.14549c-2.53254,-3.98787 -1.93077,-3.43049 -0.44215,-2.05027c0.64615,0.5992 1.46046,1.35461 2.25854,1.95979c1.36144,1.27096 4.44965,2.72374 1.81554,-0.27229c-1.65678,-1.89492 -0.67261,-1.44253 0.59835,-0.8604c1.16597,0.53519 2.57265,1.18048 2.39853,0.22449c0.23046,-0.14425 -0.31497,-1.27352 -0.87832,-2.44035c-1.21292,-2.51205 -2.50864,-5.19482 3.69339,1.44168c-3.04809,-4.68524 -0.72809,-3.08992 1.11561,-1.82237c1.12244,0.77163 2.06734,1.42204 1.51764,0.46007c2.81507,2.26964 5.63014,3.35964 2.4523,-1.45277c0.54458,0.22278 1.27865,0.73578 1.96918,1.2189c1.84285,1.28889 3.38013,2.36353 0.20998,-2.85348c-4.26784,-4.90375 -2.45145,-5.26737 1.9982,-1.90773c1.54325,0.4541 2.17916,0 1.63458,-1.99735c0.72639,-0.81772 1.18048,-1.3623 1.63458,-2.17916c2.26964,-3.08736 3.72241,-6.35652 5.17604,-9.71702l0.90734,-2.72374c1.54411,0.54458 1.63458,-0.4541 0.72724,-2.54278c1.80359,1.01062 1.54325,-0.04439 1.17792,-1.52277c-0.09475,-0.38155 -0.19547,-0.79126 -0.27058,-1.20182c0.9688,0.74517 0.33289,-0.34313 -0.37728,-1.55947c-1.02257,-1.75067 -2.2005,-3.7685 1.01319,-0.98331c-1.16341,-1.07037 -0.84759,-0.90051 -0.38581,-0.65127c0.43873,0.23644 1.00977,0.54458 0.56762,-0.07511c2.99688,2.54278 2.63326,1.09001 0.54458,-2.54278c1.52362,1.03623 1.08403,-0.17669 0.68542,-1.27865c-0.19547,-0.54031 -0.38155,-1.05416 -0.3218,-1.26328c-0.08109,-0.48483 0.0717,-0.78955 0.2262,-1.09854c0.19291,-0.38581 0.38923,-0.77845 0.13657,-1.53557c0.98672,0.6581 0.73407,-0.02049 0.42337,-0.85442c-0.28936,-0.77845 -0.62993,-1.69092 -0.05975,-1.77884c0.8843,0.34057 0.239,-1.51252 -0.02475,-2.27135c-0.08877,-0.25351 -0.13401,-0.38496 -0.06658,-0.27143c2.98066,2.71435 1.53216,0.37557 0.40715,-1.43997c-0.79467,-1.28291 -1.42802,-2.30549 -0.22534,-1.10281c-5.97156,-6.59382 -4.14493,-5.17604 -2.22696,-3.68742c0.88174,0.68456 1.7831,1.38363 1.95467,1.32645c-3.75229,-5.90755 -1.53813,-3.46293 -0.70163,-2.53851c0.11523,0.12633 0.204,0.22449 0.24753,0.26887c-2.99688,-3.99555 -2.63326,-4.26784 -0.72639,-2.18001c-1.90687,-2.45145 -3.72327,-4.99423 -4.35917,-6.08338c0.81772,0.99867 1.45363,1.45277 0.99953,0.90734c0.72639,0.63591 1.54325,1.54411 2.72374,2.9064c-0.15194,-0.30472 -0.28851,-0.51385 -0.37557,-0.647c-0.12035,-0.18437 -0.14596,-0.22278 0.0128,-0.17071c0,-0.035 -0.04097,-0.05634 -0.08536,-0.08024c-0.07085,-0.03756 -0.15194,-0.08024 -0.09645,-0.19205l-0.54458,-0.63591c0.18096,-0.09048 -0.4541,-0.99867 -1.27182,-1.54325c-0.10499,-0.12633 -0.20571,-0.24839 -0.29021,-0.34996c-0.27826,-0.33716 -0.37898,-0.45922 0.10926,0.16815l0.18096,0.18181c0.4541,0.4541 0.9082,0.99867 1.27182,1.54325c-0.09133,0 -0.99953,-0.81686 -3.17869,-3.26831c0.81772,1.08915 1.3623,1.63373 1.54411,2.08783c-1.45277,-1.63458 -1.63458,-1.63458 -0.99953,-0.90734c-0.90734,-0.72724 -1.90687,-1.72592 -2.54193,-2.36182c0.40118,0.45922 -0.13999,0.15706 -0.93722,-0.28851c-0.46349,-0.25948 -1.01404,-0.56677 -1.51508,-0.80065c-2.39938,-2.54961 -2.18428,-1.90687 -1.93077,-1.1472c0.20742,0.62054 0.44044,1.31876 -0.70249,0.42081c-0.25095,0.20912 -1.07976,-0.46776 -1.67897,-0.9577c-0.70249,-0.5736 -1.08915,-0.88942 0.13486,0.77589c-0.99953,-1.16597 -0.8143,-0.70846 -0.59323,-0.16047c0.26119,0.647 0.5736,1.41948 -0.95002,-0.20315c4.54013,5.35785 0.18181,1.63458 -1.81639,-0.09048c1.54411,2.08868 5.35785,7.26472 -1.81639,0c-1.13439,-1.40156 -1.38619,-1.08659 -1.80018,-0.56848c-0.14937,0.18693 -0.32009,0.40032 -0.56079,0.56848l-0.07511,-0.05036c-1.61154,-1.07464 -3.276,-2.18513 -2.73995,0.05036c-1.25304,-1.10879 -1.09854,-0.60518 -0.95002,-0.1195c0.13145,0.42934 0.25863,0.84333 -0.59323,0.1195c-0.07767,-0.01963 -0.23388,-0.08792 -0.42337,-0.17242c-0.70249,-0.30985 -1.87358,-0.82796 -1.30255,0.17242c1.19585,1.65592 0.29533,0.95856 -0.67261,0.20912c-0.94319,-0.7298 -1.94955,-1.50826 -1.14293,-0.20912c-1.15829,-1.31535 -1.18731,-0.89283 -1.21975,-0.42849c-0.02305,0.33716 -0.0478,0.69566 -0.50617,0.42849c0.24583,0.53946 -0.06572,0.41654 -0.53177,0.23302c-0.39776,-0.15706 -0.9082,-0.3585 -1.28377,-0.23302c-0.88686,-0.68456 -0.48568,0.1323 -0.1306,0.85613c0.44556,0.90734 0.81943,1.66958 -1.50399,-0.85613c-1.90773,-1.3623 -2.08868,-1.27096 -1.81639,0c0.03926,0.31497 -0.33033,0.10072 -0.73322,-0.13145c-0.5258,-0.30387 -1.10708,-0.64018 -0.90137,0.13145c-0.36789,0.42849 -1.06525,0.27912 -1.73189,0.13657c-0.3218,-0.06914 -0.63591,-0.13657 -0.90137,-0.13657h-2.4523l-0.72639,2.90555c-0.02731,0.16389 0.239,0.70932 0.53007,1.30681c0.68029,1.39644 1.49716,3.07199 -0.98416,0.78187c-0.99867,-0.27229 -0.9082,0.9082 -0.54458,2.4523c-0.63591,-0.09133 -0.63591,0.9082 -0.36362,1.45277c-0.38581,0.23217 -0.37813,0.66152 -0.36703,1.2317c0.00171,0.09987 0.00427,0.204 0.00427,0.31241c-0.05548,0.13742 -0.17754,0.19205 -0.30131,0.24583c-0.28168,0.12462 -0.56762,0.25095 -0.06231,1.38876c-0.99867,-0.63591 -1.08915,-0.27314 -0.36277,1.63373c0.52921,1.10793 0.1912,1.09171 -0.14852,1.07635c-0.30131,-0.01366 -0.60433,-0.02817 -0.30558,0.74004c5.17604,6.44786 1.54325,3.54145 -0.36362,1.81639c-0.99867,-0.36362 -1.54325,-0.18181 -0.4541,1.81639c3.19064,4.48977 1.88383,3.48341 0.68029,2.55644c-0.6453,-0.49763 -1.26072,-0.97136 -1.13439,-0.55909c-1.41948,-0.6214 -1.10537,0.23217 -0.49678,1.88126l0.04268,0.11694c-0.72639,-0.18181 -0.72639,0.9082 -0.4541,1.99735l-9.62569,41.77193h8.53654c1.08915,0 1.90687,-0.27229 2.99688,-0.4541c4.26784,4.72194 3.63193,2.81507 2.08783,0.54543c-1.9726,-2.37719 -1.48777,-1.9854 -0.51299,-1.19926c0.99867,0.80577 2.51205,2.02722 2.42072,1.10793c0.61628,0.57787 0.49678,0.20827 0.34996,-0.2501c-0.19973,-0.6214 -0.45239,-1.40668 1.01148,-0.204c-2.05454,-2.64777 -1.125,-1.76091 0.12291,-0.57018c1.23426,1.17707 2.77922,2.65118 2.0571,1.29657c3.63193,3.08821 5.9929,4.2687 2.54278,-0.27229c-3.47658,-4.50599 -1.13269,-1.93419 1.33071,0.76736c2.74764,3.0148 5.64294,6.19008 0.75712,-0.13145zM247.00637,244.84676c0.39264,0.08365 0.78358,0.1673 0.92612,-0.02305h12.25895l-2.36097,10.35208h-8.17292c-0.12718,0 -0.34143,-0.0717 -0.57018,-0.14852c-0.5864,-0.19717 -1.27438,-0.42764 -0.88259,0.42081c1.40156,2.55644 -0.71529,0.92015 -1.66019,0.18949c-0.09645,-0.07426 -0.1801,-0.13913 -0.24668,-0.18949c-1.51679,-1.10622 -1.14634,-0.45581 -0.79296,0.16559c0.4302,0.75541 0.83564,1.46728 -2.20391,-1.07294c1.62263,2.96188 0.55994,2.14416 -0.54799,1.2906c-0.31838,-0.24497 -0.64103,-0.49336 -0.90478,-0.65554c-2.67252,-3.11723 -2.61448,-2.71947 -2.50352,-1.96577c0.06914,0.47544 0.15962,1.09342 -0.40203,1.05757c-3.08821,-4.35832 -5.17689,-4.44965 -1.18048,0.9082c-2.81507,-2.36097 -4.44965,-2.72374 -2.4523,-0.18181c1.21804,1.92394 0.17242,1.31193 -0.83479,0.72212c-0.4191,-0.24497 -0.83223,-0.48653 -1.07208,-0.54031h-15.8004l2.36097,-10.44255c0.27229,-0.99953 0.72639,-1.90687 1.18048,-2.81507c-0.06146,-0.30558 0.47202,0.1067 1.02514,0.53433c1.09257,0.84503 2.2611,1.74811 -0.93466,-2.71435c1.69433,1.3384 1.06781,0.39862 0.35679,-0.66749c-0.73663,-1.10537 -1.56459,-2.34646 0.00683,-1.32986c-0.15791,-0.59835 -0.69822,-1.4707 -1.14634,-2.19452c-0.84503,-1.36315 -1.36486,-2.20306 1.60044,0.28765c3.76509,4.15773 1.83773,0.58982 0.89198,-1.16085c-0.14852,-0.27656 -0.27314,-0.50702 -0.3474,-0.65554c-1.57654,-2.91835 -0.56336,-2.45998 0.0239,-2.19452c0.32606,0.14767 0.52068,0.23558 0.06658,-0.34826c-2.95249,-3.53292 -2.26708,-3.01651 -1.13439,-2.16123c0.99185,0.74858 2.32768,1.75664 1.86078,0.52665c0.38667,0.5147 0.44812,0.19888 0.53007,-0.22022c0.09219,-0.46861 0.20912,-1.06611 0.83223,-0.77845c-0.92015,-1.44594 -0.67773,-1.4118 -0.35338,-1.36742c0.3474,0.04865 0.78955,0.11011 -0.00939,-1.62946c-0.63591,-1.72506 -0.54543,-2.54278 0.4541,-1.99735c-0.29704,-0.76309 0.01963,-0.8143 0.33118,-0.86381c0.35508,-0.05634 0.70334,-0.11182 0.12291,-1.22487c-0.27912,-0.95685 0.47373,-0.46093 1.0994,-0.04951c0.80065,0.52665 1.39217,0.91588 -0.64615,-2.03917c-1.1711,-2.69472 -0.60433,-2.36609 -0.07938,-2.06222c0.28936,0.16815 0.56592,0.32777 0.53348,-0.02646c0.03329,-0.42849 -0.38752,-1.26243 -0.75626,-1.99223c-0.64615,-1.28121 -1.12927,-2.2372 1.30169,-0.09645c2.54278,1.27182 0.63505,-1.81639 0.4541,-2.08868c0.13572,-0.23729 -0.19888,-0.921 -0.50958,-1.55349c-0.51812,-1.05928 -0.9688,-1.97857 0.96368,-0.44386c1.16854,0.478 0.90734,-0.13145 0.61713,-0.81089c-0.20656,-0.48141 -0.42764,-0.99867 -0.16303,-1.18731c-0.45922,-0.81089 0.45239,-0.14255 1.37168,0.53092c1.4468,1.06099 2.91408,2.13734 -0.91844,-2.52827c-2.49242,-3.83081 -1.40327,-3.0609 -0.43788,-2.37975c0.47629,0.33716 0.92271,0.65213 0.89198,0.38155c-3.90422,-4.99423 -3.08736,-5.35785 0.4541,-1.72506c0.1067,0.06146 0.20998,0.12121 0.30814,0.1784c2.08783,1.20865 2.39682,1.38705 0.05548,-1.99479c0.36277,-0.27229 0.27229,-1.09001 0.36277,-1.63458l2.81507,-12.07714h15.70992l-6.53833,28.33164c0,0.14425 0.0956,0.40801 0.20144,0.70419c0.29704,0.82455 0.682,1.89578 -0.65469,1.29401c1.54325,2.81507 2.45145,4.54013 -0.4541,1.81639c4.26784,6.26519 1.81554,4.35832 -0.4541,1.99735c-1.28889,-0.81601 -0.54543,0.27741 0.16303,1.32047c0.78955,1.16256 1.53642,2.26196 -0.61713,0.5864c1.93589,2.65204 0.86723,1.65507 -0.31241,0.55482c-1.364,-1.27352 -2.87653,-2.68362 -0.05121,1.26157c-0.81686,-0.72639 -1.27096,0.4541 -0.4541,1.72506c1.27865,1.61239 0.7537,1.55691 0.21681,1.50057c-0.33972,-0.03585 -0.68542,-0.0717 -0.57957,0.31582c-1.28803,-0.93039 -0.77163,0.67688 -0.53946,1.40071c0.06231,0.19461 0.10414,0.32436 0.08536,0.32436c-0.40288,-0.22363 -0.29875,0.23644 -0.18693,0.72809c0.11523,0.50617 0.23815,1.04477 -0.17669,0.90649c1.22828,1.42034 0.65639,1.00721 -0.1195,0.44812c-1.05928,-0.76394 -2.49839,-1.80188 -0.24327,1.18646c-0.05463,0.21681 -0.15706,0.40118 -0.26717,0.5992c-0.25948,0.46519 -0.55994,1.0055 -0.36874,2.21586c2.95591,4.56915 2.73142,5.07276 -0.50104,2.64435c0.16901,0.14511 0.22876,0.27912 0.22876,0.35252l3.45098,3.99555c-0.23729,-0.3952 -0.02731,-0.274 0.33801,-0.06402c0.47373,0.27229 1.20951,0.69566 1.56886,0.33631c-0.07682,-0.22876 0.32862,-0.02475 0.7776,0.2023c0.61713,0.31155 1.31535,0.66322 0.94746,-0.02049c0.9082,0.36362 1.72506,0.63591 1.90687,0c0.17327,-0.12974 0.53263,-0.05292 0.89027,0.02305zM372.52701,247.23163c0.35679,0.84418 0.73407,1.7353 -1.27694,0.31667c-1.04989,-0.58384 0.2151,1.29828 1.34864,2.98407c1.51338,2.25086 2.79202,4.15346 -1.98369,-0.6231c1.95809,2.81421 0.37898,1.45107 -1.20438,0.08365c-1.94272,-1.67726 -3.89227,-3.36135 0.65895,2.64009c0.89625,1.79249 0.20315,1.9265 -0.28851,2.0221c-0.30643,0.0589 -0.53433,0.10328 -0.25607,0.52068c-0.01451,0 -0.0367,0.00939 -0.07255,0.02219c-0.19035,0.07341 -0.7409,0.28424 -2.19794,-0.02219c-0.43959,0 -0.5386,0.26461 -0.62652,0.49848c-0.14852,0.39349 -0.2629,0.69822 -1.91626,-0.49848c1.18134,1.81639 1.72592,2.9064 -1.72506,0h-35.23359l6.26605,-27.33296c-0.60433,-0.96624 -0.24412,-0.82625 0.19376,-0.65469c0.54884,0.21425 1.2206,0.47629 0.26034,-1.34352c3.90422,3.90508 6.26519,5.99376 0.54458,-2.08868c-0.42934,-0.83394 -0.91503,-1.64397 -1.31535,-2.31146c-1.125,-1.87529 -1.5791,-2.6324 1.76945,0.31411c-2.91664,-3.74973 -1.42546,-2.98578 -0.31923,-2.41901c0.34057,0.17413 0.6453,0.33033 0.77333,0.33033c-1.24365,-1.91285 -0.09475,-1.43314 0.78102,-1.06781c0.78784,0.32862 1.35461,0.56506 -0.23644,-1.11135c0,-0.035 -0.08109,-0.16901 -0.19376,-0.35765c-0.48568,-0.80748 -1.56203,-2.59826 0.64786,-1.64056c1.27096,1.63458 3.81374,2.72459 0.4541,-2.08868c1.48692,1.15146 0.74517,-0.25522 0.12804,-1.42546c-0.55141,-1.04477 -1.00294,-1.9009 0.32606,-0.57189c-0.16303,-0.29619 -0.33118,-0.59408 -0.49507,-0.88515c-1.29572,-2.30293 -2.35585,-4.1859 0.94917,-1.20353c4.35832,4.54013 3.63193,2.26964 0.4541,-1.90687c1.50569,1.32303 0.99355,0.42252 0.42252,-0.58213c-0.56506,-0.99526 -1.18817,-2.09295 0.03158,-1.23426c2.97298,2.76044 1.91797,0.83138 1.04989,-0.75626c-0.24497,-0.44898 -0.47629,-0.87064 -0.59579,-1.15061c0.55482,0.51726 0.32606,0.05634 0.01963,-0.56165c-0.44556,-0.90051 -1.05586,-2.13307 0.34313,-1.16427c0.38837,-0.07682 0.37813,-0.68542 0.36703,-1.36998c-0.00171,-0.11694 -0.00341,-0.23644 -0.00341,-0.35508c0.13999,0 0.06402,-0.33631 -0.01963,-0.70932c-0.13316,-0.59494 -0.28765,-1.28121 0.3824,-0.83394l2.4523,-10.53389h41.77193l-2.36097,10.35208h-26.062l-3.54145,15.07402c-1.26499,0.05719 -0.78272,1.57142 -0.51214,2.41987c0.15706,0.49251 0.24241,0.76138 -0.12377,0.3952c2.45145,2.90555 2.54278,2.72459 0.81686,0c0.29277,-0.23388 0.81004,-0.16645 1.40839,-0.08877c0.33204,0.04268 0.68798,0.08877 1.04391,0.08877h17.79861l-2.36097,10.2616h-6.72014c-0.54458,0 -1.27096,0 -1.90687,-0.09133c1.3623,2.54278 0.09048,1.9982 -1.81639,0.09133c-2.45145,-2.18001 -2.17916,-0.72639 -1.63458,0.63505c-1.3623,-0.81686 -2.17916,-1.18048 -2.45145,-0.63505c-1.22402,-1.08318 -1.15488,-0.75029 -1.06952,-0.34313c0.07853,0.37813 0.17157,0.82028 -0.74687,0.2518c-5.17604,-5.63014 -3.90508,-2.72374 -1.45277,0.09133c-1.4946,-1.26499 -1.64312,-0.92868 -1.82664,-0.51129c-0.1067,0.24156 -0.22534,0.51129 -0.62567,0.51129c-1.38193,-0.96709 -2.32939,-1.7114 -2.78946,-2.07161l-0.00171,-0.00171c-0.204,-0.15962 -0.3107,-0.24412 -0.31667,-0.23815c-0.00597,0.00683 0.11352,0.12462 0.36447,0.37301c0.34996,0.34484 0.956,0.94405 1.83517,1.84712c0,0.09389 0.05121,0.31582 0.11523,0.60091c0.24924,1.09427 0.70846,3.11638 -0.65981,2.39597c-2.68106,-2.51376 -2.02893,-1.00721 -1.32047,0.63079c0.443,1.02514 0.9082,2.10063 0.59408,2.27476c-1.02087,-0.90478 -2.04174,-1.88639 -2.86884,-2.68191c-2.40962,-2.31744 -3.17357,-3.05236 2.50522,4.3165c-0.81686,-0.63505 -1.72506,0.81772 -0.36277,1.72592c0.54799,1.04989 0.22363,0.95258 -0.11865,0.8493c-0.33887,-0.10157 -0.69651,-0.20827 -0.24497,0.78528c0.91332,0.94746 0.76821,0.84845 0.34826,0.5625c-0.70675,-0.48141 -2.19282,-1.49204 -0.71102,1.07208c1.30852,2.30549 0.73578,2.43011 0.07085,2.57522c-0.30387,0.06572 -0.62652,0.13657 -0.79723,0.42081l-0.63591,2.72459h2.72459c-0.26802,-0.75797 0.31838,-0.48739 1.03794,-0.1545c0.74602,0.34484 1.63629,0.75541 1.86761,0.1545c-0.9082,-1.54325 -3.72327,-6.35652 1.63458,0c0.56677,0.51556 0.7537,0.38752 1.00806,0.21339c0.19376,-0.1323 0.42764,-0.29192 0.89881,-0.21339c-1.99735,-3.35964 -0.36277,-2.17916 1.81639,0c5.12738,5.44833 3.10016,2.72544 1.09684,0.03585c-1.97004,-2.64606 -3.91617,-5.25883 0.99185,-0.03585c3.81545,4.29857 2.82702,2.71435 1.74896,0.98587c-0.94917,-1.52106 -1.96747,-3.15393 0.15791,-0.98587c2.63497,2.95164 2.2722,2.04856 1.85907,1.02001c-0.29875,-0.74346 -0.6231,-1.55349 0.13828,-1.02001c0.12291,-0.44812 0.79296,-0.20144 1.47923,0.05036c0.84333,0.30985 1.70884,0.62823 1.60898,-0.32265c-0.55226,-1.24109 -0.03329,-0.80662 0.53092,-0.3346c0.55055,0.46093 1.14464,0.9577 0.83052,-0.02902c-2.20135,-2.41731 -1.42717,-1.7353 -0.21339,-0.66749c1.33925,1.17878 3.21198,2.82787 2.2116,1.3034c0.44812,-0.20656 0.26802,-1.08062 0.12547,-1.77286c-0.23302,-1.13098 -0.36533,-1.77628 2.50778,1.77286l1.09001,1.18048c-0.15535,-0.12718 -0.31582,-0.2629 -0.46861,-0.39349c-0.83223,-0.70761 -1.4707,-1.25133 -0.1673,0.66578c-0.19035,0.06402 -0.00427,0.50275 0.18693,0.95514zM349.91001,226.57101c0.02902,-0.02902 0.04012,-0.03926 0.04353,-0.0367c0.00256,0.00085 0.00256,0.00597 0.00256,0.01451c0,0.02219 0,0.06829 0.04524,0.11352zM194.99077,229.93151c-2.39597,-3.09248 -1.76518,-1.31535 -1.0772,0.62652c0.12035,0.33887 0.24327,0.68371 0.35082,1.00806c-13.11252,-14.94086 -7.93136,-8.21816 -3.7796,-2.83129c1.82834,2.37207 3.45695,4.4855 3.23502,4.37454c-0.18181,0.63591 -0.27229,1.09001 -0.36362,1.90687c-3.17783,8.26425 -6.447,10.44341 -11.35075,10.44341c-7.08291,0 -8.62702,-4.44965 -4.08603,-24.15513v-0.18181c0.33033,0 0.1673,-0.49422 0.00597,-0.98246c-0.28168,-0.85101 -0.55653,-1.68153 1.80956,0.16559c-0.99867,-0.9082 -4.17736,-6.81062 0.18181,-2.54278c5.87255,5.52259 3.45695,2.1655 1.32901,-0.79126c-0.63591,-0.8843 -1.24621,-1.73189 -1.60129,-2.2961c7.41495,8.22157 5.81621,5.85377 1.99735,0.20144c-0.48312,-0.71614 -1.00294,-1.48436 -1.54325,-2.29012c0.88174,0.68883 2.57522,2.3567 4.11761,3.8752c3.53975,3.48683 6.28568,6.19093 -3.39123,-5.50978c-1.7114,-1.92053 -1.47497,-1.71994 -0.77931,-1.12671c1.11391,0.94831 3.40574,2.90128 0.77931,-1.23426c0.03926,-0.71273 0.56165,-0.45922 0.89113,-0.2996c0.42593,0.20656 0.52751,0.25607 -1.16341,-2.1527c7.93819,8.11487 5.70952,5.33907 3.54743,2.64606c-1.17707,-1.46558 -2.33451,-2.90725 -1.82237,-2.55473c-0.99867,-2.18001 -1.09001,-3.99555 1.09001,-2.36097c0.36277,-0.81772 0.81686,-1.45363 1.18048,-2.08868c2.36097,-3.54145 5.17604,-4.63146 8.62702,-4.63146c6.08338,0 8.08158,3.45098 5.44833,17.34451l-0.4541,2.17916c-1.79335,-1.87444 -1.31876,-0.53007 -0.61201,1.47155c0.08109,0.22876 0.16474,0.46605 0.24839,0.70761c-0.06572,0.36362 -0.46776,0.23473 -0.83991,0.11523c-0.65042,-0.20827 -1.20695,-0.38752 0.29533,2.15526c1.18048,0.81772 2.81507,3.26917 0,0.18181c2.02466,2.76556 1.17622,2.4156 0.31582,2.06137c-0.72127,-0.29704 -1.45021,-0.5975 -0.49763,0.93551c0.77504,0.92271 -0.05463,0.36021 -1.10622,-0.35252c-1.53472,-1.0405 -3.54145,-2.39938 -1.70884,0.07938c-0.47714,-0.59579 -0.67005,-0.83479 -0.67688,-0.82967c-0.00512,0.00341 0.10072,0.15364 0.27314,0.39691l0.00085,0.00085c0.96283,1.36059 3.98787,5.63184 1.2206,3.70107c0.61884,0.78187 1.18817,1.50143 1.7114,2.16209l0.00085,0.00171c3.48597,4.40014 4.89095,6.17301 4.78254,6.27117c-0.07255,0.06572 -0.83479,-0.63164 -2.11087,-1.79932c-1.12927,-1.03282 -2.66143,-2.43438 -4.47526,-4.00153zM284.61886,244.82372l10.7157,-46.22158h7.17339c8.53654,0 9.17245,8.53654 5.81195,23.06512l-0.09048,0.36362c-3.3605,14.34763 -7.90063,22.79283 -16.43631,22.79283zM236.21812,241.91817l0.27229,0.36277c0.18181,-0.18181 0.81772,0.18181 2.36097,1.72592l-2.72374,-3.8146c-0.14596,-0.11438 -0.29192,-0.23217 -0.43191,-0.3457c-1.07976,-0.87491 -1.80871,-1.46558 0.52238,2.07161zM235.67355,244.82372c0.72639,1.09001 1.72506,2.4523 1.18048,0.72639c1.2684,1.19841 0.40374,-0.06487 -0.34484,-1.15829c-0.2151,-0.31497 -0.42166,-0.61542 -0.56336,-0.83906c0.54628,0.93722 -0.63676,-0.10755 -1.64312,-0.99611c-1.33327,-1.17707 -2.355,-2.08015 1.37083,2.26708zM405.12393,272.3752l0.03244,-3.13004c-0.76053,-0.45666 -1.59788,-0.82625 -2.51034,-1.10879c-0.91246,-0.28253 -1.74982,-0.42337 -2.51034,-0.42337c-1.02144,0 -1.95069,0.14653 -2.78775,0.43959c-0.8365,0.29363 -1.55349,0.70675 -2.15185,1.23938c-0.5975,0.53263 -1.05928,1.17906 -1.38534,1.93931c-0.32606,0.76081 -0.48909,1.5976 -0.48909,2.51034c0,1.15232 0.45068,2.2116 1.35291,3.17869c0.90222,0.96795 2.10319,1.67982 3.60291,2.13563c0.82569,0.239 1.57,0.52153 2.23293,0.84759c0.66322,0.32606 1.23341,0.67432 1.7114,1.04391c0.47885,0.36874 0.84845,0.75455 1.10879,1.15659c0.26119,0.40288 0.39093,0.79894 0.39093,1.19073c0,0.956 -0.37472,1.71653 -1.12415,2.28159c-0.75029,0.56506 -1.74469,0.84759 -2.98322,0.84759c-1.06525,0 -2.09722,-0.27143 -3.0976,-0.81516c-0.99981,-0.54287 -1.78225,-1.27096 -2.34731,-2.18428c-0.06487,-0.1084 -0.13572,-0.21681 -0.21168,-0.32606c-0.07597,-0.1084 -0.14681,-0.21681 -0.21168,-0.32521h-0.42422l-0.03244,3.12918c0.76053,0.45666 1.71738,0.82625 2.86884,1.10879c1.15232,0.28253 2.30378,0.42337 3.4561,0.42337c1.04306,0 1.99394,-0.14084 2.85263,-0.42337c0.85869,-0.28253 1.5919,-0.67347 2.2005,-1.17366c0.60888,-0.50019 1.08176,-1.10879 1.41863,-1.82578c0.33631,-0.717 0.50531,-1.51082 0.50531,-2.37975c0,-1.23938 -0.47885,-2.36951 -1.43485,-3.39123c-0.956,-1.02087 -2.22781,-1.77115 -3.8146,-2.24915c-1.58678,-0.478 -2.85775,-1.06525 -3.8146,-1.76091c-0.956,-0.69566 -1.43399,-1.39046 -1.43399,-2.08612c0,-0.50019 0.09219,-0.96709 0.27656,-1.40241c0.18522,-0.43447 0.44044,-0.80918 0.7665,-1.12415c0.32606,-0.31582 0.71188,-0.56506 1.15744,-0.75029c0.44556,-0.18437 0.92925,-0.27656 1.45107,-0.27656c0.97734,0 1.85224,0.30387 2.62387,0.91246c0.77163,0.60859 1.40753,1.30425 1.90773,2.08697c0.06487,0.1084 0.13572,0.22278 0.21168,0.34228c0.07597,0.1195 0.14681,0.23302 0.21168,0.34228zM143.40879,267.87604h6.32494v0.48909c-0.28253,0 -0.49934,0.04353 -0.65213,0.12974c-0.15194,0.08706 -0.26631,0.33716 -0.34228,0.75029c-0.07597,0.41313 -0.1195,1.04818 -0.12974,1.90687c-0.0111,0.85869 -0.01707,2.04856 -0.01707,3.57048v11.6384h0.39179c1.67299,0 2.99944,-0.01622 3.97763,-0.04865c0.97734,-0.03244 1.74896,-0.11438 2.31402,-0.24412c0.56592,-0.1306 0.99441,-0.32606 1.28803,-0.58726c0.29363,-0.26034 0.59238,-0.61969 0.8971,-1.0755l0.26034,-0.3585c0.08706,0.02134 0.16303,0.04268 0.2279,0.06487c0.1306,0 0.26119,0.02134 0.39179,0.06487c-0.06572,0.41313 -0.14169,0.86381 -0.22876,1.35291c-0.08621,0.48909 -0.16303,0.94063 -0.2279,1.35376h-0.03244l-0.09816,0.48824h-14.34507v-0.48824c0.30472,0 0.53263,-0.04353 0.68456,-0.1306c0.15279,-0.08706 0.26119,-0.33716 0.32606,-0.75029c0.06572,-0.41313 0.10328,-1.04818 0.11438,-1.90687c0.0111,-0.85869 0.01622,-2.04856 0.01622,-3.57048v-5.80256c0,-1.52191 -0.00512,-2.71179 -0.01622,-3.57048c-0.0111,-0.85869 -0.04865,-1.49374 -0.11438,-1.90687c-0.06487,-0.41313 -0.17327,-0.66322 -0.32606,-0.75029c-0.15194,-0.08621 -0.37984,-0.12974 -0.68456,-0.12974zM208.04695,286.7527c0.15194,0.08706 0.3696,0.1306 0.65213,0.1306v0.48824h-6.32494v-0.48824c0.30472,0 0.53263,-0.04353 0.68456,-0.1306c0.15194,-0.08706 0.26119,-0.33716 0.32606,-0.75029c0.06572,-0.41313 0.10328,-1.04818 0.11438,-1.90687c0.0111,-0.85869 0.01622,-2.04856 0.01622,-3.57048v-5.80256c0,-1.52191 -0.00512,-2.71179 -0.01622,-3.57048c-0.0111,-0.85869 -0.04865,-1.49374 -0.11438,-1.90687c-0.06487,-0.41313 -0.17413,-0.66322 -0.32606,-0.75029c-0.15194,-0.08621 -0.37984,-0.12974 -0.68456,-0.12974v-0.48909h6.32494v0.48909c-0.28253,0 -0.50019,0.04353 -0.65213,0.12974c-0.15194,0.08706 -0.26631,0.33716 -0.34228,0.75029c-0.07597,0.41313 -0.1195,1.04818 -0.1306,1.90687c-0.0111,0.85869 -0.01622,2.04856 -0.01622,3.57048v5.80256c0,1.52191 0.00512,2.71179 0.01622,3.57048c0.0111,0.85869 0.05463,1.49374 0.1306,1.90687c0.07597,0.41313 0.19035,0.66322 0.34228,0.75029zM253.54385,268.36513c0.30472,0 0.53263,0.04353 0.68456,0.12974c0.15279,0.08706 0.26119,0.33716 0.32606,0.75029c0.06572,0.41313 0.10328,1.04818 0.11438,1.90687c0.0111,0.85869 0.01622,2.04856 0.01622,3.57048v5.80256c0,1.52191 -0.00512,2.71179 -0.01622,3.57048c-0.0111,0.85869 -0.04865,1.49374 -0.11438,1.90687c-0.06487,0.41313 -0.17327,0.66322 -0.32606,0.75029c-0.15194,0.08706 -0.37984,0.1306 -0.68456,0.1306v0.48824h3.48853v-0.48824c-0.28253,0 -0.50019,-0.04353 -0.65213,-0.1306c-0.15194,-0.08706 -0.26631,-0.33716 -0.34228,-0.75029c-0.07597,-0.41313 -0.1195,-1.04818 -0.1306,-1.90687c-0.01024,-0.85869 -0.01622,-2.04856 -0.01622,-3.57048v-9.19378c2.17404,2.80397 4.33101,5.58575 6.47176,8.34619c2.14075,2.76044 4.28719,5.5425 6.43932,8.34619h1.3034v-13.30116c0,-1.52191 0.00597,-2.71179 0.01707,-3.57048c0.01024,-0.85869 0.05377,-1.49374 0.12974,-1.90687c0.07597,-0.41313 0.19035,-0.66322 0.34228,-0.75029c0.15279,-0.08621 0.3696,-0.12974 0.65213,-0.12974v-0.48909h-3.48853v0.48909c0.30472,0 0.53263,0.04353 0.68542,0.12974c0.15194,0.08706 0.26034,0.33716 0.32521,0.75029c0.06572,0.41313 0.10328,1.04818 0.11438,1.90687c0.0111,0.85869 0.01622,2.04856 0.01622,3.57048v6.94378l-10.62778,-13.79025h-4.72791zM330.7585,276.87435v3.65071c0,1.52191 0.00597,2.71179 0.01707,3.57048c0.01024,0.85869 0.05377,1.49374 0.12974,1.90687c0.07597,0.41313 0.19035,0.66322 0.34228,0.75029c0.15279,0.08706 0.3696,0.1306 0.65213,0.1306v0.48824h-6.29165v-0.48824c0.30387,0 0.53177,-0.04353 0.68456,-0.1306c0.15194,-0.08706 0.26034,-0.33716 0.32606,-0.75029c0.06487,-0.41256 0.10271,-1.04818 0.11352,-1.90687c0.0111,-0.85869 0.01622,-2.04856 0.01622,-3.57048v-5.80256c0,-1.52191 -0.00512,-2.71179 -0.01622,-3.57048c-0.01024,-0.85869 -0.04865,-1.49374 -0.11352,-1.90687c-0.06572,-0.41313 -0.17413,-0.66322 -0.32606,-0.75029c-0.15279,-0.08621 -0.38069,-0.12974 -0.68456,-0.12974v-0.48909h6.29165v0.48909c-0.28253,0 -0.49934,0.04353 -0.65213,0.12974c-0.15194,0.08706 -0.26631,0.33716 -0.34228,0.75029c-0.07597,0.41313 -0.1195,1.04818 -0.12974,1.90687c-0.0111,0.85869 -0.01707,2.04856 -0.01707,3.57048zM331.96544,278.70014c-0.45637,-0.67432 -0.85869,-1.28291 -1.20695,-1.82578l2.70667,-2.967l1.33669,-1.43485c0.86893,-0.956 1.54837,-1.70628 2.03747,-2.24915c0.48909,-0.54372 0.84247,-0.95685 1.05928,-1.23938c0.21766,-0.28253 0.32094,-0.45581 0.30985,-0.52153c-0.0111,-0.06487 -0.08109,-0.09731 -0.21168,-0.09731h-0.09816v-0.48909h3.19491v0.48909h-0.19547c-0.21681,0 -0.43959,0.04865 -0.66834,0.14596c-0.2279,0.09816 -0.56506,0.35935 -1.01062,0.78272c-0.44556,0.42422 -1.06525,1.05928 -1.85822,1.90773c-0.79296,0.84759 -1.86334,2.02125 -3.21112,3.52097l-0.09816,0.09731c0.3696,0.54372 0.886,1.30425 1.54837,2.28244c0.66322,0.97819 1.42973,2.11941 2.29866,3.42281c0.76053,1.15232 1.44594,2.12453 2.05454,2.91835c0.60859,0.79296 1.16256,1.43485 1.66275,1.92309c0.49934,0.48909 0.97221,0.84247 1.41778,1.06013c0.44556,0.21681 0.886,0.32606 1.32047,0.32606v0.78187h-1.36912c-0.91332,0 -1.73872,-0.07597 -2.47791,-0.2279c-0.73919,-0.15194 -1.42375,-0.39093 -2.05369,-0.717c-0.63079,-0.32606 -1.20695,-0.74431 -1.72848,-1.2556c-0.52153,-0.51043 -1.03196,-1.12415 -1.53216,-1.842c-0.67375,-0.99981 -1.28234,-1.90716 -1.82578,-2.72203c-0.54287,-0.81516 -1.01062,-1.50484 -1.40156,-2.0699z" data-paper-data="{&quot;isBaseLogoContainer&quot;:true}" id="element-id-52071"></path></g></g></g><rect data-element-id="element-id-53273" stroke-width="2" fill="transparent" class="invisible-element-box grouping-element" x="65" y="151" width="420" height="168" data-element-name="isContainerElementsWrapper"></rect><rect data-element-id="element-id-52071" stroke-width="2" fill="transparent" class="invisible-element-box individual-element" x="65" y="151" width="420" height="168"></rect></svg>